<svg xmlns="http://www.w3.org/2000/svg" fill-rule="evenodd" image-rendering="optimizeQuality" shape-rendering="geometricPrecision" viewBox="0 0 1024 1024" xmlns:v="https://vecta.io/nano"><path d="M-.5-.5h797c-.111.617-.444 1.117-1 1.5l3.5 5.5a7.29 7.29 0 0 0 2-3 6.54 6.54 0 0 0 3 3l1 5c.914-1.154 1.747-.987 2.5.5-1.979.684-3.646.184-5-1.5-.815 1.776-1.982 2.443-3.5 2-1.316-2.528-2.483-2.528-3.5 0 .477.978 1.143 1.811 2 2.5-1.074.739-1.741 1.739-2 3l4 2c-1.947.991-3.947 1.325-6 1 1.017-1.05 1.184-2.216.5-3.5-.667 2.667-1.333 2.667-2 0-.684 1.284-.517 2.45.5 3.5-1.801.317-2.134.984-1 2-2.602.935-4.102 2.768-4.5 5.5-.451-2.429-1.285-2.596-2.5-.5 2.728.84 4.395 2.173 5 4-1.89 1.873-3.89 2.706-6 2.5l1.5 3c.725-1.658 1.892-2.158 3.5-1.5-1.211.893-1.211 1.726 0 2.5.951-.826 1.951-.992 3-.5-1.333 1-1.333 2 0 3-1.519 1.351-2.852 2.851-4 4.5 1.388 2.579 2.888 2.579 4.5 0a44.13 44.13 0 0 0 .5 6.5l-1 .5c-.715-2.278-1.882-3.611-3.5-4-.089 3.349-1.256 3.849-3.5 1.5a4.45 4.45 0 0 0 2-1.5c-.603-1.135-.936-2.135-1-3-1.807 1.664-2.807 3.331-3 5a6.8 6.8 0 0 1-1.5-3c-.667 1.667-.667 3.333 0 5a20.84 20.84 0 0 0 2.5 1c-2.238 1.353-3.571 3.353-4 6 2.164 2.807 3.498 5.641 4 8.5-1.185 1.353-2.519 2.52-4 3.5-.236-.747-.57-1.581-1-2.5-1.465-.601-2.465-.101-3 1.5 2.491 1.041 2.491 1.874 0 2.5 3.189.981 3.522 2.314 1 4 1.201.903 2.035 2.069 2.5 3.5 2.206-4.031 2.706-3.864 1.5.5 4.015 2.107 3.682 2.773-1 2a7.29 7.29 0 0 0-3-2l1-1c-2.026-1.295-3.026-2.795-3-4.5-2.624 1.047-3.458 2.713-2.5 5-1.241-1.921-2.741-2.254-4.5-1 .826.951.992 1.951.5 3a7.75 7.75 0 0 1-5.5.5l-1 1c2.501 1.418 2.168 2.418-1 3 1.2 1.031 2.534 1.865 4 2.5 1.363-.698 2.529-.698 3.5 0 1.852-1.73 1.686-2.896-.5-3.5l2-.5c2.543.547 4.543 1.88 6 4 2.569-1.022 4.735-2.356 6.5-4 1.451.855 2.951 1.022 4.5.5 2.391 1.309 2.391 2.309 0 3 2.378.975 2.044 1.641-1 2-2.644 2.442-2.31 4.608 1 6.5 3.561-1.294 3.894-.46 1 2.5.542 2.354.709 4.854.5 7.5 1.385-1.051 2.385-2.384 3-4 1.284 1.072 1.617 2.405 1 4 1.11-1.537 2.61-2.203 4.5-2 .17-1.322-.163-2.489-1-3.5 1.319-1.628 2.652-1.461 4 .5l5-3.5c-1.561-.318-2.728-1.151-3.5-2.5-.308.808-.808 1.475-1.5 2-.236-.747-.57-1.581-1-2.5l2.5-2.5a7.29 7.29 0 0 0 2 3c.667-1.333 1.333-1.333 2 0 1.033 2.718.2 4.551-2.5 5.5 1.074.739 1.741 1.739 2 3-.982.381-1.648 1.214-2 2.5 1.552 1.904 2.552 3.737 3 5.5-1.82-.746-3.487-2.079-5-4 .951-.718 1.117-1.551.5-2.5-1.32.299-2.82.466-4.5.5l2 1c-2.728.639-3.228 1.806-1.5 3.5l1-1c-.416 3.952 1.417 6.786 5.5 8.5-1.325-.148-2.492.018-3.5.5l-1-2c-.29 1.544-.956 2.877-2 4-1.008-1.759-2.508-2.926-4.5-3.5.78-1.073.613-2.24-.5-3.5-.626 2.491-1.459 2.491-2.5 0-2.209.606-4.376 1.273-6.5 2l-1-1a14.97 14.97 0 0 1-3.5 3c-.169-.897-.502-1.897-1-3-.73 1.434-1.73 2.6-3 3.5 2.667.667 2.667 1.333 0 2l2 1c-2.35 2.373-2.517 4.873-.5 7.5 1.692-.176 3.192-.676 4.5-1.5l-4-1c2.213-.626 4.38-.459 6.5.5a19.67 19.67 0 0 1 9.5-3c-.333 3 1 4.333 4 4a8.43 8.43 0 0 1-.5 4c-1.851.009-3.685-.824-5.5-2.5 1.054-1.388 1.22-2.888.5-4.5l-1 2c-1.388-1.054-2.888-1.22-4.5-.5 2.631 1.691 2.297 2.858-1 3.5-.502 1.216-.835 2.383-1 3.5l1.5 1.5 3-1c1.824 1.249 1.657 2.415-.5 3.5l1.5 1.5c1.365-3.723 3.032-3.723 5 0v-4c.75.626 1.584 1.126 2.5 1.5-1.333 1-1.333 2 0 3a22.98 22.98 0 0 0 5 2c-2.429.451-2.596 1.285-.5 2.5.915-.828 1.581-1.828 2-3 2.934 3.832 4.434 3.498 4.5-1 .808.308 1.475.808 2 1.5-.837 1.011-1.17 2.178-1 3.5-3.218.151-3.551.984-1 2.5-2.671 3.298-3.671 2.965-3-1a3.43 3.43 0 0 0-2.5-1.5c-.585 1.665-1.919 3.332-4 5-1.333-4-2.667-4-4 0-.743-1.941-.576-3.774.5-5.5l-1.5-1.5c-1.019 1.769-1.186 3.436-.5 5-1.414 1.124-2.914 2.124-4.5 3-1.458-1.247-2.958-1.247-4.5 0-1.211.774-1.211 1.607 0 2.5l-2.5 2.5c-1.307-1.272-2.807-2.272-4.5-3-5.282-7.55-4.115-8.55 3.5-3a7.69 7.69 0 0 0 4-3c.718.951 1.551 1.117 2.5.5-1.259-.923-2.592-1.757-4-2.5.998-2.528 1.831-2.528 2.5 0 1.067-1.443 2.234-2.776 3.5-4-.82-1.611-2.154-2.278-4-2 .149-1.052-.017-2.052-.5-3-1.602 1.895-3.102 3.895-4.5 6 .209.586.543 1.086 1 1.5-1.718.346-3.385.846-5 1.5-1.211-.774-1.211-1.607 0-2.5l-1.5-.5c-1.011.392-1.511 1.059-1.5 2-1.219-.763-2.219-1.763-3-3-1.598.985-3.265 1.151-5 .5l2-1c-2.559-1.323-3.225-3.157-2-5.5 2.12 1.372 3.12.705 3-2-1.052.149-2.052-.017-3-.5 1.859-.684 3.526-1.684 5-3l-1-1 4-1c-3.159-.859-6.159-2.025-9-3.5-1.602 1.05-2.435.383-2.5-2a20.79 20.79 0 0 1-2.5 1c1.54 1.032 2.04 2.365 1.5 4-1.16-2.297-2.16-1.964-3 1l-1-3c-.163 2.176-.996 4.009-2.5 5.5l2 1c-1.173 3.11-.673 3.277 1.5.5 1.16 2.297 2.16 1.964 3-1 1.824 1.249 1.657 2.415-.5 3.5 1.41.368 2.41 1.201 3 2.5-1.391-.391-2.391.442-3 2.5l3 1-1 1a8.01 8.01 0 0 1 2 5.5c-3.661-.074-4.328.926-2 3l-1 1c-1.985-1.957-3.485-4.29-4.5-7a36.08 36.08 0 0 1-3.5 4.5c3.214.41 3.88 1.91 2 4.5 1.542.568 2.375 2.235 2.5 5 .308-.808.808-1.475 1.5-2 1.252 1.501 2.252 3.168 3 5-1.571.704-3.238 2.037-5 4 .173-2.046-.66-4.046-2.5-6-.718.951-1.551 1.117-2.5.5l3-3c-1.177-2.719-2.843-4.219-5-4.5 1.897-1.168 2.064-2.835.5-5-.317 1.801-.984 2.134-2 1l-1 4-1-1c-.684 1.284-.517 2.451.5 3.5l-2 .5c-.766-1.303-2.266-2.637-4.5-4-2.096 1.215-1.929 2.049.5 2.5-2.391.187-3.558 1.02-3.5 2.5-1.826-.51-1.993-1.344-.5-2.5-5.333-.667-5.333-1.333 0-2a8.43 8.43 0 0 0-4-.5c.17-1.322-.163-2.489-1-3.5l1-.5a6.8 6.8 0 0 1 1.5 3 15.83 15.83 0 0 1 5.5-3.5c-1.333-1.84-1.166-2.34.5-1.5 1.067-.691 2.234-1.191 3.5-1.5-.691-1.067-1.191-2.234-1.5-3.5-1.388 1.054-2.888 1.22-4.5.5a41.02 41.02 0 0 0 0-7.5 10.84 10.84 0 0 0-6 3.5c2.629 2.789 1.962 4.789-2 6 1.284.684 2.451.517 3.5-.5 2 1 2 2 0 3-.971-.698-2.137-.698-3.5 0-1.147-.318-1.981-.984-2.5-2-1.375 3.502-3.208 4.168-5.5 2-1.656 1.522-2.823 1.189-3.5-1-.414.457-.914.791-1.5 1-1.51-2.009-3.177-3.842-5-5.5 1.561-.318 2.728-1.151 3.5-2.5a7.25 7.25 0 0 0 2.5 2c-.391-1.391.442-2.391 2.5-3a4.59 4.59 0 0 0 2.5 2.5c-1.172.419-2.172 1.085-3 2 1.638 1.799 3.471 2.965 5.5 3.5l1-4c.308.808.808 1.475 1.5 2 1.345-.847 2.345-2.013 3-3.5-1.549.522-3.049.355-4.5-.5-.945.405-1.612 1.072-2 2a28.93 28.93 0 0 0-1.5-4c2.002-.196 3.669-.863 5-2-1.583-2.258-3.583-4.092-6-5.5l4-1c-.928-.388-1.595-1.055-2-2 .705-1.422 1.039-2.755 1-4l-4-4c.808-.308 1.475-.808 2-1.5-.438-1.006-1.104-1.006-2 0-.6 2.076-.933 4.076-1 6-1.771-.535-2.104-1.369-1-2.5-3.26-.422-5.926-1.922-8-4.5-.498 1.103-.831 2.103-1 3-5.655-1.207-5.988-2.54-1-4a33.24 33.24 0 0 0 3.5-6c3.409 1.122 6.909 1.289 10.5.5l-1-1c1.393-1.171 2.227-2.671 2.5-4.5 1.016 1.134 1.683.801 2-1 1.965 1.385 3.798 1.218 5.5-.5l-1.5-1.5c-.423 1.456-1.256 1.956-2.5 1.5 1.211-1.113 1.211-2.28 0-3.5 2.356-1.154 2.523-2.487.5-4l-3 1-1-4c-.837 1.507-2.004 2.007-3.5 1.5.758-1.364.258-2.531-1.5-3.5l-3.5 3.5c2.528 1.316 2.528 2.483 0 3.5-2.241-.532-3.741-1.865-4.5-4-2.734.862-2.901 1.695-.5 2.5-3.115.552-5.448 2.219-7 5l1 1c-5.309-1.026-6.309.808-3 5.5a10.26 10.26 0 0 0 1.5-4c.374.916.874 1.75 1.5 2.5l-1 7c2.462 1.85 1.962 3.017-1.5 3.5-.974-2.378-1.641-2.044-2 1-1.324-1.38-2.657-1.714-4-1-1.706-2.205-3.206-4.538-4.5-7 .374 1.271-.292 2.438-2 3.5 1.367 2.301 2.034 4.801 2 7.5-4.437-.534-7.604 1.133-9.5 5l-1-3-.5 6.5c1.279 1.646 2.945 2.813 5 3.5-1.037 3.587-2.537 3.587-4.5 0-1.84 1.333-2.34 1.166-1.5-.5-.626-.75-1.126-1.584-1.5-2.5-.51 2.045-1.343 3.879-2.5 5.5 1.206 4.364.706 4.531-1.5.5-1.77.776-3.603.61-5.5-.5 4-.667 4-1.333 0-2l-1-3c2.071-.983 4.071-1.65 6-2 .947-2.188.947-4.522 0-7a25.47 25.47 0 0 0 9-4c-.227-2.369-.393-4.869-.5-7.5-.221 3.443-1.221 3.776-3 1-2.496 4.036-5.662 4.869-9.5 2.5.522-.561.855-1.228 1-2-1.846-1.091-2.513-2.424-2-4 2.095-.556 2.262-1.056.5-1.5a3.43 3.43 0 0 0-2.5 1.5c1.231 1.183 1.231 2.349 0 3.5-2.029-1.129-2.363-.629-1 1.5-1.73 1.852-2.896 1.686-3.5-.5a40.26 40.26 0 0 0-4.5 4c-.692-.525-1.192-1.192-1.5-2a4.59 4.59 0 0 1-2.5 2.5l3 1c-1.5.833-2.667 2-3.5 3.5-.915-.828-1.581-1.828-2-3-.772 1.349-1.939 2.182-3.5 2.5 1.26 1.113 2.427 1.28 3.5.5 1.709 3.212 3.209 3.378 4.5.5 2.227-.121 4.06-.954 5.5-2.5 2.285 1.319 4.452 2.819 6.5 4.5l-5-1c1.363 2.129 1.029 2.629-1 1.5a10.26 10.26 0 0 0-1.5 4c-.725.559-1.558.892-2.5 1-1.004-.654-2.004-1.487-3-2.5a8.43 8.43 0 0 0-4-.5c-.417 2.579.25 4.746 2 6.5l-2 1c1.333.667 1.333 1.333 0 2-.949.617-1.782.451-2.5-.5-.667 2.667-1.333 2.667-2 0l-1 4c-1.91-2.48-4.41-4.147-7.5-5-2.933 2.238-2.599 3.238 1 3 .42 6.784-.08 13.45-1.5 20-.483-.948-.649-1.948-.5-3-2.442-.146-3.109.687-2 2.5l-1.5 1.5c-.235-5.987-.902-11.987-2-18-.317 6.505-.484 13.172-.5 20a924.22 924.22 0 0 0 43-.5 41.71 41.71 0 0 1-13-2.5c-3.164.811-6.497.978-10 .5-1.123-1.044-2.456-1.71-4-2-1.767-1.488-2.101-2.988-1-4.5 2.093 5.295 3.593 4.962 4.5-1 1.049-1.017 2.216-1.184 3.5-.5-4.18 4.152-3.18 6.318 3 6.5 1.82-.149 3.32-.816 4.5-2 .414.457.914.791 1.5 1 1.123-1.044 2.456-1.71 4-2 1.704.568 3.204.568 4.5 0l1 3c2.003-2.422 4.503-3.255 7.5-2.5l-4 2c3.044.359 3.378 1.026 1 2 1.667.667 3.333.667 5 0-1.154-.914-.987-1.747.5-2.5.5 1.833 1.667 3 3.5 3.5l-2 1c1.941 1.816 2.608 3.816 2 6a7.75 7.75 0 0 0-5.5.5c-.667 1.333-.667 2.667 0 4l1-1c1.505 1.798 1.672 3.632.5 5.5.457.414.791.914 1 1.5 3.959.827 7.959 1.327 12 1.5a182.47 182.47 0 0 0-19 1.5l7.5 2 13.5-2c-1.394-1.187-1.227-1.854.5-2l4.5 1.5c-1.333 1.84-1.166 2.34.5 1.5l1 3c.914-1.154 1.747-.987 2.5.5-1.601.273-3.101.773-4.5 1.5-1.24 7.075-1.74 13.742-1.5 20h20a121.86 121.86 0 0 1-22 1v-24h-23c.325-7.187-.009-14.187-1-21h-1-45v-23h-93v23h-44v-24c-31.504-.332-62.838.002-94 1-.667 0-1 .333-1 1v22h-45c-.992 7.148-1.325 14.481-1 22h-24l-2 22c-.762-1.128-1.429-2.295-2-3.5 1.11-8.355 1.11-16.189 0-23.5l-1.5-1c-.29 1.603-1.123 3.103-2.5 4.5-.948.483-1.948.649-3 .5-.14-1.624.527-2.79 2-3.5-2.179-.442-2.845-1.442-2-3-1.244-.456-2.077.044-2.5 1.5-1.688-.825-1.855-1.825-.5-3a7.25 7.25 0 0 0-2-2.5c1.172-.419 2.172-1.085 3-2-.949-.617-1.782-.451-2.5.5-2.825-1.084-2.992-2.251-.5-3.5-2.378-.974-2.044-1.641 1-2-.753-1.487-1.586-1.654-2.5-.5-.667-2.667-1.333-2.667-2 0-2.164-2.303-4.831-3.637-8-4-1.284 1.072-1.617 2.405-1 4-1.558-.845-2.558-.179-3 2-2.129-1.363-2.629-1.029-1.5 1-2.359 2.538-3.859 1.871-4.5-2l-1 1c-1.667-1-3-2.333-4-4a28.93 28.93 0 0 1-1.5 4c-1.455 1.245-2.789 1.078-4-.5l2-1c-2.344-.837-4.344-2.171-6-4 2.417.462 4.583.295 6.5-.5l5 2c1.756-1.559 1.756-3.226 0-5-1.049 1.017-2.216 1.184-3.5.5 2.667-.667 2.667-1.333 0-2l1-1c-1.333-1.637-2.666-2.471-4-2.5 2.108-.797 4.108-2.463 6-5 .249 1.082.415 2.415.5 4 1.17-3.673 2.836-7.006 5-10l3 4a14.97 14.97 0 0 1 3.5-3c1.083-.865 1.249-1.865.5-3a32.79 32.79 0 0 0-3.5-5.5c3.489-2.048 3.823-4.714 1-8 1.694-1.728 2.861-1.228 3.5 1.5.75-.626 1.584-1.126 2.5-1.5-2.331-2.2-2.331-4.2 0-6-2.094-.445-3.594.388-4.5 2.5-.5-1.833-1.667-3-3.5-3.5.951-.718 1.117-1.551.5-2.5-3.85 3.703-4.35 3.036-1.5-2-4.522-1.814-5.522-.981-3 2.5-.483 3.462-1.65 3.962-3.5 1.5h-5a7.25 7.25 0 0 0-2.5-2 20.48 20.48 0 0 0-3 5.5c.948.483 1.948.649 3 .5 1.285 2.355 1.285 4.188 0 5.5-1.079 2.043-2.746 3.376-5 4 1.259.982 2.592 1.315 4 1 1-1.667 2.333-3 4-4-1.052-1.716-.386-2.716 2-3l-3-1c.924-.85.924-1.85 0-3l1-1.5c.177 2.578 1.343 2.578 3.5 0l1.5 1.5c-.947 2.478-.947 4.812 0 7 .876 1.586 1.876 3.086 3 4.5.586-.209 1.086-.543 1.5-1a22.98 22.98 0 0 1 2 5c.654-1.196 1.154-1.196 1.5 0-2.491 1.041-2.491 1.874 0 2.5l-1.5 1.5a27.27 27.27 0 0 0-7.5-5.5c1.771-.535 2.104-1.369 1-2.5-3.013 1.895-6.013 2.228-9 1l-1 1a6.8 6.8 0 0 0 3 1.5c-2.301 2.003-2.301 3.837 0 5.5-.209.586-.543 1.086-1 1.5 1.574.699 2.907.365 4-1l-2-1c-.119-1.281.381-2.448 1.5-3.5l3.5 3.5c-.837 1.011-1.17 2.178-1 3.5-4.645-.831-5.645.336-3 3.5-1.496.507-2.663.007-3.5-1.5-1.281-.119-2.448.381-3.5 1.5 1.574.336 2.908 1.169 4 2.5-.762.411-1.762.577-3 .5 1.625.853 1.958 1.853 1 3-1.635.54-2.968.04-4-1.5-1.342 1.402-2.176 1.069-2.5-1-3.069 2.013-4.735 4.68-5 8 .556-2.095 1.056-2.262 1.5-.5a3.43 3.43 0 0 1-1.5 2.5c-2.373-2.344-4.54-4.178-6.5-5.5.949-.617 1.782-.451 2.5.5 3.333-1.333 3.333-2.667 0-4l-3 1c.035 3.745-.965 4.412-3 2-.617.949-.451 1.782.5 2.5-.949.617-1.782.451-2.5-.5-.667 2.667-1.333 2.667-2 0-2.148 1.477-3.482 3.477-4 6 .048-3.068-1.119-5.402-3.5-7-.586.209-1.086.543-1.5 1-1.679-3.199-3.679-3.533-6-1-1.299-.466-2.799-.466-4.5 0 .913-5.529 3.246-6.529 7-3v-3c1.195 1.797 2.862 2.797 5 3a8.43 8.43 0 0 1 .5-4c1.087 2.432 1.587 2.098 1.5-1-3.098.087-3.432-.413-1-1.5l-4-1 1-1c-2.156-1.694-1.989-3.527.5-5.5.617.949.451 1.782-.5 2.5.949.617 1.782.451 2.5-.5.51 2.505 2.01 4.005 4.5 4.5-1.711 1.133-2.211 2.633-1.5 4.5 1.512-2.457 2.846-2.457 4 0 3.153-3.652 6.153-3.319 9 1 .617-.949.451-1.782-.5-2.5 2.246-1.978 4.579-2.978 7-3a28.93 28.93 0 0 1-4-1.5c-3.415 1.653-6.415 1.153-9-1.5l3-1c-1.196-.654-1.196-1.154 0-1.5l4 3c.925-1.141 1.759-1.141 2.5 0 2.173-2.777 2.673-2.61 1.5.5 1.608.658 2.775.158 3.5-1.5.308.808.808 1.475 1.5 2 1.09-.891 1.09-1.891 0-3 .774-1.211 1.607-1.211 2.5 0 .492-1.049.326-2.049-.5-3a6.8 6.8 0 0 1 3-1.5l-1-1c2.492-1.249 2.325-2.416-.5-3.5-1.204.971-1.704 1.971-1.5 3-1.568-1.7-3.401-3.034-5.5-4-1.488 2.32-3.321 2.487-5.5.5 2.783-1.365 4.783-3.532 6-6.5-1.198-.44-2.365-.773-3.5-1-.492 1.049-.326 2.049.5 3-1.128.762-2.295 1.429-3.5 2l-2-4c-1.675 2.091-2.175 4.258-1.5 6.5-.876 1.585-2.209 2.585-4 3 .78 1.073.613 2.24-.5 3.5-1.301-1.865-1.635-3.865-1-6 1.613 1.122 2.78.622 3.5-1.5-1.26-1.113-2.427-1.28-3.5-.5a4.59 4.59 0 0 0-2.5-2.5l1-1c-1.682-2.608-2.348-5.275-2-8 1.934-2.271 1.934-4.271 0-6 2.215-.17 4.215-.837 6-2-1.049-.492-2.049-.326-3 .5.391-1.391-.442-2.391-2.5-3-1.582 1.46-2.915 3.127-4 5-1.889-2.219-4.056-3.053-6.5-2.5.551-1.398.884-2.732 1-4-2.223-.652-3.39-2.152-3.5-4.5-.419 1.172-1.085 2.172-2 3-.667-1.333-1.333-1.333-2 0 .148-1.325-.018-2.492-.5-3.5 4.676-2.154 5.676-5.32 3-9.5.209-.586.543-1.086 1-1.5-1.159-1.827-2.492-3.493-4-5 2.436-.436 4.436.397 6 2.5-.246 1.273-.246 2.44 0 3.5a10.76 10.76 0 0 0 3 2.5c.925-1.141 1.759-1.141 2.5 0 .465-1.431 1.299-2.597 2.5-3.5-.857-.689-1.523-1.522-2-2.5.025-2.13.525-4.13 1.5-6 1.294 1.354 1.46 2.688.5 4l1.5 1c1.15-.924 2.15-.924 3 0 1.698-1.766 3.031-3.766 4-6 1.455 3.329 3.621 4.162 6.5 2.5-.753-1.487-1.586-1.654-2.5-.5-2.359-2.624-2.025-3.291 1-2 1.375-2.477 3.209-3.311 5.5-2.5-1.134-1.016-.801-1.683 1-2-1.124-.249-2.124-.749-3-1.5.346-1.196.846-1.196 1.5 0 1.925-3.668 3.592-3.668 5 0 .865-2.388.032-3.888-2.5-4.5 1.32-2.215.653-3.715-2-4.5-.886.825-1.219 1.825-1 3a4.93 4.93 0 0 0-3 .5c.714 1.343.38 2.676-1 4 2.429.451 2.596 1.284.5 2.5-1.674-.565-3.507-.732-5.5-.5a64.47 64.47 0 0 1 4-6.5c-.222-1.555-.889-2.889-2-4 .209-.586.543-1.086 1-1.5-1.277-.127-2.443.373-3.5 1.5-2.147-1.096-2.647-2.596-1.5-4.5-2.325-2.065-4.658-2.398-7-1 2.667.667 2.667 1.333 0 2l1 1c-1.669.122-3.335-.212-5-1 1.658-.725 2.158-1.892 1.5-3.5-1.557.705-2.723.038-3.5-2 1.151-1.231 2.317-1.231 3.5 0 .974-2.378 1.641-2.044 2 1 1.857-3.479.857-4.479-3-3-1.585-.876-2.585-2.209-3-4a7.29 7.29 0 0 1-2 3c1.101-2.292.268-3.792-2.5-4.5 2.528-2.075 2.361-2.908-.5-2.5a7.29 7.29 0 0 1-2-3c-.574 1.992-1.741 3.492-3.5 4.5l1 1c-1.244.456-2.077-.044-2.5-1.5-1.281-.119-2.448.381-3.5 1.5l5.5 2.5c1.544-2.764 2.711-2.597 3.5.5-1.051 1.385-2.384 2.385-4 3l3 5c-1.378 1.713-3.045 3.047-5 4 .916.374 1.75.874 2.5 1.5 1.245.038 2.578-.295 4-1 2.001 1.223 2.835 2.723 2.5 4.5l-3 1.5c-1.369-1.624-3.036-2.124-5-1.5-2.61 3.239-5.61 5.072-9 5.5 2.797-1.721 5.131-3.887 7-6.5l-1-1 3-1c-2.329-.51-4.329.156-6 2 .758 1.364.258 2.531-1.5 3.5a6.8 6.8 0 0 0-1.5-3c-1.529.784-3.196 1.784-5 3 1.105 1.392 2.439 2.559 4 3.5-1.215 2.096-2.049 1.929-2.5-.5l-1 3c-.654-1.196-1.154-1.196-1.5 0 .813 1.314 1.813 2.481 3 3.5-.457.414-.791.914-1 1.5l4 3c-1.141.925-1.141 1.759 0 2.5-.753 1.487-1.586 1.654-2.5.5-1.746 3.339-.58 5.505 3.5 6.5-1.735.651-3.402.485-5-.5a25.86 25.86 0 0 1-3 5c.44-1.453-.226-2.619-2-3.5 1.243-1.154 2.243-2.488 3-4-.949-.617-1.782-.451-2.5.5-.879-2.396-1.546-4.729-2-7-1.016 1.134-1.683.801-2-1a28.04 28.04 0 0 1-1.5 5h3c-1.333 1-1.333 2 0 3-.401 1.934-1.401 3.434-3 4.5 1.052 1.119 2.219 1.619 3.5 1.5.617.949.451 1.782-.5 2.5 1.601.273 3.101.773 4.5 1.5 1.016-1.134 1.683-.801 2 1l1-1c-.43 1.627-.596 3.127-.5 4.5 2.5.833 2.667 2 .5 3.5-1.252-1.501-2.252-3.168-3-5l-3-1c-.456 1.244.044 2.077 1.5 2.5-1.201.903-2.035 2.069-2.5 3.5l-9-9c-1.399.727-2.899 1.227-4.5 1.5 1.315 1.395.981 2.395-1 3l6 2c1.101 2.292.268 3.792-2.5 4.5-.311-1.242.189-2.242 1.5-3-2.657-.759-5.323-1.426-8-2a4.85 4.85 0 0 0-1 4c1.644.214 3.144-.12 4.5-1 2 1.333 2 2.667 0 4-2.157-2.578-3.323-2.578-3.5 0a39.76 39.76 0 0 0-7-3.5c-1.333-.667-1.333-1.333 0-2-2.185-1.821-4.185-1.488-6 1 1.26 1.113 2.427 1.28 3.5.5 1.044 1.123 1.71 2.456 2 4 .667-2.667 1.333-2.667 2 0 .914-1.154 1.747-.987 2.5.5l-2 3c2.269 1.739 4.602 4.239 7 7.5-1.211 1.22-1.211 2.387 0 3.5-3.962 3.691-4.629 3.357-2-1-1.215-2.096-2.049-1.929-2.5.5-.308-.808-.808-1.475-1.5-2-3.608.951-3.608.118 0-2.5-1.431-.465-2.597-1.299-3.5-2.5l-1 2c-.667-1.333-1.333-1.333-2 0-.309 1.266-.809 2.433-1.5 3.5 1.244.456 2.077-.044 2.5-1.5 1.998 2.83 3.165 5.664 3.5 8.5-1.956-.222-3.79-1.055-5.5-2.5-.273 1.829-1.107 3.329-2.5 4.5 2.244 2.349 3.411 1.849 3.5-1.5l3.5 3c1.403.14 2.903.14 4.5 0 .783 1.933.283 3.433-1.5 4.5 1.425 1.362 2.258 2.862 2.5 4.5 1.335-2.105 3.002-2.771 5-2 3.097-.789 3.264-1.956.5-3.5.948-.483 1.948-.649 3-.5-.241 3.499.592 3.832 2.5 1-.077 1.238.089 2.238.5 3 2.991-2.409 5.158-2.076 6.5 1 1.364-.758 2.531-.258 3.5 1.5-1.333 1-1.333 2 0 3-1.708 1.062-2.374 2.229-2 3.5-2.528-1.017-2.528-2.184 0-3.5-.691-1.067-1.191-2.234-1.5-3.5-1.079 1.894-2.413 2.227-4 1-.749 1.135-.583 2.135.5 3 1.187-1.394 1.854-1.227 2 .5-.405.945-1.072 1.612-2 2 .808.308 1.475.808 2 1.5-.346 1.196-.846 1.196-1.5 0a36.08 36.08 0 0 1-3.5 4.5 14.97 14.97 0 0 1 3 3.5c-1.925.337-3.425 1.67-4.5 4-.718-.951-1.551-1.117-2.5-.5 1.051 1.385 2.384 2.385 4 3-.444 1.533-.777 3.033-1 4.5 1.385 1.051 2.385 2.384 3 4-.346 1.196-.846 1.196-1.5 0-.617.949-.451 1.782.5 2.5l-2.5 2.5c-2.543-1.376-2.709-2.543-.5-3.5-1.333-.667-1.333-1.333 0-2-2.641.127-4.308 1.627-5 4.5 1.11 1.996.776 3.829-1 5.5l4 1c-1.833.5-3 1.667-3.5 3.5l-1-2c-1.008.482-2.175.648-3.5.5a11.53 11.53 0 0 1 3.5 4.5l1-2c2.19 4.306 1.356 5.306-2.5 3-1 1.333-2 1.333-3 0 .204 1.029-.296 2.029-1.5 3-.336-1.574-1.169-2.908-2.5-4 .204 1.029-.296 2.029-1.5 3l-1-6-1 3c-1.016-1.134-1.683-.801-2 1-1.073-.78-2.24-.613-3.5.5 1.104 1.131.771 1.965-1 2.5.391-1.218-.276-2.052-2-2.5a16.66 16.66 0 0 1 4-4 37.55 37.55 0 0 0-5.5-8.5c-.71 1.473-1.876 2.14-3.5 2-.17 1.322.163 2.489 1 3.5-1 .667-2 .667-3 0 1.196-.654 1.196-1.154 0-1.5-1.22.387-1.887 1.22-2 2.5l4 4c-1.467 1.098-2.301 2.598-2.5 4.5-.667-1.333-1.333-1.333-2 0a22.98 22.98 0 0 0-2-5c-1.584 5.002-3.918 5.669-7 2l-3 3c-.09-2.268 1.077-3.768 3.5-4.5-1-2.091-.333-3.757 2-5l-2-1c.876-1.585 2.209-2.585 4-3-1.897-1.11-3.73-1.276-5.5-.5a10.26 10.26 0 0 0-1.5-4c-1.303 1.218-2.303.885-3-1a73.96 73.96 0 0 1-1 6.5c.948.483 1.948.649 3 .5-.149-1.052.017-2.052.5-3 .635 1.466 1.469 2.8 2.5 4a28.93 28.93 0 0 0-1.5 4l-3-3c-2.377 1.057-4.877 1.724-7.5 2l-2-.5c1.491-2.022 1.158-3.688-1-5 1.5-.833 2.667-2 3.5-3.5 1.113 1.26 1.28 2.427.5 3.5 1.135.749 2.135.583 3-.5.245-1.516.245-3.183 0-5-1.735.557-3.402.89-5 1l-3-4.5c.594-1.982 1.76-3.816 3.5-5.5 1.604 1.149 3.27 1.149 5 0 1.098-.884 1.598-1.884 1.5-3 2.048.583 3.881.583 5.5 0l1-2c.869 3.263 2.203 3.596 4 1 1.731 5.113 3.064 5.113 4 0 2.481 3.209 1.648 5.042-2.5 5.5a10.26 10.26 0 0 1 4 1.5c-1.812-.074-3.812.259-6 1 2.798 2.066 2.465 3.566-1 4.5l4 1c-1.905.826-2.239 1.993-1 3.5 1.786.457 3.786.457 6 0-1.861-1.028-3.195-2.528-4-4.5 1.561-.318 2.728-1.151 3.5-2.5l5 3c.779-2.406-.054-4.073-2.5-5 1.029.204 2.029-.296 3-1.5-.093-1.813-.427-3.646-1-5.5.029-1.529.696-2.696 2-3.5a4.59 4.59 0 0 1-2.5-2.5c-.718.951-1.551 1.117-2.5.5 1.333-.667 1.333-1.333 0-2 1.215-2.096 2.049-1.929 2.5.5 2.339-1.086 4.839-1.92 7.5-2.5-2.4-.186-4.734-.686-7-1.5 1.315-1.395.981-2.395-1-3-1.93 1.052-3.43 2.386-4.5 4a11.28 11.28 0 0 0-3.5-6c2.345-3.752 3.679-3.085 4 2 .42-1.826.42-3.826 0-6-3.949-.193-3.949-.693 0-1.5l-5-3c1.201-.903 2.035-2.069 2.5-3.5.915.828 1.581 1.828 2 3 1.852-1.73 1.686-2.896-.5-3.5 1.333-1.84 1.166-2.34-.5-1.5l-1-4-1 1c-.798-1.759-.631-3.426.5-5 2.528.998 2.528 1.831 0 2.5 2.609-.528 5.275-.195 8 1l-4 2c2.189.677 2.522 1.844 1 3.5.308.808.808 1.475 1.5 2 1.353-1.185 2.52-2.519 3.5-4 1.084 1.165 1.917 2.498 2.5 4 .308-.808.808-1.475 1.5-2 .964 2.583 2.298 3.083 4 1.5l-4-4c4.236-3.206 5.069-6.706 2.5-10.5l-1 2c-.893-1.211-1.726-1.211-2.5 0a28.93 28.93 0 0 0-1.5 4 16.66 16.66 0 0 0-4-4c-3.638 1.422-5.804.089-6.5-4a6.8 6.8 0 0 0-3-1.5l2-1c-1.333-.667-1.333-1.333 0-2-1.284-.684-2.451-.517-3.5.5l-1-5c-1.127 3.407-2.46 3.074-4-1-.865 1.725-1.531 3.392-2 5a10.26 10.26 0 0 0-1.5-4c-.411.762-.577 1.762-.5 3-4.866-3.019-4.532-5.019 1-6l1 1c2.078-3.924 1.411-4.591-2-2l-6-6c-.617.949-.451 1.782.5 2.5-1.798 1.505-3.632 1.672-5.5.5l-1 4a9.47 9.47 0 0 0-5-4c-.866 2.396-.366 3.063 1.5 2 1.247 1.506 1.247 3.006 0 4.5l2.5 2.5c1.101-2.436 2.601-4.603 4.5-6.5 1.244-.456 2.077.044 2.5 1.5l1-1c.651 1.735.485 3.402-.5 5a7.25 7.25 0 0 0 2 2.5c-2.964.84-3.297 1.84-1 3-.727 1.399-1.227 2.899-1.5 4.5a8.43 8.43 0 0 1-.5-4c-3.556-.225-3.89.608-1 2.5l-.5 1.5c-.423-1.456-1.256-1.956-2.5-1.5 1.052 1.716.386 2.716-2 3l2 1c-3.387 1.464-3.387 3.464 0 6l-5 7c2.006.849 2.672 2.015 2 3.5-2.013-2.368-4.347-4.368-7-6 1.082-.249 2.415-.415 4-.5l-1-1c1.211-1.844 2.544-2.678 4-2.5l-2-3c1.211-1.22 1.211-2.387 0-3.5 2.391-.691 2.391-1.691 0-3 3.745.035 4.412-.965 2-3 1.449-1.117 3.116-1.784 5-2-1.902-.199-3.402-1.033-4.5-2.5-3.802 5.039-6.802 10.039-9 15l-1-2c-1.518 1.848-3.351 3.348-5.5 4.5 1.333.667 1.333 1.333 0 2a33.27 33.27 0 0 0-8.5 3.5c-1.617-1.036-1.784-2.203-.5-3.5.76-.133 1.26.367 1.5 1.5 2.848-.933 3.014-2.433.5-4.5-.561-1.566.106-2.899 2-4l-7.5-5.5c-.414.457-.914.791-1.5 1a92.01 92.01 0 0 1-4.5-3l-2 2c-.711-1.867-.211-3.367 1.5-4.5-1.408-.315-2.741.018-4 1 1.247 1.494 1.247 2.994 0 4.5a37.15 37.15 0 0 1-4.5-2 4.45 4.45 0 0 0-1.5 2c1.082.249 2.415.415 4 .5v4c-1.41.368-2.41 1.201-3 2.5 2.777 2.858 2.443 4.024-1 3.5 1.273 2.193 1.606 4.36 1 6.5 1.256-.53 2.756-.53 4.5 0l1-2c.72 1.612.554 3.112-.5 4.5 1.585.085 2.918.251 4 .5l-6 2.5c1.425 1.362 2.258 2.862 2.5 4.5 1.183-1.231 2.349-1.231 3.5 0-1.099-.148-2.432.185-4 1-2.221-.616-2.888-1.783-2-3.5-1-.667-2-.667-3 0 1.847 2.518 2.18 5.185 1 8-2.1-.023-3.933 1.144-5.5 3.5-2.446-.805-4.779-2.472-7-5l-3 2c.193-1.687 1.193-3.021 3-4 1.049 1.017 2.216 1.184 3.5.5l-1-1c4.352-.419 4.685-1.086 1-2 1.333-.667 1.333-1.333 0-2 3.485-.493 3.985-1.993 1.5-4.5-1.337 1.265-2.837 1.765-4.5 1.5l2-2c-1.544-.29-2.877-.956-4-2l2-1a8.43 8.43 0 0 0-4-.5c.281-2.463 1.281-4.63 3-6.5-2.292-2.024-2.959-1.69-2 1-2.178.442-2.845 1.442-2 3l-4 2c.948.483 1.948.649 3 .5.732 2.637.732 5.137 0 7.5 1.432.27 2.432-.396 3-2l-1-1c1-.667 2-.667 3 0-.732 2.363-.732 4.863 0 7.5-3.2-.537-6.034-.87-8.5-1l-1 3c-1.147-.958-2.147-.625-3 1-2.734-.862-2.901-1.695-.5-2.5-.711-1.255-1.544-2.421-2.5-3.5l-1 1c-2.95-4.007-4.95-3.674-6 1 1.739-2.122 3.572-1.955 5.5.5-1.017 1.049-1.184 2.216-.5 3.5l1-2c.5 1.167 1.333 2 2.5 2.5-1.372.402-2.705.902-4 1.5-1.48-1.489-2.313-3.155-2.5-5-.317 1.801-.984 2.134-2 1-.465 1.431-1.299 2.597-2.5 3.5 4 .667 4 1.333 0 2 .691 1.067 1.191 2.234 1.5 3.5 1.11-3.779 2.61-3.946 4.5-.5-3.146.11-4.146 1.443-3 4-.525.692-1.192 1.192-2 1.5-.054-1.03-.388-2.197-1-3.5l-5.5-2.5a4.93 4.93 0 0 1-.5-3c4.68.041 5.513-1.292 2.5-4-.249 1.124-.749 2.124-1.5 3l-1-.5c.76-1.441 1.426-2.941 2-4.5-2.11.206-4.11-.627-6-2.5.949-.617 1.782-.451 2.5.5 1.204-.971 1.704-1.971 1.5-3 1.392 1.105 2.559 2.439 3.5 4l2.5-5c-4.215-1.663-6.715-4.663-7.5-9-1.365 4.94-2.532 5.273-3.5 1-.978.477-1.811 1.143-2.5 2 .617-1.595.284-2.928-1-4-1.617 1.036-1.784 2.203-.5 3.5-1.565-.277-2.898-.443-4-.5 1.141-.925 1.141-1.759 0-2.5.969-1.758 2.136-2.258 3.5-1.5a11.34 11.34 0 0 1 3.5-1.5c-1.333-.667-1.333-1.333 0-2-2.429-.451-2.596-1.285-.5-2.5 1.705 2.477 3.705 3.811 6 4 1.495-1.61 1.661-3.276.5-5 4.196-4.242 3.862-5.575-1-4-1.196-.346-1.196-.846 0-1.5-2.993-.427-3.493-1.594-1.5-3.5 3.11 1.173 3.277.673.5-1.5l2-1-3.5-2.5-1.5.5c2.492 1.249 2.325 2.416-.5 3.5-1.487-.753-1.654-1.586-.5-2.5a7.29 7.29 0 0 0-3-2l4-3c-.948-.483-1.948-.649-3-.5v-3c-3.197-.314-5.363-1.98-6.5-5l-1 2c-1.133-1.711-2.633-2.211-4.5-1.5-1.423 3.092-3.756 5.092-7 6 2.491.626 2.491 1.459 0 2.5 1.429 1.831 1.929 3.831 1.5 6-1.646-4.405-4.48-5.905-8.5-4.5l1 1c-1.146.645-2.146 1.478-3 2.5l-1-2c-1.312.96-2.646.794-4-.5l3-4c-1.638-.242-3.138-1.075-4.5-2.5-.492 1.049-.326 2.049.5 3-2.232 2.855-2.232 5.855 0 9-1.893-.555-3.56.112-5 2V-.5z" fill="#006ae5"/><path d="M396.5 136.5c31.162-.998 62.496-1.332 94-1v24h-1v-23h-93z" fill="#257fea"/><path d="M395.5 137.5c0-.667.333-1 1-1h93v23h-1v-22h-93z" fill="#082c6b"/><path d="m627.5 159.5h-1v-22h-91v22h-1v-23h93v23z" fill="#062766"/><path d="M395.5 137.5h93v22c-.991-6.813-1.325-13.813-1-21a1936.86 1936.86 0 0 0-88 1c115.99 1.5 115.99 2.666 0 3.5l83 .5c-.104 22.442.896 22.442 3 0 .995 5.628 1.329 11.294 1 17 16.509.33 32.842-.004 49-1v-22h91v22c14.824.996 29.824 1.329 45 1-.166 7.008 0 14.008.5 21a242.43 242.43 0 0 0 .5-22h1c-.325 7.519.008 14.852 1 22 6.813.991 13.813 1.325 21 1v24h24v21h23v23h23v45c7.148.992 14.481 1.325 22 1-.331 30.505.002 60.838 1 91 6.813.991 13.813 1.325 21 1v2a32.46 32.46 0 0 0-8 .5c1.405 1.269 3.071 1.769 5 1.5.333 34.34 0 68.673-1 103-1.3-33.587-1.3-66.92 0-100-.825-.886-1.825-1.219-3-1v101h-10c-1.026-11.767-2.026-11.767-3 0v-38c-8.184-.326-16.184.008-24 1v67c-8.184-.326-16.184.008-24 1-.831 14.828-1.331 29.828-1.5 45a98.26 98.26 0 0 0-19.5-1c.332-37.837-.002-75.504-1-113h-23v-23h-23c-8.086.301-16.086-.033-24-1v-22h-68v-23h23v-47c-7.148-.992-14.481-1.325-22-1 .331-30.505-.002-60.838-1-91-7.482-.992-15.148-1.325-23-1 .325-7.519-.008-14.852-1-22-.111-.617-.444-1.117-1-1.5a1411.06 1411.06 0 0 0-92 .5c-.965 7.276-1.299 14.609-1 22-14.67-.167-29.337 0-44 .5 15.33.5 30.663.667 46 .5l-47 2v45h-23v70h-22c-.992 7.482-1.325 15.148-1 23h70v23h-1-69v23h-23v23h-23c-.992 7.148-1.325 14.481-1 22-7.519-.325-14.852.008-22 1v1 68h-21v22l-2-45h-23c.331-22.839-.003-45.506-1-68h-22v45h-23v-70h23v-22h-23v-24h23c.998-30.162 1.331-60.495 1-91 7.519.325 14.852-.008 22-1v-44h24l-23 2a96.54 96.54 0 0 0 24 .5l1.5-1.5a267.06 267.06 0 0 1 1.5-23c6.273.96 12.607 1.293 19 1v-23c7.008.166 14.008 0 21-.5a242.43 242.43 0 0 0-22-.5c7.148-.992 14.481-1.325 22-1v-24h24c-.325-7.519.008-14.852 1-22a242.43 242.43 0 0 0 .5 22c.5-6.992.666-13.992.5-21 15.412.332 30.079-.001 44-1v-22z" fill="#291724"/><path d="M540.5 138.5h83a180.87 180.87 0 0 1-.5 19 98.43 98.43 0 0 1-.5-14h-80c.328 5.375-.005 10.708-1 16-.995-5.628-1.329-11.294-1-17a1681.8 1681.8 0 0 0 82-1c-27.679-.338-55.012-1.338-82-3z" fill="#31151a"/><path d="M488.5 159.5h1 1 44 1c-16.158.996-32.491 1.33-49 1 .329-5.706-.005-11.372-1-17-2.104 22.442-3.104 22.442-3 0-27.669.167-55.335 0-83-.5 115.99-.834 115.99-2 0-3.5a1936.86 1936.86 0 0 1 88-1c-.325 7.187.009 14.187 1 21z" fill="#321419"/><path d="M350.5 159.5h45c-13.921.999-28.588 1.332-44 1 .166 7.008 0 14.008-.5 21a242.43 242.43 0 0 1-.5-22z" fill="#300703"/><path d="M626.5 159.5h1 45a242.43 242.43 0 0 1-.5 22c-.5-6.992-.666-13.992-.5-21-15.176.329-30.176-.004-45-1z" fill="#300601"/><path d="M674.5 181.5h22v24c7.852-.325 15.518.008 23 1h-24v-24c-7.187.325-14.187-.009-21-1z" fill="#080529"/><path d="M796.5-.5h227v246l-2-2-2.5 3c-.49-1.049-.33-2.049.5-3a20.45 20.45 0 0 0-5.5-3c-1.7 3.27-4.2 4.437-7.5 3.5 5.49 4.188 4.82 5.688-2 4.5-.74-1.408-1.58-2.741-2.5-4-.67 1.333-1.33 1.333-2 0-.617.949-.451 1.782.5 2.5-3.685.914-3.352 1.581 1 2l-2 2c.78 2.628 1.78 5.294 3 8 .17 3.207-.16 6.207-1 9a3.43 3.43 0 0 0 1.5 2.5c.94-3.273 3.11-5.106 6.5-5.5.08-3.001-1.09-3.167-3.5-.5-.41-.457-.91-.791-1.5-1-.89-2.784-.89-5.284 0-7.5-2.92-2.071-2.58-3.405 1-4l-2-1c3.27-1.024 4.94-.191 5 2.5 1.35-1.684 3.02-2.184 5-1.5 1.14.741 1.14 1.575 0 2.5a51.78 51.78 0 0 0 4 5.5l-2.5 4.5c-1.02-1.134-1.68-.801-2 1l-1-2-2 4c-.65-1.196-1.15-1.196-1.5 0 1.59 1.587 3.25 2.42 5 2.5-1.56.318-2.73 1.151-3.5 2.5-1.78-2.776-2.78-2.443-3 1a7.35 7.35 0 0 0-2-3 20.45 20.45 0 0 0-3.5 7c-2.774-5.39-3.441-5.056-2 1-.056 1.237-.556 2.237-1.5 3-1.217-2.02-1.383-4.02-.5-6-1.697-.864-2.863-2.197-3.5-4l-4 3c-.637-1.803-1.803-3.136-3.5-4-.716 1.396-.883 3.062-.5 5-.903-1.201-2.069-2.035-3.5-2.5l1-1c-1.333-.667-2.667-.667-4 0 1.388.889 1.222 1.389-.5 1.5l-1.5-.5c1.333-.667 1.333-1.333 0-2-2.477 1.131-4.643.631-6.5-1.5-.507 1.496-.007 2.663 1.5 3.5-.949.617-1.782.451-2.5-.5-.692.525-1.192 1.192-1.5 2 2.15 1.649 4.15 3.482 6 5.5-2.361.197-4.028 1.364-5 3.5l-1-2c-1.333 2-1.333 4 0 6 1.196-.346 1.196-.846 0-1.5l9-3c-4.579.086-4.746-.748-.5-2.5 1.43 2.17 2.93 2.336 4.5.5-1.333-.667-1.333-1.333 0-2-.949-.617-1.782-.451-2.5.5-3.022-1.143-3.188-2.477-.5-4 1.342 1.402 2.176 1.069 2.5-1 .667 1.333 1.333 1.333 2 0 .374.916.874 1.75 1.5 2.5a8.01 8.01 0 0 0-2 5.5h3c.169 4.541-.498 4.874-2 1 .094 1.472-.906 2.638-3 3.5.949.617 1.782.451 2.5-.5 1.008 1.759 2.508 2.926 4.5 3.5-2.42-.988-4.753-.655-7 1 1.608.469 3.275 1.135 5 2a62.42 62.42 0 0 1-8 7.5c-.808-.308-1.475-.808-2-1.5 3.867-1.987 3.867-2.487 0-1.5-1.414-1.124-2.914-2.124-4.5-3-1.934 1.919-1.767 3.419.5 4.5-4 .667-4 1.333 0 2-3.168.582-3.501 1.582-1 3-.951.718-1.117 1.551-.5 2.5 2.015-1.342 4.182-1.842 6.5-1.5-3.321 1.949-3.654 4.282-1 7a3.43 3.43 0 0 1-1.5 2.5c-2.609-1.608-3.942-3.941-4-7a7.69 7.69 0 0 1-4 3c-1.676-.931-3.509-1.598-5.5-2 1.267-1.871 1.267-3.704 0-5.5 2.234-3.146 4.901-5.479 8-7-1.933-.783-3.433-.283-4.5 1.5-1.395-1.315-2.395-.981-3 1-.804-3.795.53-5.129 4-4 .5-1.833 1.667-3 3.5-3.5-2.699-.966-4.533-2.8-5.5-5.5-2.545 1.359-5.045 2.859-7.5 4.5-1.368 2.939-2.868 5.106-4.5 6.5-.667-2.667-1.333-2.667-2 0-1.316-2.528-2.483-2.528-3.5 0a11.38 11.38 0 0 1-2-2.5c2.489-2.323 4.822-4.823 7-7.5l-2-6c1.09-1.503 2.257-1.836 3.5-1a14.59 14.59 0 0 1 4-6c.667 1.333 1.333 1.333 2 0 .547 2.64 2.213 4.974 5 7 .374-2.367 1.541-4.2 3.5-5.5-.982-2.009-2.315-2.509-4-1.5-.692-.525-1.192-1.192-1.5-2-1.628.597-3.295.263-5-1-1.572 2.089-3.405 2.089-5.5 0-.586.209-1.086.543-1.5 1-1.117-1.449-1.784-3.116-2-5-1 1.667-2.333 3-4 4-.492 1.049-.326 2.049.5 3a3 3 0 0 1-2 2c-1.211-.774-1.211-1.607 0-2.5-.753-1.487-1.586-1.654-2.5-.5-.615-1.616-1.615-2.949-3-4 .227 2.074.061 4.074-.5 6 .59 1.299 1.59 2.132 3 2.5-2.757.584-5.423.25-8-1 1.456-.423 1.956-1.256 1.5-2.5-3.107.849-6.107 1.183-9 1 .077-1.238-.089-2.238-.5-3-1.771.535-2.104 1.369-1 2.5-.691 1.067-1.191 2.234-1.5 3.5-2.952-1.41-6.119-2.076-9.5-2 .192 4.721-2.474 7.388-8 8l3 2.5c-1.921 1.241-2.254 2.741-1 4.5 1.307-1.316 2.807-2.316 4.5-3 .691 2.391 1.691 2.391 3 0 1.779.979 3.445.646 5-1 2.065 1.128 2.732 2.794 2 5-.149-2.779-.983-3.279-2.5-1.5.98 3.404.98 6.571 0 9.5-1.506 1.247-3.006 1.247-4.5 0-.667 1-.667 2 0 3 .654-1.196 1.154-1.196 1.5 0-.825.886-1.825 1.219-3 1 .149-1.052-.017-2.052-.5-3-2.186.522-4.519.522-7 0-.388.928-1.055 1.595-2 2-1.93-1.671-3.93-2.337-6-2l-1 2c.531-4.248-1.303-6.582-5.5-7l2-1c-1.031-1.2-1.865-2.534-2.5-4-1.422.094-2.922.428-4.5 1 .346 1.196.846 1.196 1.5 0 .687 3.471-.313 3.805-3 1a8.43 8.43 0 0 0-.5 4 8.43 8.43 0 0 1 4 .5c-1.801.317-2.134.984-1 2-.626.75-1.126 1.584-1.5 2.5l-2-4c-1.333 1.333-2.667 1.333-4 0a4.59 4.59 0 0 1-2.5 2.5c1.211.893 1.211 1.726 0 2.5-2.919-1.226-4.752-2.892-5.5-5-.041 3.948-1.874 6.448-5.5 7.5l2 1c-1.619 1.923-3.452 2.423-5.5 1.5-2.096 1.215-1.929 2.049.5 2.5l-1.5.5c-2.117-1.532-3.784-3.532-5-6-.29 1.544-.956 2.877-2 4-.617-.949-.451-1.782.5-2.5-1.201-.903-2.035-2.069-2.5-3.5-1.188 1.063-1.688 2.397-1.5 4-1.643.02-2.976-.647-4-2l-1 2c-.927-2.446-2.594-3.279-5-2.5.84 1.666.34 1.833-1.5.5-.317 1.801-.984 2.134-2 1-1.779 1.517-1.279 2.351 1.5 2.5-4.06 4.018-3.06 6.352 3 7-3.415 2.072-3.415 3.239 0 3.5-.756 2.113-.923 4.113-.5 6-4.318-3.895-4.651-3.228-1 2 3.031-.726 2.864-.059-.5 2-.586-.209-1.086-.543-1.5-1-.794 4.037-3.294 6.204-7.5 6.5l5 3c-1.154.914-.987 1.747.5 2.5.359-3.044 1.026-3.378 2-1 2.602-.399 5.102-.399 7.5 0l3 1.5c-1.658.725-2.158 1.892-1.5 3.5 1.77-.776 3.603-.61 5.5.5-2.386.284-3.052 1.284-2 3l-3 2.5c1.782.076 3.449.409 5 1-1.022.854-1.855 1.854-2.5 3l-1-1-3 5c-.718-.951-1.551-1.117-2.5-.5.691 1.067 1.191 2.234 1.5 3.5 1.659-2.997 4.326-5.664 8-8 .75.626 1.584 1.126 2.5 1.5-1.456.423-1.956 1.256-1.5 2.5 1.959-1.248 3.459-2.915 4.5-5 1.211.774 1.211 1.607 0 2.5.949.617 1.782.451 2.5-.5l1 3c.305-2.057.305-4.057 0-6 .75.626 1.584 1.126 2.5 1.5 1.284 3.359 1.284 6.692 0 10 2 .667 3.333 2 4 4-2.045.51-3.879 1.343-5.5 2.5l-1.5-1.5c1.449-1.117 3.116-1.784 5-2-1.052-1.119-2.219-1.619-3.5-1.5-1.428-5.906-4.928-7.406-10.5-4.5l-2 3c-.561 1.566.106 2.899 2 4-1.502.583-2.835 1.416-4 2.5.209.586.543 1.086 1 1.5a75.95 75.95 0 0 1-7.5 3.5c-.974-2.378-1.641-2.044-2 1-2.481.649-2.814 1.649-1 3l4.5-3a20.79 20.79 0 0 0 1 2.5l-2 1a15.39 15.39 0 0 0 6 3c-2.668.567-5.334 1.067-8 1.5-.102 3.246-1.102 6.08-3 8.5l1 2.5a28.93 28.93 0 0 1 4-1.5l-3-1a33.9 33.9 0 0 1 6-3.5c1.303 1.218 2.303.885 3-1 1.938 2.579 3.771 2.579 5.5 0 .309 1.266.809 2.433 1.5 3.5-.949.617-1.782.451-2.5-.5-.012 1.84-.846 3.673-2.5 5.5l2 3c-2.291-.811-4.125.023-5.5 2.5-2.238-2.104-3.238-4.438-3-7-.741 1.141-1.575 1.141-2.5 0l-.5 5-3-3c-.639 2.728-1.806 3.228-3.5 1.5l2-1c-.587-2.562-.921-5.228-1-8 1.801-.317 2.134-.984 1-2 1.238.077 2.238-.089 3-.5-1.663-3.581-3.829-3.914-6.5-1-.889-1.388-1.389-1.222-1.5.5.405.945 1.072 1.612 2 2l-2 1c3.247 2.103 3.58 4.103 1 6 1.054 1.388 1.22 2.888.5 4.5-3.769-4.207-6.102-3.873-7 1-1.418-1.863-3.251-2.363-5.5-1.5 1.072 1.284 2.405 1.617 4 1-.698.971-.698 2.137 0 3.5-.318 1.147-.984 1.981-2 2.5a11.53 11.53 0 0 1 4.5 3.5c1.652-.717 3.152-1.05 4.5-1a14.72 14.72 0 0 0-5-1.5c-.951-.718-1.117-1.551-.5-2.5 2.403 2.865 3.236 2.699 2.5-.5a4.59 4.59 0 0 0 2.5-2.5c.865 1.725 1.531 3.392 2 5 1.085-2.157 2.251-2.324 3.5-.5a7.25 7.25 0 0 0-2 2.5c1.586 1.673 2.253 3.673 2 6-3.098-.087-3.432.413-1 1.5-1.502.583-2.835 1.416-4 2.5 1.95 1.231 2.783 2.898 2.5 5-.915-.828-1.581-1.828-2-3l-1 2c-2.777-3.731-4.944-3.231-6.5 1.5 1.658.725 2.158 1.892 1.5 3.5-.725-1.658-1.892-2.158-3.5-1.5 2.783 2.527 5.783 3.694 9 3.5-1.886.906-3.72 1.906-5.5 3-1-2.667-2-2.667-3 0-.853-1.625-1.853-1.958-3-1l-1.5-3a348.76 348.76 0 0 1 1-31c-.436-2.679-.936-5.345-1.5-8a3362.57 3362.57 0 0 0 0 116l4 3c-.584-2.2-.418-4.367.5-6.5l1-.5c1.084 1.165 1.917 2.498 2.5 4 1.044-1.123 1.71-2.456 2-4l1 2c1.03-2.276 2.53-2.943 4.5-2-2.043 1.961-1.377 3.461 2 4.5-2.027 1.396-2.36 3.062-1 5-.916.374-1.75.874-2.5 1.5l-4-5c-.379 2.07.455 3.57 2.5 4.5-1.473.71-2.14 1.876-2 3.5h-3c-.149 1.052.017 2.052.5 3 .85-.924 1.85-.924 3 0 1.892-2.89 2.725-2.556 2.5 1-2.357-.163-4.69.003-7 .5 2.17 3.025 4.504 3.192 7 .5l3 2c-.204-1.029.296-2.029 1.5-3a8.43 8.43 0 0 1 .5 4c-2.723.852-5.39 2.019-8 3.5 1.134 1.016.801 1.683-1 2l3 1.5c-.516-1.258.15-2.258 2-3 .132 1.463.465 2.963 1 4.5l-.5 1.5c-2.071-2.916-3.405-2.582-4 1-.423-1.456-1.256-1.956-2.5-1.5 2.8 2.419 2.633 4.586-.5 6.5-2.543-1.376-2.709-2.543-.5-3.5-.667-1.333-1.667-2.333-3-3l2-1c-3.415-1.143-3.749-2.81-1-5-.691-1.067-1.191-2.234-1.5-3.5-1.648 1.217-3.481 2.05-5.5 2.5 1.786.196 3.119 1.029 4 2.5-1.258-.516-2.258.15-3 2-.586-.209-1.086-.543-1.5-1-.089 1.613.745 2.78 2.5 3.5-1.38 1.324-1.714 2.657-1 4-.833 1.5-2 2.667-3.5 3.5-2.029-2.529-3.862-5.196-5.5-8a6.8 6.8 0 0 1 3-1.5 13.31 13.31 0 0 1-6-4.5l-1 1 3 3.5c-.444 1.762-.944 1.595-1.5-.5-1.612 2.579-3.112 2.579-4.5 0l2-1c-.881-1.471-2.214-2.304-4-2.5l1-1c-1.141-1.617-1.974-3.45-2.5-5.5-1.261 2.586-1.428 5.086-.5 7.5a34.04 34.04 0 0 0-1.5 7.5l-1.5-1.5a344.46 344.46 0 0 1 0-22.5 81.88 81.88 0 0 0 18-1l-19-2 20-2a121.86 121.86 0 0 0-22-1c-.167 22.003 0 44.003.5 66l1 2c.419-4.352 1.086-4.685 2-1 .75.626 1.584 1.126 2.5 1.5-2.105 1.335-2.771 3.002-2 5l-2 1c1.054 1.388 1.22 2.888.5 4.5-.45-2.019-1.283-3.852-2.5-5.5 1.333-.667 2.333-1.667 3-3a156.42 156.42 0 0 0-25 0l-2 20.5v-22h1 22v-47-23h1 22v-116c-7.148-.992-14.481-1.325-22-1 .331-30.505-.002-60.838-1-91h-23v-45h-23v-23h-23v-21c-7.482-.992-15.148-1.325-23-1v-24h-22c-.992-7.148-1.325-14.481-1-22 .991 6.813 1.325 13.813 1 21h23v24a121.86 121.86 0 0 0 22-1c-6.388-.064-13.055-.064-20 0-.24-6.258.26-12.925 1.5-20 1.399-.727 2.899-1.227 4.5-1.5-.753-1.487-1.586-1.654-2.5-.5l-1-3c-1.666.84-1.833.34-.5-1.5l-4.5-1.5c-1.727.146-1.894.813-.5 2l-13.5 2a261.12 261.12 0 0 1-7.5-2 182.47 182.47 0 0 1 19-1.5c-4.041-.173-8.041-.673-12-1.5-.209-.586-.543-1.086-1-1.5 1.172-1.868 1.005-3.702-.5-5.5l-1 1c-.667-1.333-.667-2.667 0-4a7.75 7.75 0 0 1 5.5-.5c.608-2.184-.059-4.184-2-6l2-1c-1.833-.5-3-1.667-3.5-3.5-1.487.753-1.654 1.586-.5 2.5-1.667.667-3.333.667-5 0 2.378-.974 2.044-1.641-1-2l4-2c-2.997-.755-5.497.078-7.5 2.5l-1-3c-1.296.568-2.796.568-4.5 0-1.544.29-2.877.956-4 2-.586-.209-1.086-.543-1.5-1-1.18 1.184-2.68 1.851-4.5 2-6.18-.182-7.18-2.348-3-6.5-1.284-.684-2.451-.517-3.5.5-.907 5.962-2.407 6.295-4.5 1-1.101 1.512-.767 3.012 1 4.5 1.544.29 2.877.956 4 2 3.503.478 6.836.311 10-.5a41.71 41.71 0 0 0 13 2.5 924.22 924.22 0 0 1-43 .5c.016-6.828.183-13.495.5-20 1.098 6.013 1.765 12.013 2 18l1.5-1.5c-1.109-1.813-.442-2.646 2-2.5-.149 1.052.017 2.052.5 3 1.42-6.55 1.92-13.216 1.5-20-3.599.238-3.933-.762-1-3 3.09.853 5.59 2.52 7.5 5l1-4c.667 2.667 1.333 2.667 2 0 .718.951 1.551 1.117 2.5.5 1.333-.667 1.333-1.333 0-2l2-1c-1.75-1.754-2.417-3.921-2-6.5a8.43 8.43 0 0 1 4 .5c.996 1.013 1.996 1.846 3 2.5.942-.108 1.775-.441 2.5-1a10.26 10.26 0 0 1 1.5-4c2.029 1.129 2.363.629 1-1.5l5 1c-2.048-1.681-4.215-3.181-6.5-4.5-1.44 1.546-3.273 2.379-5.5 2.5-1.291 2.878-2.791 2.712-4.5-.5-1.073.78-2.24.613-3.5-.5 1.561-.318 2.728-1.151 3.5-2.5.419 1.172 1.085 2.172 2 3 .833-1.5 2-2.667 3.5-3.5l-3-1a4.59 4.59 0 0 0 2.5-2.5c.308.808.808 1.475 1.5 2a40.26 40.26 0 0 1 4.5-4c.604 2.186 1.77 2.352 3.5.5-1.363-2.129-1.029-2.629 1-1.5 1.231-1.151 1.231-2.317 0-3.5a3.43 3.43 0 0 1 2.5-1.5c1.762.444 1.595.944-.5 1.5-.513 1.576.154 2.909 2 4-.145.772-.478 1.439-1 2 3.838 2.369 7.004 1.536 9.5-2.5 1.779 2.776 2.779 2.443 3-1 .107 2.631.273 5.131.5 7.5a25.47 25.47 0 0 1-9 4c.947 2.478.947 4.812 0 7-1.929.35-3.929 1.017-6 2l1 3c4 .667 4 1.333 0 2 1.897 1.11 3.73 1.276 5.5.5 2.206 4.031 2.706 3.864 1.5-.5 1.157-1.621 1.99-3.455 2.5-5.5.374.916.874 1.75 1.5 2.5-.84 1.666-.34 1.833 1.5.5 1.963 3.587 3.463 3.587 4.5 0-2.055-.687-3.721-1.854-5-3.5l.5-6.5 1 3c1.896-3.867 5.063-5.534 9.5-5 .034-2.699-.633-5.199-2-7.5 1.708-1.062 2.374-2.229 2-3.5 1.294 2.462 2.794 4.795 4.5 7 1.343-.714 2.676-.38 4 1 .359-3.044 1.026-3.378 2-1 3.462-.483 3.962-1.65 1.5-3.5l1-7c-.626-.75-1.126-1.584-1.5-2.5a10.26 10.26 0 0 1-1.5 4c-3.309-4.692-2.309-6.526 3-5.5l-1-1c1.552-2.781 3.885-4.448 7-5-2.401-.805-2.234-1.638.5-2.5.759 2.135 2.259 3.468 4.5 4 2.528-1.017 2.528-2.184 0-3.5l3.5-3.5c1.758.969 2.258 2.136 1.5 3.5 1.496.507 2.663.007 3.5-1.5l1 4 3-1c2.023 1.513 1.856 2.846-.5 4 1.211 1.22 1.211 2.387 0 3.5 1.244.456 2.077-.044 2.5-1.5l1.5 1.5c-1.702 1.718-3.535 1.885-5.5.5-.317 1.801-.984 2.134-2 1-.273 1.829-1.107 3.329-2.5 4.5l1 1c-3.591.789-7.091.622-10.5-.5a33.24 33.24 0 0 1-3.5 6c-4.988 1.46-4.655 2.793 1 4 .169-.897.502-1.897 1-3 2.074 2.578 4.74 4.078 8 4.5-1.104 1.131-.771 1.965 1 2.5.067-1.924.4-3.924 1-6 .896-1.006 1.562-1.006 2 0-.525.692-1.192 1.192-2 1.5l4 4c.039 1.245-.295 2.578-1 4 .405.945 1.072 1.612 2 2l-4 1c2.417 1.408 4.417 3.242 6 5.5-1.331 1.137-2.998 1.804-5 2a28.93 28.93 0 0 1 1.5 4c.388-.928 1.055-1.595 2-2 1.451.855 2.951 1.022 4.5.5-.655 1.487-1.655 2.653-3 3.5-.692-.525-1.192-1.192-1.5-2l-1 4c-2.029-.535-3.862-1.701-5.5-3.5.828-.915 1.828-1.581 3-2a4.59 4.59 0 0 1-2.5-2.5c-2.058.609-2.891 1.609-2.5 3a7.25 7.25 0 0 1-2.5-2c-.772 1.349-1.939 2.182-3.5 2.5 1.823 1.658 3.49 3.491 5 5.5.586-.209 1.086-.543 1.5-1 .677 2.189 1.844 2.522 3.5 1 2.292 2.168 4.125 1.502 5.5-2 .519 1.016 1.353 1.682 2.5 2 1.363-.698 2.529-.698 3.5 0 2-1 2-2 0-3-1.049 1.017-2.216 1.184-3.5.5 3.962-1.211 4.629-3.211 2-6a10.84 10.84 0 0 1 6-3.5 41.02 41.02 0 0 1 0 7.5c1.612.72 3.112.554 4.5-.5.309 1.266.809 2.433 1.5 3.5-1.266.309-2.433.809-3.5 1.5-1.666-.84-1.833-.34-.5 1.5a15.83 15.83 0 0 0-5.5 3.5 6.8 6.8 0 0 0-1.5-3l-1 .5c.837 1.011 1.17 2.178 1 3.5a8.43 8.43 0 0 1 4 .5c-5.333.667-5.333 1.333 0 2-1.493 1.156-1.326 1.99.5 2.5-.058-1.48 1.109-2.313 3.5-2.5-2.429-.451-2.596-1.285-.5-2.5 2.234 1.363 3.734 2.697 4.5 4l2-.5c-1.017-1.049-1.184-2.216-.5-3.5l1 1 1-4c1.016 1.134 1.683.801 2-1 1.564 2.165 1.397 3.832-.5 5 2.157.281 3.823 1.781 5 4.5l-3 3c.949.617 1.782.451 2.5-.5 1.84 1.954 2.673 3.954 2.5 6 1.762-1.963 3.429-3.296 5-4-.748-1.832-1.748-3.499-3-5-.692.525-1.192 1.192-1.5 2-.125-2.765-.958-4.432-2.5-5 1.88-2.59 1.214-4.09-2-4.5a36.08 36.08 0 0 0 3.5-4.5c1.015 2.71 2.515 5.043 4.5 7l1-1c-2.328-2.074-1.661-3.074 2-3a8.01 8.01 0 0 0-2-5.5l1-1-3-1c.609-2.058 1.609-2.891 3-2.5-.59-1.299-1.59-2.132-3-2.5 2.157-1.085 2.324-2.251.5-3.5-.84 2.964-1.84 3.297-3 1-2.173 2.777-2.673 2.61-1.5-.5l-2-1c1.504-1.491 2.337-3.324 2.5-5.5l1 3c.84-2.964 1.84-3.297 3-1 .54-1.635.04-2.968-1.5-4a20.79 20.79 0 0 0 2.5-1c.065 2.383.898 3.05 2.5 2 2.841 1.475 5.841 2.641 9 3.5l-4 1 1 1c-1.474 1.316-3.141 2.316-5 3 .948.483 1.948.649 3 .5.12 2.705-.88 3.372-3 2-1.225 2.343-.559 4.177 2 5.5l-2 1c1.735.651 3.402.485 5-.5.781 1.237 1.781 2.237 3 3-.011-.941.489-1.608 1.5-2l1.5.5c-1.211.893-1.211 1.726 0 2.5 1.615-.654 3.282-1.154 5-1.5-.457-.414-.791-.914-1-1.5 1.398-2.105 2.898-4.105 4.5-6 .483.948.649 1.948.5 3 1.846-.278 3.18.389 4 2-1.266 1.224-2.433 2.557-3.5 4-.669-2.528-1.502-2.528-2.5 0 1.408.743 2.741 1.577 4 2.5-.949.617-1.782.451-2.5-.5a7.69 7.69 0 0 1-4 3c-7.615-5.55-8.782-4.55-3.5 3 1.693.728 3.193 1.728 4.5 3l2.5-2.5c-1.211-.893-1.211-1.726 0-2.5 1.542-1.247 3.042-1.247 4.5 0 1.586-.876 3.086-1.876 4.5-3-.686-1.564-.519-3.231.5-5l1.5 1.5c-1.076 1.726-1.243 3.559-.5 5.5 1.333-4 2.667-4 4 0 2.081-1.668 3.415-3.335 4-5a3.43 3.43 0 0 1 2.5 1.5c-.671 3.965.329 4.298 3 1-2.551-1.516-2.218-2.349 1-2.5-.17-1.322.163-2.489 1-3.5-.525-.692-1.192-1.192-2-1.5-.066 4.498-1.566 4.832-4.5 1-.419 1.172-1.085 2.172-2 3-2.096-1.215-1.929-2.049.5-2.5a22.98 22.98 0 0 1-5-2c-1.333-1-1.333-2 0-3-.916-.374-1.75-.874-2.5-1.5v4c-1.968-3.723-3.635-3.723-5 0l-1.5-1.5c2.157-1.085 2.324-2.251.5-3.5l-3 1-1.5-1.5c.165-1.117.498-2.284 1-3.5 3.297-.642 3.631-1.809 1-3.5 1.612-.72 3.112-.554 4.5.5l1-2c.72 1.612.554 3.112-.5 4.5 1.815 1.676 3.649 2.509 5.5 2.5a8.43 8.43 0 0 0 .5-4c-3 .333-4.333-1-4-4a19.67 19.67 0 0 0-9.5 3c-2.12-.959-4.287-1.126-6.5-.5l4 1c-1.308.824-2.808 1.324-4.5 1.5-2.017-2.627-1.85-5.127.5-7.5l-2-1c2.667-.667 2.667-1.333 0-2 1.27-.9 2.27-2.066 3-3.5.498 1.103.831 2.103 1 3a14.97 14.97 0 0 0 3.5-3l1 1c2.124-.727 4.291-1.394 6.5-2 1.041 2.491 1.874 2.491 2.5 0 1.113 1.26 1.28 2.427.5 3.5 1.992.574 3.492 1.741 4.5 3.5 1.044-1.123 1.71-2.456 2-4l1 2c1.008-.482 2.175-.648 3.5-.5-4.083-1.714-5.916-4.548-5.5-8.5l-1 1c-1.728-1.694-1.228-2.861 1.5-3.5l-2-1c1.68-.034 3.18-.201 4.5-.5.617.949.451 1.782-.5 2.5 1.513 1.921 3.18 3.254 5 4-.448-1.763-1.448-3.596-3-5.5.352-1.286 1.018-2.119 2-2.5-.259-1.261-.926-2.261-2-3 2.7-.949 3.533-2.782 2.5-5.5-.667-1.333-1.333-1.333-2 0a7.29 7.29 0 0 1-2-3l-2.5 2.5c.43.919.764 1.753 1 2.5.692-.525 1.192-1.192 1.5-2 .772 1.349 1.939 2.182 3.5 2.5l-5 3.5c-1.348-1.961-2.681-2.128-4-.5.837 1.011 1.17 2.178 1 3.5-1.89-.203-3.39.463-4.5 2 .617-1.595.284-2.928-1-4-.615 1.616-1.615 2.949-3 4 .209-2.646.042-5.146-.5-7.5 2.894-2.96 2.561-3.794-1-2.5-3.31-1.892-3.644-4.058-1-6.5 3.044-.359 3.378-1.025 1-2 2.391-.691 2.391-1.691 0-3-1.549.522-3.049.355-4.5-.5-1.765 1.644-3.931 2.978-6.5 4-1.457-2.12-3.457-3.453-6-4l-2 .5c2.186.604 2.352 1.77.5 3.5-.971-.698-2.137-.698-3.5 0-1.466-.635-2.8-1.469-4-2.5 3.168-.582 3.501-1.582 1-3l1-1a7.75 7.75 0 0 0 5.5-.5c.492-1.049.326-2.049-.5-3 1.759-1.254 3.259-.921 4.5 1-.958-2.287-.124-3.953 2.5-5-.026 1.705.974 3.205 3 4.5l-1 1a7.29 7.29 0 0 1 3 2c4.682.773 5.015.107 1-2 1.206-4.364.706-4.531-1.5-.5-.465-1.431-1.299-2.597-2.5-3.5 2.522-1.686 2.189-3.019-1-4 2.491-.626 2.491-1.459 0-2.5.535-1.601 1.535-2.101 3-1.5.43.919.764 1.753 1 2.5 1.481-.98 2.815-2.147 4-3.5-.502-2.859-1.836-5.693-4-8.5.429-2.647 1.762-4.647 4-6a20.84 20.84 0 0 1-2.5-1c-.667-1.667-.667-3.333 0-5a6.8 6.8 0 0 0 1.5 3c.193-1.669 1.193-3.336 3-5 .064.865.397 1.865 1 3a4.45 4.45 0 0 1-2 1.5c2.244 2.349 3.411 1.849 3.5-1.5 1.618.389 2.785 1.722 3.5 4l1-.5a44.13 44.13 0 0 1-.5-6.5c-1.612 2.579-3.112 2.579-4.5 0 1.148-1.649 2.481-3.149 4-4.5-1.333-1-1.333-2 0-3-1.049-.492-2.049-.326-3 .5-1.211-.774-1.211-1.607 0-2.5-1.608-.658-2.775-.158-3.5 1.5l-1.5-3c2.11.206 4.11-.627 6-2.5-.605-1.827-2.272-3.16-5-4 1.215-2.096 2.049-1.929 2.5.5.398-2.732 1.898-4.565 4.5-5.5-1.134-1.016-.801-1.683 1-2-1.017-1.05-1.184-2.216-.5-3.5.667 2.667 1.333 2.667 2 0 .684 1.284.517 2.45-.5 3.5 2.053.325 4.053-.009 6-1-1.372-.631-2.705-1.297-4-2 .259-1.261.926-2.261 2-3-.857-.689-1.523-1.522-2-2.5 1.017-2.528 2.184-2.528 3.5 0 1.518.443 2.685-.224 3.5-2 1.354 1.684 3.021 2.184 5 1.5-.753-1.487-1.586-1.654-2.5-.5l-1-5a6.54 6.54 0 0 1-3-3 7.29 7.29 0 0 1-2 3L795.5 1c.556-.383.889-.883 1-1.5z" fill="#006ae5"/><path d="M557.5 226.5a2117.57 2117.57 0 0 0-92 1v21c-15.337.167-30.67 0-46-.5 14.663-.5 29.33-.667 44-.5-.299-7.391.035-14.724 1-22a1411.06 1411.06 0 0 1 92-.5c.556.383.889.883 1 1.5z" fill="#211b33"/><path d="M465.5 227.5a2117.57 2117.57 0 0 1 92-1c.992 7.148 1.325 14.481 1 22 7.852-.325 15.518.008 23 1h-24v-22h-91-1z" fill="#0f0001"/><path d="M303.5 206.5a242.43 242.43 0 0 1 22 .5c-6.992.5-13.992.666-21 .5v23c-6.393.293-12.727-.04-19-1a267.06 267.06 0 0 0-1.5 23l-1.5 1.5a96.54 96.54 0 0 1-24-.5l23-2v-24h22v-21z" fill="#301216"/><path d="M557.5 249.5c7.482.992 15.148 1.325 23 1v91h-1v-90h-22v3h19c.166 8.34 0 16.673-.5 25a34.04 34.04 0 0 0-1.5-7.5c.973-5.407 1.307-10.907 1-16.5-4.93-.303-9.763.031-14.5 1-2.93-.524-5.43-1.858-7.5-4-.542 2.987-2.709 4.654-6.5 5-1.016-1.134-1.683-.801-2 1-.543-2.131-1.376-4.131-2.5-6-1.381.5-2.047 1.5-2 3 .888 1.655 1.388 3.322 1.5 5h-5l-1-8c-.172 6.513-.672 12.847-1.5 19v-21h-68v-1h45c-.29-6.061.043-12.061 1-18l-45-2a1981.12 1981.12 0 0 1 89-1c-.325 7.187.009 14.187 1 21z" fill="#d98658"/><path d="M466.5 227.5h91v22c-.991-6.813-1.325-13.813-1-21a1981.12 1981.12 0 0 0-89 1l45 2c-.957 5.939-1.29 11.939-1 18h-45v-22z" fill="#e79566"/><path d="M465.5 227.5h1v22 1h-24-24l47-2v-21z" fill="#3c1006"/><path d="M442.5 251.5v-1h24 68v21 1 23c7.482.992 15.148 1.325 23 1v45h22 1 1v1 1c-.996 14.49-1.329 29.157-1 44-7.519-.325-14.852.008-22 1v23h-24v91h23v-46h23v-23h69c7.914.967 15.914 1.301 24 1v1h-23c.297 7.42-.036 14.754-1 22h-69v23h70 23 1 22v138 47h-1-22v22h-23v47 23h-23-23v23h-1-1-136-23a139.2 139.2 0 0 1-1-23h-23v-23h-24v-23h-23v-23-23h-23v-116h-23v-68h-23v-1h23 23v23h24v-23h69c.992-7.482 1.325-15.148 1-23h22v92h-22v46h21a242.43 242.43 0 0 1 .5-22c.171 7.511.671 14.845 1.5 22h23 46 21c.992-7.482 1.325-15.148 1-23-22.16-.997-44.494-1.331-67-1l-1-160h-23v-23h-24c-7.482-.992-15.148-1.325-23-1v-1-1c.331-29.838-.002-59.505-1-89v-1l2-23v23h22v-22h24c.325-7.519-.008-14.852-1-22h-1-22z" fill="#fec881"/><path d="M418.5 250.5h24v1 20h22v-20h1v21h-45l-2 23v-45z" fill="#cc7a53"/><path d="m442.5 251.5h22v20h-22v-20z" fill="#e89565"/><path d="M325.5 181.5v24c-7.519-.325-14.852.008-22 1v21h-22v24h-24v44h-23c-.998 29.162-1.331 58.495-1 88-27.968.002-27.968.669 0 2-7.638.997-15.304 1.331-23 1-.326 8.517.007 16.85 1 25h23v22h-23v70h23v23 48h22c-.325 7.187.009 14.187 1 21h23v47h23v21 2 1 45h24v24c6.813.991 13.813 1.325 21 1v90c-15.176-.329-30.176.004-45 1v1 2 19c-22.839-.331-45.506.003-68 1-.992 7.482-1.325 15.148-1 23h-69v23h-72v23h-46v22h-25v22h-23v-842c1.44-1.888 3.107-2.555 5-2-2.232-3.145-2.232-6.145 0-9-.826-.951-.992-1.951-.5-3 1.362 1.425 2.862 2.258 4.5 2.5l-3 4c1.354 1.294 2.688 1.46 4 .5l1 2c.854-1.022 1.854-1.855 3-2.5l-1-1c4.02-1.405 6.854.095 8.5 4.5.429-2.169-.071-4.169-1.5-6 2.491-1.041 2.491-1.874 0-2.5 3.244-.908 5.577-2.908 7-6 1.867-.711 3.367-.211 4.5 1.5l1-2c1.137 3.02 3.303 4.686 6.5 5v3c1.052-.149 2.052.017 3 .5l-4 3a7.29 7.29 0 0 1 3 2c-1.154.914-.987 1.747.5 2.5 2.825-1.084 2.992-2.251.5-3.5l1.5-.5 3.5 2.5-2 1c2.777 2.173 2.61 2.673-.5 1.5-1.993 1.906-1.493 3.073 1.5 3.5-1.196.654-1.196 1.154 0 1.5 4.862-1.575 5.196-.242 1 4 1.161 1.724.995 3.39-.5 5-2.295-.189-4.295-1.523-6-4-2.096 1.215-1.929 2.049.5 2.5-1.333.667-1.333 1.333 0 2a11.34 11.34 0 0 0-3.5 1.5c-1.364-.758-2.531-.258-3.5 1.5 1.141.741 1.141 1.575 0 2.5 1.102.057 2.435.223 4 .5-1.284-1.297-1.117-2.464.5-3.5 1.284 1.072 1.617 2.405 1 4 .689-.857 1.522-1.523 2.5-2 .968 4.273 2.135 3.94 3.5-1 .785 4.337 3.285 7.337 7.5 9l-2.5 5c-.941-1.561-2.108-2.895-3.5-4 .204 1.029-.296 2.029-1.5 3-.718-.951-1.551-1.117-2.5-.5 1.89 1.873 3.89 2.706 6 2.5-.574 1.559-1.24 3.059-2 4.5l1 .5c.751-.876 1.251-1.876 1.5-3 3.013 2.708 2.18 4.041-2.5 4a4.93 4.93 0 0 0 .5 3l5.5 2.5c.612 1.303.946 2.47 1 3.5.808-.308 1.475-.808 2-1.5-1.146-2.557-.146-3.89 3-4-1.89-3.446-3.39-3.279-4.5.5-.309-1.266-.809-2.433-1.5-3.5 4-.667 4-1.333 0-2 1.201-.903 2.035-2.069 2.5-3.5 1.016 1.134 1.683.801 2-1 .187 1.845 1.02 3.511 2.5 5 1.295-.598 2.628-1.098 4-1.5-1.167-.5-2-1.333-2.5-2.5l-1 2c-.684-1.284-.517-2.451.5-3.5-1.928-2.455-3.761-2.622-5.5-.5 1.05-4.674 3.05-5.007 6-1l1-1c.956 1.079 1.789 2.245 2.5 3.5-2.401.805-2.234 1.638.5 2.5.853-1.625 1.853-1.958 3-1l1-3c2.466.13 5.3.463 8.5 1-.732-2.637-.732-5.137 0-7.5-1-.667-2-.667-3 0l1 1c-.568 1.604-1.568 2.27-3 2 .732-2.363.732-4.863 0-7.5-1.052.149-2.052-.017-3-.5l4-2c-.845-1.558-.178-2.558 2-3-.959-2.69-.292-3.024 2-1-1.719 1.87-2.719 4.037-3 6.5a8.43 8.43 0 0 1 4 .5l-2 1c1.123 1.044 2.456 1.71 4 2l-2 2c1.663.265 3.163-.235 4.5-1.5 2.485 2.507 1.985 4.007-1.5 4.5 1.333.667 1.333 1.333 0 2 3.685.914 3.352 1.581-1 2l1 1c-1.284.684-2.451.517-3.5-.5-1.807.979-2.807 2.313-3 4l3-2c2.221 2.528 4.554 4.195 7 5 1.567-2.356 3.4-3.523 5.5-3.5 1.18-2.815.847-5.482-1-8 1-.667 2-.667 3 0-.888 1.717-.221 2.884 2 3.5 1.568-.815 2.901-1.148 4-1-1.151-1.231-2.317-1.231-3.5 0-.242-1.638-1.075-3.138-2.5-4.5l6-2.5c-1.082-.249-2.415-.415-4-.5 1.054-1.388 1.22-2.888.5-4.5l-1 2c-1.744-.53-3.244-.53-4.5 0 .606-2.14.273-4.307-1-6.5 3.443.524 3.777-.642 1-3.5.59-1.299 1.59-2.132 3-2.5v-4c-1.585-.085-2.918-.251-4-.5a4.45 4.45 0 0 1 1.5-2 37.15 37.15 0 0 0 4.5 2c1.247-1.506 1.247-3.006 0-4.5 1.259-.982 2.592-1.315 4-1-1.711 1.133-2.211 2.633-1.5 4.5l2-2a92.01 92.01 0 0 0 4.5 3c.586-.209 1.086-.543 1.5-1l7.5 5.5c-1.894 1.101-2.561 2.434-2 4 2.514 2.067 2.348 3.567-.5 4.5-.24-1.133-.74-1.633-1.5-1.5-1.284 1.297-1.117 2.464.5 3.5a33.27 33.27 0 0 1 8.5-3.5c1.333-.667 1.333-1.333 0-2 2.149-1.152 3.982-2.652 5.5-4.5l1 2c2.198-4.961 5.198-9.961 9-15 1.098 1.467 2.598 2.301 4.5 2.5-1.884.216-3.551.883-5 2 2.412 2.035 1.745 3.035-2 3 2.391 1.309 2.391 2.309 0 3 1.211 1.113 1.211 2.28 0 3.5l2 3c-1.456-.178-2.789.656-4 2.5l1 1c-1.585.085-2.918.251-4 .5 2.653 1.632 4.987 3.632 7 6 .672-1.485.006-2.651-2-3.5l5-7c-3.387-2.536-3.387-4.536 0-6l-2-1c2.386-.284 3.052-1.284 2-3 1.244-.456 2.077.044 2.5 1.5l.5-1.5c-2.89-1.892-2.556-2.725 1-2.5a8.43 8.43 0 0 0 .5 4c.273-1.601.773-3.101 1.5-4.5-2.297-1.16-1.964-2.16 1-3a7.25 7.25 0 0 1-2-2.5c.985-1.598 1.151-3.265.5-5l-1 1c-.423-1.456-1.256-1.956-2.5-1.5-1.899 1.897-3.399 4.064-4.5 6.5l-2.5-2.5c1.247-1.494 1.247-2.994 0-4.5-1.866 1.063-2.366.396-1.5-2a9.47 9.47 0 0 1 5 4l1-4c1.868 1.172 3.702 1.005 5.5-.5-.951-.718-1.117-1.551-.5-2.5l6 6c3.411-2.591 4.078-1.924 2 2l-1-1c-5.532.981-5.866 2.981-1 6-.077-1.238.089-2.238.5-3a10.26 10.26 0 0 1 1.5 4c.469-1.608 1.135-3.275 2-5 1.54 4.074 2.873 4.407 4 1l1 5c1.049-1.017 2.216-1.184 3.5-.5-1.333.667-1.333 1.333 0 2l-2 1a6.8 6.8 0 0 1 3 1.5c.696 4.089 2.862 5.422 6.5 4a16.66 16.66 0 0 1 4 4 28.93 28.93 0 0 1 1.5-4c.774-1.211 1.607-1.211 2.5 0l1-2c2.569 3.794 1.736 7.294-2.5 10.5l4 4c-1.702 1.583-3.036 1.083-4-1.5-.692.525-1.192 1.192-1.5 2-.583-1.502-1.416-2.835-2.5-4-.98 1.481-2.147 2.815-3.5 4-.692-.525-1.192-1.192-1.5-2 1.522-1.656 1.189-2.823-1-3.5l4-2c-2.725-1.195-5.391-1.528-8-1 2.528-.669 2.528-1.502 0-2.5-1.131 1.574-1.298 3.241-.5 5l1-1 1 4c1.666-.84 1.833-.34.5 1.5 2.186.604 2.352 1.77.5 3.5-.419-1.172-1.085-2.172-2-3-.465 1.431-1.299 2.597-2.5 3.5l5 3c-3.949.807-3.949 1.307 0 1.5.42 2.174.42 4.174 0 6-.321-5.085-1.655-5.752-4-2a11.28 11.28 0 0 1 3.5 6c1.07-1.614 2.57-2.948 4.5-4 1.981.605 2.315 1.605 1 3 2.266.814 4.6 1.314 7 1.5-2.661.58-5.161 1.414-7.5 2.5-.451-2.429-1.285-2.596-2.5-.5 1.333.667 1.333 1.333 0 2 .949.617 1.782.451 2.5-.5a4.59 4.59 0 0 0 2.5 2.5c-1.304.804-1.971 1.971-2 3.5.573 1.854.907 3.687 1 5.5-.971 1.204-1.971 1.704-3 1.5 2.446.927 3.279 2.594 2.5 5l-5-3c-.772 1.349-1.939 2.182-3.5 2.5.805 1.972 2.139 3.472 4 4.5-2.214.457-4.214.457-6 0-1.239-1.507-.905-2.674 1-3.5l-4-1c3.465-.934 3.798-2.434 1-4.5 2.188-.741 4.188-1.074 6-1a10.26 10.26 0 0 0-4-1.5c4.148-.458 4.981-2.291 2.5-5.5-.936 5.113-2.269 5.113-4 0-1.797 2.596-3.131 2.263-4-1l-1 2c-1.619.583-3.452.583-5.5 0 .098 1.116-.402 2.116-1.5 3-1.73 1.149-3.396 1.149-5 0-1.74 1.684-2.906 3.518-3.5 5.5l3 4.5c1.598-.11 3.265-.443 5-1 .245 1.817.245 3.484 0 5-.865 1.083-1.865 1.249-3 .5.78-1.073.613-2.24-.5-3.5-.833 1.5-2 2.667-3.5 3.5 2.158 1.312 2.491 2.978 1 5l2 .5c2.623-.276 5.123-.943 7.5-2l3 3a28.93 28.93 0 0 1 1.5-4c-1.031-1.2-1.865-2.534-2.5-4-.483.948-.649 1.948-.5 3-1.052.149-2.052-.017-3-.5a73.96 73.96 0 0 0 1-6.5c.697 1.885 1.697 2.218 3 1a10.26 10.26 0 0 1 1.5 4c1.77-.776 3.603-.61 5.5.5-1.791.415-3.124 1.415-4 3l2 1c-2.333 1.243-3 2.909-2 5-2.423.732-3.59 2.232-3.5 4.5l3-3c3.082 3.669 5.416 3.002 7-2a22.98 22.98 0 0 1 2 5c.667-1.333 1.333-1.333 2 0 .199-1.902 1.033-3.402 2.5-4.5l-4-4c.113-1.28.78-2.113 2-2.5 1.196.346 1.196.846 0 1.5 1 .667 2 .667 3 0-.837-1.011-1.17-2.178-1-3.5 1.624.14 2.79-.527 3.5-2a37.55 37.55 0 0 1 5.5 8.5 16.66 16.66 0 0 0-4 4c1.724.448 2.391 1.282 2 2.5 1.771-.535 2.104-1.369 1-2.5 1.26-1.113 2.427-1.28 3.5-.5.317-1.801.984-2.134 2-1l1-3 1 6c1.204-.971 1.704-1.971 1.5-3 1.331 1.092 2.164 2.426 2.5 4 1.204-.971 1.704-1.971 1.5-3 1 1.333 2 1.333 3 0 3.856 2.306 4.69 1.306 2.5-3l-1 2a11.53 11.53 0 0 0-3.5-4.5c1.325.148 2.492-.018 3.5-.5l1 2c.5-1.833 1.667-3 3.5-3.5l-4-1c1.776-1.671 2.11-3.504 1-5.5.692-2.873 2.359-4.373 5-4.5-1.333.667-1.333 1.333 0 2-2.209.957-2.043 2.124.5 3.5l2.5-2.5c-.951-.718-1.117-1.551-.5-2.5.654 1.196 1.154 1.196 1.5 0-.615-1.616-1.615-2.949-3-4 .223-1.467.556-2.967 1-4.5-1.616-.615-2.949-1.615-4-3 .949-.617 1.782-.451 2.5.5 1.075-2.33 2.575-3.663 4.5-4a14.97 14.97 0 0 0-3-3.5 36.08 36.08 0 0 0 3.5-4.5c.654 1.196 1.154 1.196 1.5 0-.525-.692-1.192-1.192-2-1.5.928-.388 1.595-1.055 2-2-.146-1.727-.813-1.894-2-.5-1.083-.865-1.249-1.865-.5-3 1.587 1.227 2.921.894 4-1 .309 1.266.809 2.433 1.5 3.5-2.528 1.316-2.528 2.483 0 3.5-.374-1.271.292-2.438 2-3.5-1.333-1-1.333-2 0-3-.969-1.758-2.136-2.258-3.5-1.5-1.342-3.076-3.509-3.409-6.5-1-.411-.762-.577-1.762-.5-3-1.908 2.832-2.741 2.499-2.5-1-1.052-.149-2.052.017-3 .5 2.764 1.544 2.597 2.711-.5 3.5-1.998-.771-3.665-.105-5 2-.242-1.638-1.075-3.138-2.5-4.5 1.783-1.067 2.283-2.567 1.5-4.5-1.597.14-3.097.14-4.5 0l-3.5-3c-.089 3.349-1.256 3.849-3.5 1.5 1.393-1.171 2.227-2.671 2.5-4.5 1.71 1.445 3.544 2.278 5.5 2.5-.335-2.836-1.502-5.67-3.5-8.5-.423 1.456-1.256 1.956-2.5 1.5.691-1.067 1.191-2.234 1.5-3.5.667-1.333 1.333-1.333 2 0l1-2c.903 1.201 2.069 2.035 3.5 2.5-3.608 2.618-3.608 3.451 0 2.5.692.525 1.192 1.192 1.5 2 .451-2.429 1.285-2.596 2.5-.5-2.629 4.357-1.962 4.691 2 1-1.211-1.113-1.211-2.28 0-3.5-2.398-3.261-4.731-5.761-7-7.5l2-3c-.753-1.487-1.586-1.654-2.5-.5-.667-2.667-1.333-2.667-2 0-.29-1.544-.956-2.877-2-4-1.073.78-2.24.613-3.5-.5 1.815-2.488 3.815-2.821 6-1-1.333.667-1.333 1.333 0 2a39.76 39.76 0 0 1 7 3.5c.177-2.578 1.343-2.578 3.5 0 2-1.333 2-2.667 0-4-1.356.88-2.856 1.214-4.5 1a4.85 4.85 0 0 1 1-4c2.677.574 5.343 1.241 8 2-1.311.758-1.811 1.758-1.5 3 2.768-.708 3.601-2.208 2.5-4.5l-6-2c1.981-.605 2.315-1.605 1-3 1.601-.273 3.101-.773 4.5-1.5l9 9c.465-1.431 1.299-2.597 2.5-3.5-1.456-.423-1.956-1.256-1.5-2.5l3 1c.748 1.832 1.748 3.499 3 5 2.167-1.5 2-2.667-.5-3.5-.096-1.373.07-2.873.5-4.5l-1 1c-.317-1.801-.984-2.134-2-1-1.399-.727-2.899-1.227-4.5-1.5.951-.718 1.117-1.551.5-2.5-1.281.119-2.448-.381-3.5-1.5 1.599-1.066 2.599-2.566 3-4.5-1.333-1-1.333-2 0-3h-3a28.04 28.04 0 0 0 1.5-5c.317 1.801.984 2.134 2 1 .454 2.271 1.121 4.604 2 7 .718-.951 1.551-1.117 2.5-.5-.757 1.512-1.757 2.846-3 4 1.774.881 2.44 2.047 2 3.5a25.86 25.86 0 0 0 3-5c1.598.985 3.265 1.151 5 .5-4.08-.995-5.246-3.161-3.5-6.5.914 1.154 1.747.987 2.5-.5-1.141-.741-1.141-1.575 0-2.5l-4-3c.209-.586.543-1.086 1-1.5-1.187-1.019-2.187-2.186-3-3.5.346-1.196.846-1.196 1.5 0l1-3c.451 2.429 1.285 2.596 2.5.5-1.561-.941-2.895-2.108-4-3.5 1.804-1.216 3.471-2.216 5-3a6.8 6.8 0 0 1 1.5 3c1.758-.969 2.258-2.136 1.5-3.5 1.671-1.844 3.671-2.51 6-2l-3 1 1 1c-1.869 2.613-4.203 4.779-7 6.5 3.39-.428 6.39-2.261 9-5.5 1.964-.624 3.631-.124 5 1.5l3-1.5c.335-1.777-.499-3.277-2.5-4.5-1.422.705-2.755 1.038-4 1-.75-.626-1.584-1.126-2.5-1.5 1.955-.953 3.622-2.287 5-4l-3-5c1.616-.615 2.949-1.615 4-3-.789-3.097-1.956-3.264-3.5-.5l-5.5-2.5c1.052-1.119 2.219-1.619 3.5-1.5.423 1.456 1.256 1.956 2.5 1.5l-1-1c1.759-1.008 2.926-2.508 3.5-4.5a7.29 7.29 0 0 0 2 3c2.861-.408 3.028.425.5 2.5 2.768.708 3.601 2.208 2.5 4.5a7.29 7.29 0 0 0 2-3c.415 1.791 1.415 3.124 3 4 3.857-1.479 4.857-.479 3 3-.359-3.044-1.026-3.378-2-1-1.183-1.231-2.349-1.231-3.5 0 .777 2.038 1.943 2.705 3.5 2 .658 1.608.158 2.775-1.5 3.5 1.665.788 3.331 1.122 5 1l-1-1c2.667-.667 2.667-1.333 0-2 2.342-1.398 4.675-1.065 7 1-1.147 1.904-.647 3.404 1.5 4.5 1.057-1.127 2.223-1.627 3.5-1.5-.457.414-.791.914-1 1.5 1.111 1.111 1.778 2.445 2 4a64.47 64.47 0 0 0-4 6.5c1.993-.232 3.826-.065 5.5.5 2.096-1.216 1.929-2.049-.5-2.5 1.38-1.324 1.714-2.657 1-4a4.93 4.93 0 0 1 3-.5c-.219-1.175.114-2.175 1-3 2.653.785 3.32 2.285 2 4.5 2.532.612 3.365 2.112 2.5 4.5-1.408-3.668-3.075-3.668-5 0-.654-1.196-1.154-1.196-1.5 0 .876.751 1.876 1.251 3 1.5-1.801.317-2.134.984-1 2-2.291-.811-4.125.023-5.5 2.5-3.025-1.291-3.359-.624-1 2 .914-1.154 1.747-.987 2.5.5-2.879 1.662-5.045.829-6.5-2.5-.969 2.234-2.302 4.234-4 6-.85-.924-1.85-.924-3 0l-1.5-1c.96-1.312.794-2.646-.5-4-.975 1.87-1.475 3.87-1.5 6 .477.978 1.143 1.811 2 2.5-1.201.903-2.035 2.069-2.5 3.5-.741-1.141-1.575-1.141-2.5 0a10.76 10.76 0 0 1-3-2.5c-.246-1.06-.246-2.227 0-3.5-1.564-2.103-3.564-2.936-6-2.5 1.508 1.507 2.841 3.173 4 5-.457.414-.791.914-1 1.5 2.676 4.18 1.676 7.346-3 9.5.482 1.008.648 2.175.5 3.5.667-1.333 1.333-1.333 2 0 .915-.828 1.581-1.828 2-3 .11 2.348 1.277 3.848 3.5 4.5-.116 1.268-.449 2.602-1 4 2.444-.553 4.611.281 6.5 2.5 1.085-1.873 2.418-3.54 4-5 2.058.609 2.891 1.609 2.5 3 .951-.826 1.951-.992 3-.5-1.785 1.163-3.785 1.83-6 2 1.934 1.729 1.934 3.729 0 6-.348 2.725.318 5.392 2 8l-1 1a4.59 4.59 0 0 1 2.5 2.5c1.073-.78 2.24-.613 3.5.5-.72 2.122-1.887 2.622-3.5 1.5-.635 2.135-.301 4.135 1 6 1.113-1.26 1.28-2.427.5-3.5 1.791-.415 3.124-1.415 4-3-.675-2.242-.175-4.409 1.5-6.5l2 4c1.205-.571 2.372-1.238 3.5-2-.826-.951-.992-1.951-.5-3 1.135.227 2.302.56 3.5 1-1.217 2.968-3.217 5.135-6 6.5 2.179 1.987 4.012 1.82 5.5-.5 2.099.966 3.932 2.3 5.5 4-.204-1.029.296-2.029 1.5-3 2.825 1.084 2.992 2.251.5 3.5l1 1a6.8 6.8 0 0 0-3 1.5c.826.951.992 1.951.5 3-.893-1.211-1.726-1.211-2.5 0 1.09 1.109 1.09 2.109 0 3-.692-.525-1.192-1.192-1.5-2-.725 1.658-1.892 2.158-3.5 1.5 1.173-3.11.673-3.277-1.5-.5-.741-1.141-1.575-1.141-2.5 0l-4-3c-1.196.346-1.196.846 0 1.5l-3 1c2.585 2.653 5.585 3.153 9 1.5a28.93 28.93 0 0 0 4 1.5c-2.421.022-4.754 1.022-7 3 .951.718 1.117 1.551.5 2.5-2.847-4.319-5.847-4.652-9-1-1.154-2.457-2.488-2.457-4 0-.711-1.867-.211-3.367 1.5-4.5-2.49-.495-3.99-1.995-4.5-4.5-.718.951-1.551 1.117-2.5.5.951-.718 1.117-1.551.5-2.5-2.489 1.973-2.656 3.806-.5 5.5l-1 1 4 1c-2.432 1.087-2.098 1.587 1 1.5.087 3.098-.413 3.432-1.5 1a8.43 8.43 0 0 0-.5 4c-2.138-.203-3.805-1.203-5-3v3c-3.754-3.529-6.087-2.529-7 3 1.701-.466 3.201-.466 4.5 0 2.321-2.533 4.321-2.199 6 1 .414-.457.914-.791 1.5-1 2.381 1.598 3.548 3.932 3.5 7 .518-2.523 1.852-4.523 4-6 .667 2.667 1.333 2.667 2 0 .718.951 1.551 1.117 2.5.5-.951-.718-1.117-1.551-.5-2.5 2.035 2.412 3.035 1.745 3-2l3-1c3.333 1.333 3.333 2.667 0 4-.718-.951-1.551-1.117-2.5-.5 1.96 1.322 4.127 3.156 6.5 5.5a3.43 3.43 0 0 0 1.5-2.5c-.444-1.762-.944-1.595-1.5.5.265-3.32 1.931-5.987 5-8 .324 2.069 1.158 2.402 2.5 1 1.032 1.54 2.365 2.04 4 1.5.958-1.147.625-2.147-1-3 1.238.077 2.238-.089 3-.5-1.092-1.331-2.426-2.164-4-2.5 1.052-1.119 2.219-1.619 3.5-1.5.837 1.507 2.004 2.007 3.5 1.5-2.645-3.164-1.645-4.331 3-3.5-.17-1.322.163-2.489 1-3.5l-3.5-3.5c-1.119 1.052-1.619 2.219-1.5 3.5l2 1c-1.093 1.365-2.426 1.699-4 1 .457-.414.791-.914 1-1.5-2.301-1.663-2.301-3.497 0-5.5a6.8 6.8 0 0 1-3-1.5l1-1c2.987 1.228 5.987.895 9-1 1.104 1.131.771 1.965-1 2.5a27.27 27.27 0 0 1 7.5 5.5l1.5-1.5c-2.491-.626-2.491-1.459 0-2.5-.346-1.196-.846-1.196-1.5 0a22.98 22.98 0 0 0-2-5c-.414.457-.914.791-1.5 1-1.124-1.414-2.124-2.914-3-4.5-.947-2.188-.947-4.522 0-7l-1.5-1.5c-2.157 2.578-3.323 2.578-3.5 0l-1 1.5c.924 1.15.924 2.15 0 3l3 1c-2.386.284-3.052 1.284-2 3-1.667 1-3 2.333-4 4-1.408.315-2.741-.018-4-1 2.254-.624 3.921-1.957 5-4 1.285-1.312 1.285-3.145 0-5.5-1.052.149-2.052-.017-3-.5a20.48 20.48 0 0 1 3-5.5 7.25 7.25 0 0 1 2.5 2h5c1.85 2.462 3.017 1.962 3.5-1.5-2.522-3.481-1.522-4.314 3-2.5-2.85 5.036-2.35 5.703 1.5 2 .617.949.451 1.782-.5 2.5 1.833.5 3 1.667 3.5 3.5.906-2.112 2.406-2.945 4.5-2.5-2.331 1.8-2.331 3.8 0 6-.916.374-1.75.874-2.5 1.5-.639-2.728-1.806-3.228-3.5-1.5 2.823 3.286 2.489 5.952-1 8a32.79 32.79 0 0 1 3.5 5.5c.749 1.135.583 2.135-.5 3a14.97 14.97 0 0 0-3.5 3l-3-4c-2.164 2.994-3.83 6.327-5 10-.085-1.585-.251-2.918-.5-4-1.892 2.537-3.892 4.203-6 5 1.334.029 2.667.863 4 2.5l-1 1c2.667.667 2.667 1.333 0 2 1.284.684 2.451.517 3.5-.5 1.756 1.774 1.756 3.441 0 5l-5-2c-1.917.795-4.083.962-6.5.5 1.656 1.829 3.656 3.163 6 4l-2 1c1.211 1.578 2.545 1.745 4 .5a28.93 28.93 0 0 0 1.5-4c1 1.667 2.333 3 4 4l1-1c.641 3.871 2.141 4.538 4.5 2-1.129-2.029-.629-2.363 1.5-1 .442-2.179 1.442-2.845 3-2-.617-1.595-.284-2.928 1-4 3.169.363 5.836 1.697 8 4 .667-2.667 1.333-2.667 2 0 .914-1.154 1.747-.987 2.5.5-3.044.359-3.378 1.026-1 2-2.492 1.249-2.325 2.416.5 3.5.718-.951 1.551-1.117 2.5-.5-.828.915-1.828 1.581-3 2a7.25 7.25 0 0 1 2 2.5c-1.355 1.175-1.188 2.175.5 3 .423-1.456 1.256-1.956 2.5-1.5-.845 1.558-.179 2.558 2 3-1.473.71-2.14 1.876-2 3.5 1.052.149 2.052-.017 3-.5 1.377-1.397 2.21-2.897 2.5-4.5l1.5 1c1.11 7.311 1.11 15.145 0 23.5.571 1.205 1.238 2.372 2 3.5l2-22z" fill="#006ae5"/><use href="#B" fill="#0a0003"/><path d="m534.5 272.5h23v23h-23v-23z" fill="#e79565"/><path d="M465.5 251.5c.992 7.148 1.325 14.481 1 22h-24v22h-22v-23h45v-21z" fill="#e79563"/><path d="M557.5 249.5h24v92h-1v-91c-7.852.325-15.518-.008-23-1z" fill="#874d37"/><path d="M579.5 341.5h-22v-45c-7.852.325-15.518-.008-23-1h23v-23h-23v-1c.828-6.153 1.328-12.487 1.5-19l1 8h5c-.112-1.678-.612-3.345-1.5-5-.047-1.5.619-2.5 2-3 1.124 1.869 1.957 3.869 2.5 6 .317-1.801.984-2.134 2-1 3.791-.346 5.958-2.013 6.5-5 2.07 2.142 4.57 3.476 7.5 4 4.737-.969 9.57-1.303 14.5-1 .307 5.593-.027 11.093-1 16.5a34.04 34.04 0 0 1 1.5 7.5c.5-8.327.666-16.66.5-25h-19v-3h22v90z" fill="#cc7950"/><path d="M1023.5 245.5v719h-25v-23h-24v-22h-47v-22-1c-22.827-.998-45.827-1.331-69-1 .316-8.252-.018-16.419-1-24.5h4c-1.678-1.591-2.678-3.091-3-4.5-22.181 1.644-44.514 2.644-67 3 21.807.51 43.474 1.343 65 2.5l-67 .5v-24c-23.408.323-46.742-.011-70-1v-17-2-1c-14.824-.996-29.824-1.329-45-1a2026.42 2026.42 0 0 0-1-90v-1h23v-24c7.852.325 15.518-.008 23-1v-45-24h23c.996-14.824 1.329-29.824 1-45 7.519.325 14.852-.008 22-1l2-20.5a156.42 156.42 0 0 1 25 0c-.667 1.333-1.667 2.333-3 3 1.217 1.648 2.05 3.481 2.5 5.5.72-1.612.554-3.112-.5-4.5l2-1c-.771-1.998-.105-3.665 2-5-.916-.374-1.75-.874-2.5-1.5-.914-3.685-1.581-3.352-2 1l-1-2c-.5-21.997-.667-43.997-.5-66a121.86 121.86 0 0 1 22 1l-20 2 19 2a81.88 81.88 0 0 1-18 1 344.46 344.46 0 0 0 0 22.5l1.5 1.5a34.04 34.04 0 0 1 1.5-7.5c-.928-2.414-.761-4.914.5-7.5.526 2.05 1.359 3.883 2.5 5.5l-1 1c1.786.196 3.119 1.029 4 2.5l-2 1c1.388 2.579 2.888 2.579 4.5 0 .556 2.095 1.056 2.262 1.5.5l-3-3.5 1-1a13.31 13.31 0 0 0 6 4.5 6.8 6.8 0 0 0-3 1.5c1.638 2.804 3.471 5.471 5.5 8 1.5-.833 2.667-2 3.5-3.5-.714-1.343-.38-2.676 1-4-1.755-.72-2.589-1.887-2.5-3.5.414.457.914.791 1.5 1 .742-1.85 1.742-2.516 3-2-.881-1.471-2.214-2.304-4-2.5 2.019-.45 3.852-1.283 5.5-2.5.309 1.266.809 2.433 1.5 3.5-2.749 2.19-2.415 3.857 1 5l-2 1c1.333.667 2.333 1.667 3 3-2.209.957-2.043 2.124.5 3.5 3.133-1.914 3.3-4.081.5-6.5 1.244-.456 2.077.044 2.5 1.5.595-3.582 1.929-3.916 4-1l.5-1.5c-.535-1.537-.868-3.037-1-4.5-1.85.742-2.516 1.742-2 3l-3-1.5c1.801-.317 2.134-.984 1-2 2.61-1.481 5.277-2.648 8-3.5a8.43 8.43 0 0 0-.5-4c-1.204.971-1.704 1.971-1.5 3l-3-2c-2.496 2.692-4.83 2.525-7-.5 2.31-.497 4.643-.663 7-.5.225-3.556-.608-3.89-2.5-1-1.15-.924-2.15-.924-3 0-.483-.948-.649-1.948-.5-3h3c-.14-1.624.527-2.79 2-3.5-2.045-.93-2.879-2.43-2.5-4.5l4 5c.75-.626 1.584-1.126 2.5-1.5-1.36-1.938-1.027-3.604 1-5-3.377-1.039-4.043-2.539-2-4.5-1.97-.943-3.47-.276-4.5 2l-1-2c-.29 1.544-.956 2.877-2 4-.583-1.502-1.416-2.835-2.5-4l-1 .5c-.918 2.133-1.084 4.3-.5 6.5l-4-3a3362.57 3362.57 0 0 1 0-116c.564 2.655 1.064 5.321 1.5 8a348.76 348.76 0 0 0-1 31l1.5 3c1.147-.958 2.147-.625 3 1 1-2.667 2-2.667 3 0 1.78-1.094 3.614-2.094 5.5-3-3.217.194-6.217-.973-9-3.5 1.608-.658 2.775-.158 3.5 1.5.658-1.608.158-2.775-1.5-3.5 1.556-4.731 3.723-5.231 6.5-1.5l1-2c.419 1.172 1.085 2.172 2 3 .283-2.102-.55-3.769-2.5-5 1.165-1.084 2.498-1.917 4-2.5-2.432-1.087-2.098-1.587 1-1.5.253-2.327-.414-4.327-2-6a7.25 7.25 0 0 1 2-2.5c-1.249-1.824-2.415-1.657-3.5.5-.469-1.608-1.135-3.275-2-5a4.59 4.59 0 0 1-2.5 2.5c.736 3.199-.097 3.365-2.5.5-.617.949-.451 1.782.5 2.5a14.72 14.72 0 0 1 5 1.5c-1.348-.05-2.848.283-4.5 1a11.53 11.53 0 0 0-4.5-3.5c1.016-.519 1.682-1.353 2-2.5-.698-1.363-.698-2.529 0-3.5-1.595.617-2.928.284-4-1 2.249-.863 4.082-.363 5.5 1.5.898-4.873 3.231-5.207 7-1 .72-1.612.554-3.112-.5-4.5 2.58-1.897 2.247-3.897-1-6l2-1c-.928-.388-1.595-1.055-2-2 .111-1.722.611-1.888 1.5-.5 2.671-2.914 4.837-2.581 6.5 1-.762.411-1.762.577-3 .5 1.134 1.016.801 1.683-1 2 .079 2.772.413 5.438 1 8l-2 1c1.694 1.728 2.861 1.228 3.5-1.5l3 3 .5-5c.925 1.141 1.759 1.141 2.5 0-.238 2.562.762 4.896 3 7 1.375-2.477 3.209-3.311 5.5-2.5l-2-3c1.654-1.827 2.488-3.66 2.5-5.5.718.951 1.551 1.117 2.5.5-.691-1.067-1.191-2.234-1.5-3.5-1.729 2.579-3.562 2.579-5.5 0-.697 1.885-1.697 2.218-3 1a33.9 33.9 0 0 0-6 3.5l3 1a28.93 28.93 0 0 0-4 1.5l-1-2.5c1.898-2.42 2.898-5.254 3-8.5 2.666-.433 5.332-.933 8-1.5a15.39 15.39 0 0 1-6-3l2-1a20.79 20.79 0 0 1-1-2.5l-4.5 3c-1.814-1.351-1.481-2.351 1-3 .359-3.044 1.026-3.378 2-1a75.95 75.95 0 0 0 7.5-3.5c-.457-.414-.791-.914-1-1.5 1.165-1.084 2.498-1.917 4-2.5-1.894-1.101-2.561-2.434-2-4l2-3c5.572-2.906 9.072-1.406 10.5 4.5 1.281-.119 2.448.381 3.5 1.5-1.884.216-3.551.883-5 2l1.5 1.5c1.621-1.157 3.455-1.99 5.5-2.5-.667-2-2-3.333-4-4 1.284-3.308 1.284-6.641 0-10-.916-.374-1.75-.874-2.5-1.5.305 1.943.305 3.943 0 6l-1-3c-.718.951-1.551 1.117-2.5.5 1.211-.893 1.211-1.726 0-2.5-1.041 2.085-2.541 3.752-4.5 5-.456-1.244.044-2.077 1.5-2.5-.916-.374-1.75-.874-2.5-1.5-3.674 2.336-6.341 5.003-8 8-.309-1.266-.809-2.433-1.5-3.5.949-.617 1.782-.451 2.5.5l3-5 1 1c.645-1.146 1.478-2.146 2.5-3-1.551-.591-3.218-.924-5-1l3-2.5c-1.052-1.716-.386-2.716 2-3-1.897-1.11-3.73-1.276-5.5-.5-.658-1.608-.158-2.775 1.5-3.5l-3-1.5c-2.398-.399-4.898-.399-7.5 0-.974-2.378-1.641-2.044-2 1-1.487-.753-1.654-1.586-.5-2.5l-5-3c4.206-.296 6.706-2.463 7.5-6.5.414.457.914.791 1.5 1 3.364-2.059 3.531-2.726.5-2-3.651-5.228-3.318-5.895 1-2-.423-1.887-.256-3.887.5-6-3.415-.261-3.415-1.428 0-3.5-6.06-.648-7.06-2.982-3-7-2.779-.149-3.279-.983-1.5-2.5 1.016 1.134 1.683.801 2-1 1.84 1.333 2.34 1.166 1.5-.5 2.406-.779 4.073.054 5 2.5l1-2c1.024 1.353 2.357 2.02 4 2-.188-1.603.312-2.937 1.5-4 .465 1.431 1.299 2.597 2.5 3.5-.951.718-1.117 1.551-.5 2.5 1.044-1.123 1.71-2.456 2-4 1.216 2.468 2.883 4.468 5 6l1.5-.5c-2.429-.451-2.596-1.285-.5-2.5 2.048.923 3.881.423 5.5-1.5l-2-1c3.626-1.052 5.459-3.552 5.5-7.5.748 2.108 2.581 3.774 5.5 5 1.211-.774 1.211-1.607 0-2.5a4.59 4.59 0 0 0 2.5-2.5c1.333 1.333 2.667 1.333 4 0l2 4c.374-.916.874-1.75 1.5-2.5-1.134-1.016-.801-1.683 1-2a8.43 8.43 0 0 0-4-.5 8.43 8.43 0 0 1 .5-4c2.687 2.805 3.687 2.471 3-1-.654 1.196-1.154 1.196-1.5 0 1.578-.572 3.078-.906 4.5-1 .635 1.466 1.469 2.8 2.5 4l-2 1c4.197.418 6.031 2.752 5.5 7l1-2c2.07-.337 4.07.329 6 2 .945-.405 1.612-1.072 2-2 2.481.522 4.814.522 7 0 .483.948.649 1.948.5 3 1.175.219 2.175-.114 3-1-.346-1.196-.846-1.196-1.5 0-.667-1-.667-2 0-3 1.494 1.247 2.994 1.247 4.5 0 .98-2.929.98-6.096 0-9.5 1.517-1.779 2.351-1.279 2.5 1.5.732-2.206.065-3.872-2-5-1.555 1.646-3.221 1.979-5 1-1.309 2.391-2.309 2.391-3 0-1.693.684-3.193 1.684-4.5 3-1.254-1.759-.921-3.259 1-4.5l-3-2.5c5.526-.612 8.192-3.279 8-8 3.381-.076 6.548.59 9.5 2 .309-1.266.809-2.433 1.5-3.5-1.104-1.131-.771-1.965 1-2.5.411.762.577 1.762.5 3 2.893.183 5.893-.151 9-1 .456 1.244-.044 2.077-1.5 2.5 2.577 1.25 5.243 1.584 8 1-1.41-.368-2.41-1.201-3-2.5.561-1.926.727-3.926.5-6 1.385 1.051 2.385 2.384 3 4 .914-1.154 1.747-.987 2.5.5-1.211.893-1.211 1.726 0 2.5a3 3 0 0 0 2-2c-.826-.951-.992-1.951-.5-3 1.667-1 3-2.333 4-4 .216 1.884.883 3.551 2 5 .414-.457.914-.791 1.5-1 2.095 2.089 3.928 2.089 5.5 0 1.705 1.263 3.372 1.597 5 1 .308.808.808 1.475 1.5 2 1.685-1.009 3.018-.509 4 1.5-1.959 1.3-3.126 3.133-3.5 5.5-2.787-2.026-4.453-4.36-5-7-.667 1.333-1.333 1.333-2 0a14.59 14.59 0 0 0-4 6c-1.243-.836-2.41-.503-3.5 1l2 6c-2.178 2.677-4.511 5.177-7 7.5a11.38 11.38 0 0 0 2 2.5c1.017-2.528 2.184-2.528 3.5 0 .667-2.667 1.333-2.667 2 0 1.632-1.394 3.132-3.561 4.5-6.5 2.455-1.641 4.955-3.141 7.5-4.5.967 2.7 2.801 4.534 5.5 5.5-1.833.5-3 1.667-3.5 3.5-3.47-1.129-4.804.205-4 4 .605-1.981 1.605-2.315 3-1 1.067-1.783 2.567-2.283 4.5-1.5-3.099 1.521-5.766 3.854-8 7 1.267 1.796 1.267 3.629 0 5.5 1.991.402 3.824 1.069 5.5 2a7.69 7.69 0 0 0 4-3c.058 3.059 1.391 5.392 4 7a3.43 3.43 0 0 0 1.5-2.5c-2.654-2.718-2.321-5.051 1-7-2.318-.342-4.485.158-6.5 1.5-.617-.949-.451-1.782.5-2.5-2.501-1.418-2.168-2.418 1-3-4-.667-4-1.333 0-2-2.267-1.081-2.434-2.581-.5-4.5 1.586.876 3.086 1.876 4.5 3 3.867-.987 3.867-.487 0 1.5.525.692 1.192 1.192 2 1.5a62.42 62.42 0 0 0 8-7.5c-1.725-.865-3.392-1.531-5-2 2.247-1.655 4.58-1.988 7-1-1.992-.574-3.492-1.741-4.5-3.5-.718.951-1.551 1.117-2.5.5 2.094-.862 3.094-2.028 3-3.5 1.502 3.874 2.169 3.541 2-1h-3a8.01 8.01 0 0 1 2-5.5c-.626-.75-1.126-1.584-1.5-2.5-.667 1.333-1.333 1.333-2 0-.324 2.069-1.158 2.402-2.5 1-2.688 1.523-2.522 2.857.5 4 .718-.951 1.551-1.117 2.5-.5-1.333.667-1.333 1.333 0 2-1.57 1.836-3.07 1.67-4.5-.5-4.246 1.752-4.079 2.586.5 2.5-2.917 1.105-5.917 2.105-9 3 1.196.654 1.196 1.154 0 1.5-1.333-2-1.333-4 0-6l1 2c.972-2.136 2.639-3.303 5-3.5-1.85-2.018-3.85-3.851-6-5.5.308-.808.808-1.475 1.5-2 .718.951 1.551 1.117 2.5.5-1.507-.837-2.007-2.004-1.5-3.5 1.857 2.131 4.023 2.631 6.5 1.5 1.333.667 1.333 1.333 0 2l1.5.5c1.722-.111 1.888-.611.5-1.5 1.333-.667 2.667-.667 4 0l-1 1c1.431.465 2.597 1.299 3.5 2.5-.383-1.938-.216-3.604.5-5 1.697.864 2.863 2.197 3.5 4l4-3c.637 1.803 1.803 3.136 3.5 4-.883 1.98-.717 3.98.5 6 .944-.763 1.444-1.763 1.5-3-1.441-6.056-.774-6.39 2-1a20.45 20.45 0 0 1 3.5-7 7.35 7.35 0 0 1 2 3c.22-3.443 1.22-3.776 3-1 .77-1.349 1.94-2.182 3.5-2.5-1.75-.08-3.41-.913-5-2.5.35-1.196.85-1.196 1.5 0l2-4 1 2c.32-1.801.98-2.134 2-1l2.5-4.5a51.78 51.78 0 0 1-4-5.5c1.14-.925 1.14-1.759 0-2.5-1.98-.684-3.65-.184-5 1.5-.06-2.691-1.73-3.524-5-2.5l2 1c-3.58.595-3.92 1.929-1 4-.89 2.216-.89 4.716 0 7.5.59.209 1.09.543 1.5 1 2.41-2.667 3.58-2.501 3.5.5-3.39.394-5.56 2.227-6.5 5.5a3.43 3.43 0 0 1-1.5-2.5c.84-2.793 1.17-5.793 1-9-1.22-2.706-2.22-5.372-3-8l2-2c-4.352-.419-4.685-1.086-1-2-.951-.718-1.117-1.551-.5-2.5.67 1.333 1.33 1.333 2 0 .92 1.259 1.76 2.592 2.5 4 6.82 1.188 7.49-.312 2-4.5 3.3.937 5.8-.23 7.5-3.5a20.45 20.45 0 0 1 5.5 3c-.83.951-.99 1.951-.5 3l2.5-3a30.89 30.89 0 0 0 2 2z" fill="#006ae5"/><path d="M765.5 295.5h23v92c-.998-30.162-1.331-60.495-1-91-7.519.325-14.852-.008-22-1z" fill="#05123e"/><path d="M234.5 295.5h23c-7.148.992-14.481 1.325-22 1 .331 30.505-.002 60.838-1 91v-92z" fill="#051443"/><use href="#B" x="207" y="46" fill="#2a78d4"/><path d="M234.5 295.5v92h-23v24c-.993-8.15-1.326-16.483-1-25 7.696.331 15.362-.003 23-1-27.968-1.331-27.968-1.998 0-2-.331-29.505.002-58.838 1-88z" fill="#2576d8"/><path d="M581.5 342.5v-1h23v47h-23c7.148-.992 14.481-1.325 22-1v-45h-22z" fill="#885347"/><path d="M419.5 385.5v1h-45v-20h21a180.87 180.87 0 0 0 .5 19c7.833-1.318 15.666-1.318 23.5 0z" fill="#cc774e"/><path d="M418.5 295.5v1c.998 29.495 1.331 59.162 1 89-7.834-1.318-15.667-1.318-23.5 0a180.87 180.87 0 0 1-.5-19h-21v20h45v1h-46v-22h22v-70h23z" fill="#e79667"/><path d="M418.5 296.5v45h-20c.331 8.36-.002 16.693-1 25a1225.68 1225.68 0 0 1-1-70h22z" fill="#d07a50"/><path d="M581.5 342.5h22v45c-7.519-.325-14.852.008-22 1h-23c7.148-.992 14.481-1.325 22-1-.329-14.843.004-29.51 1-44v-1z" fill="#e9a06d"/><path d="m581.5 343.5h21v43h-21v-43z" fill="#cb774f"/><path d="M373.5 365.5v22h46c7.852-.325 15.518.008 23 1h-70c-.325-7.852.008-15.518 1-23z" fill="#be9186"/><path d="M607.5 388.5h43v22h-68v-21c8.517.326 16.85-.007 25-1z" fill="#282145"/><path d="m442.5 388.5h24v23h-24v-23z" fill="#ab6046"/><path d="M558.5 388.5h23v23c-.829-7.155-1.329-14.489-1.5-22a242.43 242.43 0 0 0-.5 22h-21v-23z" fill="#a85d43"/><path d="m372.5 389.5h69v21h-69v-21z" fill="#282146"/><path d="M812.5 387.5c1.333 18.655 2 37.655 2 57l-1 57a3250.18 3250.18 0 0 1-1-114z" fill="#0070f9"/><path d="M441.5 411.5c-22.16.997-44.494 1.331-67 1v22h-2v-23h69z" fill="#d49477"/><path d="M651.5 411.5l2 3c.886-.825 1.219-1.825 1-3h19v21a264.95 264.95 0 0 1-23-.5c.979-6.744 1.312-13.578 1-20.5z" fill="#282246"/><path d="M372.5 434.5h2 68v22h-69c-.991-6.479-1.324-13.146-1-20h-22v21h-1v-23h23z" fill="#fdc983"/><path d="m673.5 434.5h23v23h-22v23h-1v-23-22-1z" fill="#cb7852"/><path d="M673.5 435.5v22h-23-1c.964-7.246 1.297-14.58 1-22h23z" fill="#e89665"/><path d="M809.5 390.5a3053.13 3053.13 0 0 0-1 110c-6.368.33-12.702-.004-19-1l18-2-18-2c.974-11.767 1.974-11.767 3 0h10v-101c1.175-.219 2.175.114 3 1-1.3 33.08-1.3 66.413 0 100 1-34.327 1.333-68.66 1-103-1.929.269-3.595-.231-5-1.5a32.46 32.46 0 0 1 8-.5z" fill="#23192c"/><path d="M373.5 456.5v1a66.64 66.64 0 0 0 0 23v23h-24v-23h22v-23h-21v-21h22c-.324 6.854.009 13.521 1 20z" fill="#e89564"/><path d="M442.5 434.5c.992 7.148 1.325 14.481 1 22 7.519-.325 14.852.008 22 1h-22c.325 7.852-.008 15.518-1 23v-23h-69v-1h69v-22z" fill="#e6af7f"/><path d="m650.5 457.5h23v23h-23v-23z" fill="#a95f45"/><path d="M489.5 411.5l1 160c22.506-.331 44.84.003 67 1h-22-46v-161z" fill="#feda95"/><path d="M326.5 457.5h23 1 21v23h-22-23v-23z" fill="#d38054"/><path d="m649.5 457.5h1v23h-70v-23h69z" fill="#190e1b"/><path d="m256.5 458.5v1h-21v44h-1v-45h22z" fill="#fab893"/><path d="M373.5 457.5h69v23h-69a66.64 66.64 0 0 1 0-23z" fill="#19101c"/><path d="m418.5 458.5h23v21h-23v-21z" fill="#272145"/><path d="m374.5 458.5h22v21h-22v-21z" fill="#282146"/><path d="m581.5 458.5h68v21h-22v-19h-23v19h-23v-21z" fill="#262047"/><path d="M809.5 388.5a3248.03 3248.03 0 0 1 1 114c-7.187-.325-14.187.009-21 1h-1v-45h-23c7.816-.992 15.816-1.326 24-1v38l18 2-18 2c6.298.996 12.632 1.33 19 1a3053.13 3053.13 0 0 1 1-110v-2z" fill="#31100f"/><path d="M212.5 435.5c1.332 10.145 1.999 20.645 2 31.5a544.45 544.45 0 0 1-1 32.5l19 2c-6.634.997-13.3 1.33-20 1v-67z" fill="#39120e"/><path d="M326.5 457.5v23h-23c7.148-.992 14.481-1.325 22-1-.325-7.519.008-14.852 1-22z" fill="#702c0f"/><path d="M765.5 458.5h23v45h-1v-15-29h-20c-.997 21.494-1.331 43.16-1 65 6.19-.323 12.19.01 18 1h-19v-67z" fill="#eba584"/><path d="M256.5 458.5c.997 22.494 1.331 45.161 1 68h-22-1v-23h1v22h21v-66-1z" fill="#a06651"/><path d="M581.5 411.5h68v22h-69v23h-23v46h-23v-91h24 21a242.43 242.43 0 0 1 .5-22c.171 7.511.671 14.845 1.5 22z" fill="#e79464"/><path d="M767.5 459.5v63h18c-.182-7.825-1.015-15.492-2.5-23a6.8 6.8 0 0 0 1.5 3c.956-1.365 1.622-2.865 2-4.5l-2-18c-.35-2.795.15-5.628 1.5-8.5.173 5.848.673 11.515 1.5 17v15 22h-3c-5.81-.99-11.81-1.323-18-1-.331-21.84.003-43.506 1-65z" fill="#dc7b47"/><path d="m256.5 459.5v66h-21v-22-44h21z" fill="#d68256"/><path d="M767.5 459.5h20v29c-.827-5.485-1.327-11.152-1.5-17-1.35 2.872-1.85 5.705-1.5 8.5l2 18c-.378 1.635-1.044 3.135-2 4.5a6.8 6.8 0 0 1-1.5-3c1.485 7.508 2.318 15.175 2.5 23h-18v-63z" fill="#d17d53"/><path d="M788.5 387.5h23v116h-22c6.813-.991 13.813-1.325 21-1a3248.03 3248.03 0 0 0-1-114c-7.187.325-14.187-.009-21-1z" fill="#110e24"/><path d="M719.5 457.5c.998 37.496 1.332 75.163 1 113a98.26 98.26 0 0 1 19.5 1c.169-15.172.669-30.172 1.5-45v46h-22v-115z" fill="#0c030f"/><path d="M441.5 411.5h1 24 23v161h46v1h-46-23v22c-.829-7.155-1.329-14.489-1.5-22a242.43 242.43 0 0 0-.5 22h-21v-46h22v-92c-7.148-.992-14.481-1.325-22-1 .325-7.519-.008-14.852-1-22h-68v-22c22.506.331 44.84-.003 67-1z" fill="#e79564"/><path d="m787.5 503.5h1v23h-1-22v-1h19 3v-22z" fill="#a57771"/><path d="M235.5 526.5h22v47c-7.519.325-14.852-.008-22-1 6.675.166 13.342 0 20-.5-5.657-.499-11.324-.666-17-.5a484.86 484.86 0 0 0-1-44l-2 43v-44z" fill="#261521"/><path d="M765.5 525.5v1h-23v45c0 .667-.333 1-1 1v-46c7.816-.992 15.816-1.326 24-1z" fill="#3e1108"/><path d="M257.5 526.5h23v46c-.996-14.824-1.329-29.824-1-45h-21v67c15.176-.329 30.176.004 45 1h-22-1-23v-22-47z" fill="#f5b893"/><path d="M765.5 526.5h22v46h-20a1012.17 1012.17 0 0 0-.5-45c-.5 15.33-.667 30.663-.5 46h-1v-47z" fill="#291620"/><path d="M787.5 526.5h1v47h-22c-.167-15.337 0-30.67.5-46a1012.17 1012.17 0 0 1 .5 45h20v-46z" fill="#11193f"/><path d="M235.5 572.5v-2l2-43a484.86 484.86 0 0 1 1 44c5.676-.166 11.343.001 17 .5-6.658.5-13.325.666-20 .5z" fill="#351515"/><path d="M280.5 526.5l2 45h21c-7.482.992-15.148 1.325-23 1v-46z" fill="#58291d"/><path d="M489.5 573.5h46v22h-46v-22z" fill="#a75d45"/><path d="M696.5 457.5h23v115h22c-7.148.992-14.481 1.325-22 1v18h45v-64h-21c.329 14.843-.004 29.51-1 44v-45h23v47 22h-23-23v44c-.991-6.813-1.325-13.813-1-21h-22v-138h-22v-23h22z" fill="#e89565"/><path d="M741.5 572.5c.667 0 1-.333 1-1 .996-14.49 1.329-29.157 1-44h21v64h-45v-18c7.519.325 14.852-.008 22-1z" fill="#d17c52"/><path d="m489.5 573.5v22h-23v-22h23z" fill="#1c1221"/><path d="m535.5 573.5h21v22h-21v-22z" fill="#1d1321"/><path d="M535.5 573.5v-1h22c.325 7.852-.008 15.518-1 23v-22h-21z" fill="#7b5541"/><path d="M234.5 526.5h1v44 2c7.148.992 14.481 1.325 22 1v22c-.991-6.813-1.325-13.813-1-21h-22v-48z" fill="#1c4087"/><path d="M719.5 592.5a507.13 507.13 0 0 1 45 1l-22.5 1c-7.864-.003-15.364-.669-22.5-2z" fill="#e37b3d"/><path d="M281.5 595.5h22v23 21h-20c.167-13.337 0-26.671-.5-40a840.27 840.27 0 0 0-.5 41h21v1h-22v-46z" fill="#261522"/><path d="M742.5 595.5h23c-7.148.992-14.481 1.325-22 1 .329 15.176-.004 30.176-1 45v-46z" fill="#2772d3"/><path d="m742.5 595.5v46h-23v-2-44h23z" fill="#281623"/><path d="M558.5 641.5c-.992 7.148-1.325 14.481-1 22-.992-7.148-1.325-14.481-1-22h-90v-1h-1v-22h92a139.2 139.2 0 0 0 1 23z" fill="#f2ae71"/><path d="M303.5 618.5c.829 7.489 1.329 15.156 1.5 23a264.95 264.95 0 0 0 .5-23h21v45h-23v-21-1-1-1-21z" fill="#ca734f"/><path d="m280.5 595.5h1v46h22v1h-23v-47z" fill="#03327c"/><path d="m466.5 640.5v-21h90v21h-90z" fill="#e79463"/><path d="M303.5 639.5v1h-21a840.27 840.27 0 0 1 .5-41c.5 13.329.667 26.663.5 40h20z" fill="#42130c"/><path d="M696.5 618.5h22c-.325 7.187.009 14.187 1 21v2 24h-1-22v-47z" fill="#ca764f"/><path d="M303.5 481.5h23v68h23v116h-21v45c7.187-.325 14.187.009 21 1h-22v-1-45h-24v-2h23v-45h-21a264.95 264.95 0 0 1-.5 23c-.171-7.844-.671-15.511-1.5-23v-23c-14.824-.996-29.824-1.329-45-1v-67h21c-.329 15.176.004 30.176 1 45 7.852.325 15.518-.008 23-1v-22-68z" fill="#e79464"/><path d="M260.5 567.5c2.21.955 2.543 2.455 1 4.5 2.485 1.629 4.651 1.129 6.5-1.5 1.312 2.158 2.978 2.491 5 1 1.487.753 1.654 1.586.5 2.5 2.667.667 2.667 1.333 0 2 3.686.914 5.186 3.081 4.5 6.5a20.79 20.79 0 0 1 2.5-1c-1.402-1.342-1.069-2.176 1-2.5v-5a242.43 242.43 0 0 1 22-.5v19h-43v-25z" fill="#da875a"/><path d="m303.5 549.5v22h-21v-22h21z" fill="#262043"/><path d="M466.5 641.5h90c-.325 7.519.008 14.852 1 22v1c-45.681.436-76.014.103-91-1v-22z" fill="#fed791"/><path d="m467.5 642.5h88v21h-88v-21z" fill="#fec880"/><path d="M558.5 641.5h45v47h-22c.326-8.184-.008-16.184-1-24h-1-22v-1c-.325-7.519.008-14.852 1-22z" fill="#e79464"/><path d="M557.5 665.5v22 1h-91v-22a2093.98 2093.98 0 0 1 91-1z" fill="#d46658"/><path d="M465.5 640.5h1v1 22c14.986 1.103 45.319 1.436 91 1v1a2093.98 2093.98 0 0 0-91 1c0-.667-.333-1-1-1h-22v23c-.829-7.489-1.329-15.156-1.5-23a264.95 264.95 0 0 0-.5 23h-22v-47c15.509.33 30.842-.004 46-1z" fill="#e59362"/><path d="M303.5 666.5v-1h24v45a121.86 121.86 0 0 1-22-1c26.634-1.661 26.634-2.661 0-3v-38c6.7.33 13.366-.003 20-1a121.86 121.86 0 0 0-22-1z" fill="#2b1823"/><path d="m349.5 665.5h23v23h-23v-23z" fill="#e79464"/><path d="M465.5 665.5v1h-21c-.628 7.413.039 14.413 2 21v1h-3v-23h22z" fill="#09000c"/><path d="m465.5 666.5v21h-19c-1.961-6.587-2.628-13.587-2-21h21z" fill="#262146"/><path d="M695.5 665.5h1v46h-23c7.148-.992 14.481-1.325 22-1v-45z" fill="#dea68d"/><path d="M557.5 664.5h22c.325 7.852-.008 15.518-1 23v-22h-20v22h-1v-22-1z" fill="#190214"/><path d="m578.5 687.5h-20v-22h20v22z" fill="#262045"/><path d="M465.5 665.5c.667 0 1 .333 1 1v22h-20v-1h19v-21-1z" fill="#4f180c"/><path d="M579.5 664.5h1v24h-23v-1h1 20c.992-7.482 1.325-15.148 1-23z" fill="#501e0d"/><path d="M303.5 666.5a121.86 121.86 0 0 1 22 1c-6.634.997-13.3 1.33-20 1v38c26.634.339 26.634 1.339 0 3a121.86 121.86 0 0 0 22 1v1h-24v-45z" fill="#1b1930"/><path d="M696.5 665.5h22v43c-7.032-.33-14.032.003-21 1a121.86 121.86 0 0 0 22 1c-7.482.992-15.148 1.325-23 1v-46z" fill="#261623"/><path d="M695.5 665.5v45c-7.519-.325-14.852.008-22 1v23h-2-21v-47h23v-22h22z" fill="#e89665"/><path d="M718.5 665.5h1v45a121.86 121.86 0 0 1-22-1c6.968-.997 13.968-1.33 21-1v-43z" fill="#350a09"/><path d="M349.5 665.5v23h23v23 21h-21c.325-7.187-.009-14.187-1-21h-1c-6.813-.991-13.813-1.325-21-1v-45h21z" fill="#ca754f"/><path d="m673.5 711.5h23v24h-23v-1-23z" fill="#251624"/><path d="m489.5 710.5h45v24h-45v-24z" fill="#e79463"/><path d="M349.5 711.5h1v22h23v24c-.992-7.482-1.325-15.148-1-23h-23v-23z" fill="#8d5a4e"/><path d="M650.5 734.5h21l.5 93 1.5-92v1 91h46v1c-61.333.667-61.333 1.333 0 2v17 2h-23v47h-22-1v-46c.831 14.828 1.331 29.828 1.5 45 .667-15.333.667-30.667 0-46-.383-.556-.883-.889-1.5-1-6.145-.99-12.478-1.323-19-1a821.29 821.29 0 0 0-2-67l-2 68v-45-23h-23v-23h23v-23z" fill="#291723"/><path d="m627.5 734.5h22v22h-22v-22z" fill="#e79463"/><path d="M671.5 734.5h2v1l-1.5 92-.5-93z" fill="#4a1000"/><path d="M350.5 711.5c.991 6.813 1.325 13.813 1 21h21v-21h23v23h24v23h23a139.2 139.2 0 0 0 1 23h-23v22h46v1h-47c.325-7.852-.008-15.518-1-23h-22v-23h-23v-24h-23v-22z" fill="#e89566"/><path d="m395.5 734.5v22h-21v-22h21z" fill="#cc774e"/><path d="m627.5 757.5v23h-23v-23h23z" fill="#e79666"/><path d="m419.5 757.5v22h-22v-22h22z" fill="#ca7650"/><path d="M327.5 735.5h22v92h-46c14.824-.996 29.824-1.329 45-1v-90c-7.187.325-14.187-.009-21-1z" fill="#1c7bea"/><path d="M673.5 736.5a2026.42 2026.42 0 0 1 1 90c15.176-.329 30.176.004 45 1h-46v-91z" fill="#1360c5"/><path d="m604.5 780.5h23v23h-23v-23z" fill="#241521"/><path d="m396.5 780.5h22v23h-22v-23z" fill="#241622"/><path d="m443.5 780.5h23v22h-46v-22h23z" fill="#cb7550"/><path d="m466.5 780.5h136v22h-136v-22z" fill="#e79463"/><path d="M373.5 780.5h22v23c-.992-7.148-1.325-14.481-1-22h-20c.331 22.839-.003 45.506-1 68v-69z" fill="#eb9c77"/><path d="m602.5 780.5h1v23h-137v-1h136v-22z" fill="#fdcca4"/><path d="M418.5 780.5c.992 7.482 1.325 15.148 1 23h47 137v1h-185v-1-23z" fill="#411f1e"/><path d="M603.5 780.5h1v23h23c-7.482.992-15.148 1.325-23 1 .325 7.519-.008 14.852-1 22v-22-1-23z" fill="#a0664c"/><path d="M327.5 711.5h22v23h23c-.325 7.852.008 15.518 1 23h23v23 23h-1v-23h-22c-.998 22.827-1.331 45.827-1 69h-23v47c-7.246-.964-14.58-1.297-22-1 .167-14.67 0-29.337-.5-44-7.747-.982-15.58-1.315-23.5-1v-1-19c15.703.651 31.036-.016 46-2 1.333-31 1.333-62 0-93h-22v-24z" fill="#291723"/><path d="m349.5 735.5c1.333 31 1.333 62 0 93h-46v-1h46v-92z" fill="#0a0c2e"/><path d="M652.5 780.5v68h21c.617.111 1.117.444 1.5 1 .667 15.333.667 30.667 0 46-.169-15.172-.669-30.172-1.5-45h-23v-2l2-68z" fill="#190d0c"/><path d="M395.5 803.5h1 22v1 22h161l-161 2c.763.768 1.763 1.268 3 1.5l158 .5v19h-136v25h-24v22h-24v21h-21c.166-7.008 0-14.008-.5-21a242.43 242.43 0 0 0-.5 22c-.991-6.813-1.325-13.813-1-21-7.148-.992-14.481-1.325-22-1v-46c7.852.325 15.518-.008 23-1 .997-22.494 1.331-45.161 1-68h20c-.325 7.519.008 14.852 1 22z" fill="#c97651"/><path d="M652.5 780.5a821.29 821.29 0 0 1 2 67c6.522-.323 12.855.01 19 1h-21v-68z" fill="#241e3a"/><path d="m418.5 804.5h185v22h-24-161v-22z" fill="#080006"/><path d="m420.5 805.5h182v20h-182v-20z" fill="#291825"/><path d="m303.5 828.5h46c-14.964 1.984-30.297 2.651-46 2v-2z" fill="#3c110e"/><path d="M418.5 828.5c54.01-.662 107.68.004 161 2-52.668.167-105.33 0-158-.5-1.237-.232-2.237-.732-3-1.5z" fill="#d37043"/><path d="M719.5 828.5v2c-61.333-.667-61.333-1.333 0-2z" fill="#3b1311"/><path d="M235.5 850.5a242.43 242.43 0 0 0 .5 22c.414.457.914.791 1.5 1 1.331-29.303 1.998-29.303 2 0h64v-23c7.92-.315 15.753.018 23.5 1 .5 14.663.667 29.33.5 44 7.42-.297 14.754.036 22 1v1 22c7.92-.315 15.753.018 23.5 1-.43 7.582-.597 15.249-.5 23-15.285-.969-30.619-1.302-46-1v23h-68v24h-23v21h-23v13h-189v-58h-22v58h-2v-59h24v-22c8.184.326 16.184-.008 24-1v-22h46 1 71v-22-1-23h69c-.325-7.852.008-15.518 1-23z" fill="#272245"/><path d="M649.5 803.5h1v45 2c7.148.992 14.481 1.325 22 1v44c-7.187-.325-14.187.009-21 1h-1c-.991 6.813-1.325 13.813-1 21-7.519-.325-14.852.008-22 1v1 22h-1a242.43 242.43 0 0 0-.5-22c-.5 6.992-.666 13.992-.5 21-15.176-.329-30.176.004-45 1-.992 7.148-1.325 14.481-1 22h-68v-67h23v-23h70v-23h45v-47z" fill="#fec881"/><path d="M373.5 780.5v69c-7.482.992-15.148 1.325-23 1v46c7.519-.325 14.852.008 22 1h-23v-1-47h23c-.331-23.173.002-46.173 1-69z" fill="#9c6250"/><path d="M303.5 849.5v1 23h-64c-.002-29.303-.669-29.303-2 0-.586-.209-1.086-.543-1.5-1a242.43 242.43 0 0 1-.5-22c22.494-.997 45.161-1.331 68-1z" fill="#291826"/><path d="m788.5 850.5v23h-69v-23h69z" fill="#291623"/><path d="M650.5 850.5h23v46h-22c6.813-.991 13.813-1.325 21-1v-44c-7.519.325-14.852-.008-22-1z" fill="#fbf3c6"/><path d="M719.5 847.5c23.258.989 46.592 1.323 70 1v24l67-.5c-21.526-1.157-43.193-1.99-65-2.5 22.486-.356 44.819-1.356 67-3 .322 1.409 1.322 2.909 3 4.5h-4c.982 8.081 1.316 16.248 1 24.5 23.173-.331 46.173.002 69 1h-70v-23h-69v-23c-22.827-.998-45.827-1.331-69-1v-2z" fill="#176edb"/><path d="M788.5 874.5c90.667.667 90.667 1.333 0 2v-2z" fill="#391213"/><path d="M788.5 874.5v-1h69v23h70v1h-70-69v-21c90.667-.667 90.667-1.333 0-2z" fill="#1c1835"/><path d="m789.5 878.5h67v18h-67v-18z" fill="#2a1723"/><path d="M166.5 874.5a1156.67 1156.67 0 0 1 68 1l-67 2a1156.67 1156.67 0 0 0 68 1v19a2311.03 2311.03 0 0 1-68-.5c-.981-7.413-1.314-14.913-1-22.5z" fill="#2b1622"/><path d="m165.5 896.5v1h-71v22h-1v-23h72z" fill="#05235d"/><path d="m165.5 897.5v22h-71v-22h71z" fill="#291724"/><path d="M651.5 896.5h22 1a139.2 139.2 0 0 0-1 23h-22v-23z" fill="#281623"/><path d="m857.5 897.5h70v22h-70v-22z" fill="#2a1623"/><path d="M650.5 896.5v22h-23c7.148-.992 14.481-1.325 22-1-.325-7.187.009-14.187 1-21z" fill="#fef8c6"/><path d="m650.5 896.5h1v23h-24v-1h23v-22z" fill="#684228"/><path d="M49.5 920.5a484.86 484.86 0 0 1 44 1l-22 1c-7.698-.003-15.032-.669-22-2z" fill="#361414"/><path d="M927.5 920.5c15.703-.651 31.036.016 46 2h-46v-2z" fill="#371414"/><path d="M627.5 919.5h24c.314 7.587-.019 15.087-1 22.5a264.95 264.95 0 0 1-23 .5v-1-22z" fill="#271624"/><path d="M49.5 924.5a484.86 484.86 0 0 1 44 1 351.98 351.98 0 0 0 0 16 398.97 398.97 0 0 1-38.5-1c-1.812-.007-3.312.66-4.5 2a81.87 81.87 0 0 1-1-18z" fill="#291724"/><path d="m927.5 922.5h46v19h-46v-19z" fill="#2a1723"/><path d="M627.5 780.5h23v23h-1v47h-45v23h-70v23h-23v67h-67c.325-7.187-.009-14.187-1-21-15.825-.996-31.825-1.33-48-1v-23h-22a242.43 242.43 0 0 1 .5-22c.5 6.992.666 13.992.5 21h21v-21h24v-22h24v-25h136v-19c-53.323-1.996-106.99-2.662-161-2l161-2h24c.992-7.148 1.325-14.481 1-22 7.852.325 15.518-.008 23-1v-23z" fill="#e89565"/><path d="m649.5 803.5h-21v-21h21v21z" fill="#cc784f"/><path d="M626.5 941.5h-46c14.824-.996 29.824-1.329 45-1-.166-7.008 0-14.008.5-21a242.43 242.43 0 0 1 .5 22z" fill="#fef2b3"/><path d="M349.5 897.5h23c-.325 7.187.009 14.187 1 21h22v23c15.491.996 31.158 1.33 47 1v23h-47v-22h-23c-.097-7.751.07-15.418.5-23-7.747-.982-15.58-1.315-23.5-1v-22z" fill="#291725"/><path d="M47.5 941.5c-7.816.992-15.816 1.326-24 1v22h-24v-1h23v-22h25z" fill="#2570cf"/><path d="m24.5 943.5h23v22h-23v-22z" fill="#2a1521"/><path d="M580.5 941.5v23h-69v-1h68c-.325-7.519.008-14.852 1-22z" fill="#fdf7cb"/><path d="M395.5 941.5c16.175-.33 32.175.004 48 1v22h68 69l-138 1v-23c-15.842.33-31.509-.004-47-1z" fill="#80503b"/><path d="m1023.5 965.5v58h-24v-58h24z" fill="#291724"/><path d="M580.5 941.5h46 1v1 23h-46v22h-138c.264-7.39-.07-14.723-1-22l138-1v-23z" fill="#281724"/><path d="m23.5 1023.5h-22v-58h22v58z" fill="#291724"/><path d="M927.5 920.5v-1h47v22h24v23h25v1h-24v58h-1v-58h-25c.311-7.514.311-15.181 0-23-15.509.33-30.842-.004-46-1h46v-19c-14.964-1.984-30.297-2.651-46-2z" fill="#1f1836"/><path d="M974.5 943.5c7.482-.992 15.148-1.325 23-1v22h-22c.325-7.187-.009-14.187-1-21z" fill="#291622"/><path d="M719.5 849.5c23.173-.331 46.173.002 69 1h-69v23h69v1 2 21h69v22h70v1 2 19c15.158.996 30.491 1.33 46 1 .311 7.819.311 15.486 0 23h25v58h-786v-13h23v-21h23v-24h68v-23c15.381-.302 30.715.031 46 1h23v22h47c.93 7.277 1.264 14.61 1 22h138v-22h46v-23a264.95 264.95 0 0 0 23-.5c.981-7.413 1.314-14.913 1-22.5h22a139.2 139.2 0 0 1 1-23h22v-47h23z" fill="#2b2a57"/><path d="M443.5 942.5c.991 6.813 1.325 13.813 1 21h67v1h-68v-22z" fill="#fec290"/><defs ><path id="B" d="M581.5 249.5c.998 30.162 1.331 60.495 1 91 7.519-.325 14.852.008 22 1h-23v-92z"/></defs></svg>