<?xml version="1.0" encoding="UTF-8"?>
<!DOCTYPE svg PUBLIC "-//W3C//DTD SVG 1.1//EN" "http://www.w3.org/Graphics/SVG/1.1/DTD/svg11.dtd">
<svg xmlns="http://www.w3.org/2000/svg" version="1.1" width="1024px" height="1536px" style="shape-rendering:geometricPrecision; text-rendering:geometricPrecision; image-rendering:optimizeQuality; fill-rule:evenodd; clip-rule:evenodd" xmlns:xlink="http://www.w3.org/1999/xlink">
<g><path style="opacity:1" fill="#262529" d="M -0.5,-0.5 C 340.833,-0.5 682.167,-0.5 1023.5,-0.5C 1023.5,371.833 1023.5,744.167 1023.5,1116.5C 1021.5,1116.5 1019.5,1116.5 1017.5,1116.5C 1017.5,1103.5 1017.5,1090.5 1017.5,1077.5C 1010.83,1077.5 1004.17,1077.5 997.5,1077.5C 997.5,1071.5 997.5,1065.5 997.5,1059.5C 991.491,1059.67 985.491,1059.5 979.5,1059C 978.874,1058.25 978.374,1057.42 978,1056.5C 977.501,1050.84 977.334,1045.18 977.5,1039.5C 971.242,1039.81 965.076,1039.48 959,1038.5C 958.5,1032.18 958.334,1025.84 958.5,1019.5C 945.833,1019.5 933.167,1019.5 920.5,1019.5C 920.5,1012.83 920.5,1006.17 920.5,999.5C 907.5,999.5 894.5,999.5 881.5,999.5C 881.5,993.167 881.5,986.833 881.5,980.5C 861.833,980.5 842.167,980.5 822.5,980.5C 822.5,974.167 822.5,967.833 822.5,961.5C 803.167,961.5 783.833,961.5 764.5,961.5C 765.46,954.922 765.793,948.255 765.5,941.5C 751.833,941.5 738.167,941.5 724.5,941.5C 724.5,935.167 724.5,928.833 724.5,922.5C 717.833,922.5 711.167,922.5 704.5,922.5C 704.5,916.167 704.5,909.833 704.5,903.5C 711.167,903.5 717.833,903.5 724.5,903.5C 724.5,890.5 724.5,877.5 724.5,864.5C 731.5,864.5 738.5,864.5 745.5,864.5C 745.5,851.5 745.5,838.5 745.5,825.5C 751.833,825.5 758.167,825.5 764.5,825.5C 764.5,792.833 764.5,760.167 764.5,727.5C 770.833,727.5 777.167,727.5 783.5,727.5C 783.5,721.167 783.5,714.833 783.5,708.5C 790.167,708.5 796.833,708.5 803.5,708.5C 803.5,701.833 803.5,695.167 803.5,688.5C 810.5,688.5 817.5,688.5 824.5,688.5C 824.5,656.167 824.5,623.833 824.5,591.5C 817.492,591.666 810.492,591.5 803.5,591C 802.522,584.59 802.189,578.09 802.5,571.5C 796.167,571.5 789.833,571.5 783.5,571.5C 783.5,499.5 783.5,427.5 783.5,355.5C 777.167,355.5 770.833,355.5 764.5,355.5C 764.5,342.5 764.5,329.5 764.5,316.5C 757.833,316.5 751.167,316.5 744.5,316.5C 744.5,310.167 744.5,303.833 744.5,297.5C 737.833,297.5 731.167,297.5 724.5,297.5C 724.5,290.833 724.5,284.167 724.5,277.5C 705.167,277.5 685.833,277.5 666.5,277.5C 666.5,270.833 666.5,264.167 666.5,257.5C 620.167,257.5 573.833,257.5 527.5,257.5C 527.5,251.5 527.5,245.5 527.5,239.5C 495.162,239.505 462.829,239.172 430.5,238.5C 430.5,244.833 430.5,251.167 430.5,257.5C 411.167,257.5 391.833,257.5 372.5,257.5C 372.5,264.167 372.5,270.833 372.5,277.5C 366.242,277.19 360.076,277.524 354,278.5C 353.5,284.825 353.334,291.158 353.5,297.5C 346.833,297.5 340.167,297.5 333.5,297.5C 333.5,304.167 333.5,310.833 333.5,317.5C 326.5,317.5 319.5,317.5 312.5,317.5C 312.5,323.833 312.5,330.167 312.5,336.5C 306.5,336.5 300.5,336.5 294.5,336.5C 294.5,362.167 294.5,387.833 294.5,413.5C 287.5,413.5 280.5,413.5 273.5,413.5C 273.5,466.167 273.5,518.833 273.5,571.5C 266.833,571.5 260.167,571.5 253.5,571.5C 253.5,578.167 253.5,584.833 253.5,591.5C 246.5,591.5 239.5,591.5 232.5,591.5C 232.5,623.833 232.5,656.167 232.5,688.5C 239.5,688.5 246.5,688.5 253.5,688.5C 253.5,695.167 253.5,701.833 253.5,708.5C 259.833,708.5 266.167,708.5 272.5,708.5C 272.5,714.833 272.5,721.167 272.5,727.5C 279.167,727.5 285.833,727.5 292.5,727.5C 292.5,760.167 292.5,792.833 292.5,825.5C 299.167,825.5 305.833,825.5 312.5,825.5C 312.5,838.5 312.5,851.5 312.5,864.5C 318.833,864.5 325.167,864.5 331.5,864.5C 331.5,877.5 331.5,890.5 331.5,903.5C 338.5,903.5 345.5,903.5 352.5,903.5C 352.5,909.833 352.5,916.167 352.5,922.5C 345.833,922.5 339.167,922.5 332.5,922.5C 332.5,928.833 332.5,935.167 332.5,941.5C 319.167,941.5 305.833,941.5 292.5,941.5C 292.5,948.167 292.5,954.833 292.5,961.5C 272.833,961.5 253.167,961.5 233.5,961.5C 233.5,967.833 233.5,974.167 233.5,980.5C 214.167,980.5 194.833,980.5 175.5,980.5C 175.5,986.833 175.5,993.167 175.5,999.5C 162.167,999.5 148.833,999.5 135.5,999.5C 135.5,1006.17 135.5,1012.83 135.5,1019.5C 123.167,1019.5 110.833,1019.5 98.5,1019.5C 98.5,1026.17 98.5,1032.83 98.5,1039.5C 91.8333,1039.5 85.1667,1039.5 78.5,1039.5C 78.5,1045.83 78.5,1052.17 78.5,1058.5C 71.8333,1058.5 65.1667,1058.5 58.5,1058.5C 58.5,1064.83 58.5,1071.17 58.5,1077.5C 52.1667,1077.5 45.8333,1077.5 39.5,1077.5C 39.5,1090.5 39.5,1103.5 39.5,1116.5C 32.8333,1116.5 26.1667,1116.5 19.5,1116.5C 19.5,1143.83 19.5,1171.17 19.5,1198.5C 12.8333,1198.5 6.16667,1198.5 -0.5,1198.5C -0.5,798.833 -0.5,399.167 -0.5,-0.5 Z"/></g>
<g><path style="opacity:1" fill="#020101" d="M 764.5,961.5 C 757.833,961.5 751.167,961.5 744.5,961.5C 737.833,961.5 731.167,961.5 724.5,961.5C 724.5,955.167 724.5,948.833 724.5,942.5C 717.833,942.5 711.167,942.5 704.5,942.5C 704.5,955.5 704.5,968.5 704.5,981.5C 698.167,981.5 691.833,981.5 685.5,981.5C 685.5,987.5 685.5,993.5 685.5,999.5C 679.355,1000.49 673.022,1000.82 666.5,1000.5C 666.5,1006.83 666.5,1013.17 666.5,1019.5C 659.833,1019.5 653.167,1019.5 646.5,1019.5C 646.5,1013.17 646.5,1006.83 646.5,1000.5C 652.833,1000.5 659.167,1000.5 665.5,1000.5C 665.5,993.833 665.5,987.167 665.5,980.5C 652.5,980.5 639.5,980.5 626.5,980.5C 626.5,987.167 626.5,993.833 626.5,1000.5C 561.167,1000.5 495.833,1000.5 430.5,1000.5C 430.811,993.91 430.478,987.41 429.5,981C 417.171,980.5 404.838,980.333 392.5,980.5C 392.5,987.167 392.5,993.833 392.5,1000.5C 398.5,1000.5 404.5,1000.5 410.5,1000.5C 410.5,1006.83 410.5,1013.17 410.5,1019.5C 404.167,1019.5 397.833,1019.5 391.5,1019.5C 391.5,1013.5 391.5,1007.5 391.5,1001.5C 385.167,1001.5 378.833,1001.5 372.5,1001.5C 372.5,994.833 372.5,988.167 372.5,981.5C 366.167,981.5 359.833,981.5 353.5,981.5C 353.5,968.5 353.5,955.5 353.5,942.5C 346.5,942.5 339.5,942.5 332.5,942.5C 332.5,948.833 332.5,955.167 332.5,961.5C 325.833,961.5 319.167,961.5 312.5,961.5C 305.833,961.5 299.167,961.5 292.5,961.5C 292.5,954.833 292.5,948.167 292.5,941.5C 305.833,941.5 319.167,941.5 332.5,941.5C 332.5,935.167 332.5,928.833 332.5,922.5C 339.167,922.5 345.833,922.5 352.5,922.5C 352.5,916.167 352.5,909.833 352.5,903.5C 345.5,903.5 338.5,903.5 331.5,903.5C 331.5,890.5 331.5,877.5 331.5,864.5C 325.167,864.5 318.833,864.5 312.5,864.5C 312.5,851.5 312.5,838.5 312.5,825.5C 305.833,825.5 299.167,825.5 292.5,825.5C 292.5,792.833 292.5,760.167 292.5,727.5C 285.833,727.5 279.167,727.5 272.5,727.5C 272.5,721.167 272.5,714.833 272.5,708.5C 266.167,708.5 259.833,708.5 253.5,708.5C 253.5,701.833 253.5,695.167 253.5,688.5C 260.167,688.5 266.833,688.5 273.5,688.5C 273.5,694.833 273.5,701.167 273.5,707.5C 280.167,707.5 286.833,707.5 293.5,707.5C 293.5,694.5 293.5,681.5 293.5,668.5C 293.5,649.167 293.5,629.833 293.5,610.5C 293.5,604.167 293.5,597.833 293.5,591.5C 280.167,591.5 266.833,591.5 253.5,591.5C 253.5,584.833 253.5,578.167 253.5,571.5C 260.167,571.5 266.833,571.5 273.5,571.5C 273.5,518.833 273.5,466.167 273.5,413.5C 280.5,413.5 287.5,413.5 294.5,413.5C 294.5,387.833 294.5,362.167 294.5,336.5C 300.5,336.5 306.5,336.5 312.5,336.5C 312.5,330.167 312.5,323.833 312.5,317.5C 319.5,317.5 326.5,317.5 333.5,317.5C 333.5,310.833 333.5,304.167 333.5,297.5C 340.167,297.5 346.833,297.5 353.5,297.5C 353.334,291.158 353.5,284.825 354,278.5C 360.076,277.524 366.242,277.19 372.5,277.5C 372.5,270.833 372.5,264.167 372.5,257.5C 391.833,257.5 411.167,257.5 430.5,257.5C 430.5,251.167 430.5,244.833 430.5,238.5C 462.829,239.172 495.162,239.505 527.5,239.5C 527.5,245.5 527.5,251.5 527.5,257.5C 573.833,257.5 620.167,257.5 666.5,257.5C 666.5,264.167 666.5,270.833 666.5,277.5C 685.833,277.5 705.167,277.5 724.5,277.5C 724.5,284.167 724.5,290.833 724.5,297.5C 731.167,297.5 737.833,297.5 744.5,297.5C 744.5,303.833 744.5,310.167 744.5,316.5C 751.167,316.5 757.833,316.5 764.5,316.5C 764.5,329.5 764.5,342.5 764.5,355.5C 770.833,355.5 777.167,355.5 783.5,355.5C 783.5,427.5 783.5,499.5 783.5,571.5C 789.833,571.5 796.167,571.5 802.5,571.5C 802.189,578.09 802.522,584.59 803.5,591C 810.492,591.5 817.492,591.666 824.5,591.5C 824.5,623.833 824.5,656.167 824.5,688.5C 817.5,688.5 810.5,688.5 803.5,688.5C 803.5,695.167 803.5,701.833 803.5,708.5C 796.833,708.5 790.167,708.5 783.5,708.5C 783.5,714.833 783.5,721.167 783.5,727.5C 777.167,727.5 770.833,727.5 764.5,727.5C 764.5,760.167 764.5,792.833 764.5,825.5C 758.167,825.5 751.833,825.5 745.5,825.5C 745.5,838.5 745.5,851.5 745.5,864.5C 738.5,864.5 731.5,864.5 724.5,864.5C 724.5,877.5 724.5,890.5 724.5,903.5C 717.833,903.5 711.167,903.5 704.5,903.5C 704.5,909.833 704.5,916.167 704.5,922.5C 711.167,922.5 717.833,922.5 724.5,922.5C 724.5,928.833 724.5,935.167 724.5,941.5C 738.167,941.5 751.833,941.5 765.5,941.5C 765.793,948.255 765.46,954.922 764.5,961.5 Z"/></g>
<g><path style="opacity:1" fill="#201715" d="M 469.5,278.5 C 475.833,278.5 482.167,278.5 488.5,278.5C 488.5,291.167 488.5,303.833 488.5,316.5C 495.167,316.5 501.833,316.5 508.5,316.5C 508.5,329.5 508.5,342.5 508.5,355.5C 501.833,355.5 495.167,355.5 488.5,355.5C 488.5,348.833 488.5,342.167 488.5,335.5C 482.5,335.5 476.5,335.5 470.5,335.5C 470.274,316.498 469.941,297.498 469.5,278.5 Z"/></g>
<g><path style="opacity:1" fill="#1f1714" d="M 411.5,297.5 C 424.167,297.5 436.833,297.5 449.5,297.5C 449.5,303.833 449.5,310.167 449.5,316.5C 443.167,316.5 436.833,316.5 430.5,316.5C 430.5,322.833 430.5,329.167 430.5,335.5C 424.167,335.5 417.833,335.5 411.5,335.5C 411.5,322.833 411.5,310.167 411.5,297.5 Z"/></g>
<g><path style="opacity:1" fill="#201715" d="M 352.5,316.5 C 365.5,316.5 378.5,316.5 391.5,316.5C 391.5,329.5 391.5,342.5 391.5,355.5C 385.167,355.5 378.833,355.5 372.5,355.5C 372.5,348.833 372.5,342.167 372.5,335.5C 365.833,335.5 359.167,335.5 352.5,335.5C 352.5,329.167 352.5,322.833 352.5,316.5 Z"/></g>
<g><path style="opacity:1" fill="#201815" d="M 548.5,317.5 C 554.833,317.5 561.167,317.5 567.5,317.5C 567.5,323.833 567.5,330.167 567.5,336.5C 573.833,336.5 580.167,336.5 586.5,336.5C 586.5,349.167 586.5,361.833 586.5,374.5C 579.833,374.5 573.167,374.5 566.5,374.5C 566.5,368.167 566.5,361.833 566.5,355.5C 560.5,355.5 554.5,355.5 548.5,355.5C 548.5,342.833 548.5,330.167 548.5,317.5 Z"/></g>
<g><path style="opacity:1" fill="#211815" d="M 685.5,336.5 C 698.5,336.5 711.5,336.5 724.5,336.5C 724.5,342.833 724.5,349.167 724.5,355.5C 711.5,355.5 698.5,355.5 685.5,355.5C 685.5,349.167 685.5,342.833 685.5,336.5 Z"/></g>
<g><path style="opacity:1" fill="#201715" d="M 724.5,356.5 C 737.5,356.5 750.5,356.5 763.5,356.5C 763.5,368.5 763.5,380.5 763.5,392.5C 757.167,392.5 750.833,392.5 744.5,392.5C 744.5,386.5 744.5,380.5 744.5,374.5C 737.833,374.5 731.167,374.5 724.5,374.5C 724.5,368.5 724.5,362.5 724.5,356.5 Z"/></g>
<g><path style="opacity:1" fill="#190e0b" d="M 745.5,453.5 C 745.5,459.833 745.5,466.167 745.5,472.5C 751.167,472.5 756.833,472.5 762.5,472.5C 762.5,479.167 762.5,485.833 762.5,492.5C 756.5,492.5 750.5,492.5 744.5,492.5C 744.5,498.833 744.5,505.167 744.5,511.5C 738.167,511.5 731.833,511.5 725.5,511.5C 725.5,491.833 725.5,472.167 725.5,452.5C 732.255,452.207 738.922,452.54 745.5,453.5 Z"/></g>
<g><path style="opacity:1" fill="#d67c3e" d="M 744.5,591.5 C 737.833,591.5 731.167,591.5 724.5,591.5C 724.5,584.833 724.5,578.167 724.5,571.5C 717.833,571.5 711.167,571.5 704.5,571.5C 704.5,564.833 704.5,558.167 704.5,551.5C 671.5,551.5 638.5,551.5 605.5,551.5C 605.5,558.167 605.5,564.833 605.5,571.5C 599.167,571.5 592.833,571.5 586.5,571.5C 586.5,578.167 586.5,584.833 586.5,591.5C 579.91,591.811 573.41,591.478 567,590.5C 566.5,597.158 566.334,603.825 566.5,610.5C 547.5,610.5 528.5,610.5 509.5,610.5C 509.5,603.833 509.5,597.167 509.5,590.5C 502.833,590.5 496.167,590.5 489.5,590.5C 488.174,584.432 488.174,578.266 489.5,572C 482.842,571.5 476.175,571.334 469.5,571.5C 469.5,571.167 469.5,570.833 469.5,570.5C 469.19,564.242 469.524,558.076 470.5,552C 437.595,551.83 404.762,551.33 372,550.5C 371.5,557.492 371.334,564.492 371.5,571.5C 365.167,571.5 358.833,571.5 352.5,571.5C 352.5,577.833 352.5,584.167 352.5,590.5C 345.833,590.5 339.167,590.5 332.5,590.5C 332.5,569.5 332.5,548.5 332.5,527.5C 332.5,522.5 332.5,517.5 332.5,512.5C 339.167,512.5 345.833,512.5 352.5,512.5C 352.5,486.5 352.5,460.5 352.5,434.5C 359.167,434.5 365.833,434.5 372.5,434.5C 372.5,427.833 372.5,421.167 372.5,414.5C 411.167,414.5 449.833,414.5 488.5,414.5C 488.5,421.167 488.5,427.833 488.5,434.5C 514.5,434.5 540.5,434.5 566.5,434.5C 566.5,427.833 566.5,421.167 566.5,414.5C 612.5,414.5 658.5,414.5 704.5,414.5C 704.5,421.167 704.5,427.833 704.5,434.5C 710.833,434.5 717.167,434.5 723.5,434.5C 723.5,460.5 723.5,486.5 723.5,512.5C 730.833,512.5 738.167,512.5 745.5,512.5C 745.824,538.908 745.49,565.241 744.5,591.5 Z"/></g>
<g><path style="opacity:1" fill="#1d120e" d="M 330.5,532.5 C 324.5,532.5 318.5,532.5 312.5,532.5C 312.5,545.5 312.5,558.5 312.5,571.5C 306.225,572.418 299.892,572.751 293.5,572.5C 293.5,532.833 293.5,493.167 293.5,453.5C 299.833,453.5 306.167,453.5 312.5,453.5C 312.5,459.833 312.5,466.167 312.5,472.5C 325.5,472.5 338.5,472.5 351.5,472.5C 351.5,485.5 351.5,498.5 351.5,511.5C 344.825,511.334 338.158,511.5 331.5,512C 330.521,518.744 330.188,525.578 330.5,532.5 Z"/></g>
<g><path style="opacity:1" fill="#241611" d="M 745.5,453.5 C 751.5,453.5 757.5,453.5 763.5,453.5C 763.833,492.839 763.5,532.172 762.5,571.5C 757.23,572.451 751.897,572.785 746.5,572.5C 747.155,551.806 746.488,531.473 744.5,511.5C 744.5,505.167 744.5,498.833 744.5,492.5C 750.5,492.5 756.5,492.5 762.5,492.5C 762.5,485.833 762.5,479.167 762.5,472.5C 756.833,472.5 751.167,472.5 745.5,472.5C 745.5,466.167 745.5,459.833 745.5,453.5 Z"/></g>
<g><path style="opacity:1" fill="#3f261b" d="M 330.5,532.5 C 330.5,551.833 330.5,571.167 330.5,590.5C 324.5,590.5 318.5,590.5 312.5,590.5C 312.5,584.167 312.5,577.833 312.5,571.5C 312.5,558.5 312.5,545.5 312.5,532.5C 318.5,532.5 324.5,532.5 330.5,532.5 Z"/></g>
<g><path style="opacity:1" fill="#000000" d="M 469.5,570.5 C 436.76,570.174 404.093,570.508 371.5,571.5C 371.334,564.492 371.5,557.492 372,550.5C 404.762,551.33 437.595,551.83 470.5,552C 469.524,558.076 469.19,564.242 469.5,570.5 Z"/></g>
<g><path style="opacity:1" fill="#000000" d="M 371.5,571.5 C 371.5,571.833 371.5,572.167 371.5,572.5C 371.5,578.833 371.5,585.167 371.5,591.5C 365.167,591.5 358.833,591.5 352.5,591.5C 352.5,591.167 352.5,590.833 352.5,590.5C 352.5,584.167 352.5,577.833 352.5,571.5C 358.833,571.5 365.167,571.5 371.5,571.5 Z"/></g>
<g><path style="opacity:1" fill="#254c7e" d="M 469.5,570.5 C 469.5,570.833 469.5,571.167 469.5,571.5C 469.823,578.022 469.49,584.355 468.5,590.5C 468.5,584.5 468.5,578.5 468.5,572.5C 436.167,572.5 403.833,572.5 371.5,572.5C 371.5,572.167 371.5,571.833 371.5,571.5C 404.093,570.508 436.76,570.174 469.5,570.5 Z"/></g>
<g><path style="opacity:1" fill="#2d5f9f" d="M 606.5,572.5 C 638.996,571.502 671.662,571.168 704.5,571.5C 704.5,577.833 704.5,584.167 704.5,590.5C 704.167,590.5 703.833,590.5 703.5,590.5C 703.5,584.5 703.5,578.5 703.5,572.5C 671.167,572.5 638.833,572.5 606.5,572.5 Z"/></g>
<g><path style="opacity:1" fill="#000001" d="M 704.5,571.5 C 711.167,571.5 717.833,571.5 724.5,571.5C 724.5,578.167 724.5,584.833 724.5,591.5C 717.833,591.5 711.167,591.5 704.5,591.5C 704.5,591.167 704.5,590.833 704.5,590.5C 704.5,584.167 704.5,577.833 704.5,571.5 Z"/></g>
<g><path style="opacity:1" fill="#8b502d" d="M 332.5,527.5 C 332.5,548.5 332.5,569.5 332.5,590.5C 339.167,590.5 345.833,590.5 352.5,590.5C 352.5,590.833 352.5,591.167 352.5,591.5C 345.833,591.5 339.167,591.5 332.5,591.5C 331.167,570.167 331.167,548.833 332.5,527.5 Z"/></g>
<g><path style="opacity:1" fill="#1a2e54" d="M 606.5,572.5 C 638.833,572.5 671.167,572.5 703.5,572.5C 703.5,578.5 703.5,584.5 703.5,590.5C 671.167,590.5 638.833,590.5 606.5,590.5C 606.5,584.5 606.5,578.5 606.5,572.5 Z"/></g>
<g><path style="opacity:1" fill="#1b2e55" d="M 371.5,572.5 C 403.833,572.5 436.167,572.5 468.5,572.5C 468.5,578.5 468.5,584.5 468.5,590.5C 437.329,590.169 406.329,590.502 375.5,591.5C 374.167,591.5 372.833,591.5 371.5,591.5C 371.5,585.167 371.5,578.833 371.5,572.5 Z"/></g>
<g><path style="opacity:1" fill="#000000" d="M 253.5,591.5 C 253.5,623.833 253.5,656.167 253.5,688.5C 246.5,688.5 239.5,688.5 232.5,688.5C 232.5,656.167 232.5,623.833 232.5,591.5C 239.5,591.5 246.5,591.5 253.5,591.5 Z"/></g>
<g><path style="opacity:1" fill="#100c0b" d="M 469.5,571.5 C 476.175,571.334 482.842,571.5 489.5,572C 488.174,578.266 488.174,584.432 489.5,590.5C 495.645,591.49 501.978,591.823 508.5,591.5C 508.5,597.833 508.5,604.167 508.5,610.5C 501.745,610.207 495.078,610.54 488.5,611.5C 488.5,611.167 488.5,610.833 488.5,610.5C 488.5,604.167 488.5,597.833 488.5,591.5C 482.167,591.5 475.833,591.5 469.5,591.5C 438.167,591.5 406.833,591.5 375.5,591.5C 406.329,590.502 437.329,590.169 468.5,590.5C 469.49,584.355 469.823,578.022 469.5,571.5 Z"/></g>
<g><path style="opacity:1" fill="#111f37" d="M 469.5,591.5 C 475.833,591.5 482.167,591.5 488.5,591.5C 488.5,597.833 488.5,604.167 488.5,610.5C 482.167,610.5 475.833,610.5 469.5,610.5C 469.5,604.167 469.5,597.833 469.5,591.5 Z"/></g>
<g><path style="opacity:1" fill="#021326" d="M 332.5,591.5 C 339.167,591.5 345.833,591.5 352.5,591.5C 358.833,591.5 365.167,591.5 371.5,591.5C 371.5,597.833 371.5,604.167 371.5,610.5C 365.167,610.5 358.833,610.5 352.5,610.5C 352.5,617.167 352.5,623.833 352.5,630.5C 358.833,630.5 365.167,630.5 371.5,630.5C 365.355,631.49 359.022,631.823 352.5,631.5C 352.5,637.167 352.5,642.833 352.5,648.5C 362.46,647.571 372.294,647.238 382,647.5C 384.929,647.525 387.429,648.191 389.5,649.5C 377.167,649.5 364.833,649.5 352.5,649.5C 352.5,662.5 352.5,675.5 352.5,688.5C 345.492,688.666 338.492,688.5 331.5,688C 332.495,662.241 332.828,636.408 332.5,610.5C 332.5,604.167 332.5,597.833 332.5,591.5 Z"/></g>
<g><path style="opacity:1" fill="#6c3e22" d="M 489.5,590.5 C 496.167,590.5 502.833,590.5 509.5,590.5C 509.5,597.167 509.5,603.833 509.5,610.5C 509.167,610.5 508.833,610.5 508.5,610.5C 508.5,604.167 508.5,597.833 508.5,591.5C 501.978,591.823 495.645,591.49 489.5,590.5 Z"/></g>
<g><path style="opacity:1" fill="#021123" d="M 704.5,592.5 C 704.5,592.167 704.5,591.833 704.5,591.5C 711.167,591.5 717.833,591.5 724.5,591.5C 731.167,591.5 737.833,591.5 744.5,591.5C 744.826,623.907 744.492,656.24 743.5,688.5C 737.167,688.5 730.833,688.5 724.5,688.5C 724.5,695.167 724.5,701.833 724.5,708.5C 717.833,708.5 711.167,708.5 704.5,708.5C 704.5,714.833 704.5,721.167 704.5,727.5C 671.5,727.5 638.5,727.5 605.5,727.5C 605.5,721.167 605.5,714.833 605.5,708.5C 599.167,708.5 592.833,708.5 586.5,708.5C 586.5,701.833 586.5,695.167 586.5,688.5C 579.833,688.5 573.167,688.5 566.5,688.5C 566.5,675.833 566.5,663.167 566.5,650.5C 566.5,644.167 566.5,637.833 566.5,631.5C 566.5,631.167 566.5,630.833 566.5,630.5C 566.189,623.91 566.522,617.41 567.5,611C 574.37,610.602 581.036,610.435 587.5,610.5C 587.5,636.5 587.5,662.5 587.5,688.5C 593.758,688.81 599.924,688.476 606,687.5C 606.5,694.158 606.666,700.825 606.5,707.5C 639.167,707.5 671.833,707.5 704.5,707.5C 704.5,701.167 704.5,694.833 704.5,688.5C 710.833,688.5 717.167,688.5 723.5,688.5C 723.5,675.5 723.5,662.5 723.5,649.5C 711.167,649.5 698.833,649.5 686.5,649.5C 698.989,648.505 711.656,648.171 724.5,648.5C 725.833,629.833 725.833,611.167 724.5,592.5C 717.833,592.5 711.167,592.5 704.5,592.5 Z"/></g>
<g><path style="opacity:1" fill="#fd801a" d="M 371.5,591.5 C 372.833,591.5 374.167,591.5 375.5,591.5C 406.833,591.5 438.167,591.5 469.5,591.5C 469.5,597.833 469.5,604.167 469.5,610.5C 436.833,610.5 404.167,610.5 371.5,610.5C 371.5,604.167 371.5,597.833 371.5,591.5 Z"/></g>
<g><path style="opacity:1" fill="#d46824" d="M 372.5,592.5 C 404.5,592.5 436.5,592.5 468.5,592.5C 468.5,598.167 468.5,603.833 468.5,609.5C 436.5,609.5 404.5,609.5 372.5,609.5C 372.5,603.833 372.5,598.167 372.5,592.5 Z"/></g>
<g><path style="opacity:1" fill="#fc811b" d="M 606.5,591.5 C 639.167,591.5 671.833,591.5 704.5,591.5C 704.5,591.833 704.5,592.167 704.5,592.5C 704.5,598.5 704.5,604.5 704.5,610.5C 671.833,610.5 639.167,610.5 606.5,610.5C 606.5,604.167 606.5,597.833 606.5,591.5 Z"/></g>
<g><path style="opacity:1" fill="#090605" d="M 704.5,571.5 C 671.662,571.168 638.996,571.502 606.5,572.5C 606.5,578.5 606.5,584.5 606.5,590.5C 638.833,590.5 671.167,590.5 703.5,590.5C 703.833,590.5 704.167,590.5 704.5,590.5C 704.5,590.833 704.5,591.167 704.5,591.5C 671.833,591.5 639.167,591.5 606.5,591.5C 600.167,591.5 593.833,591.5 587.5,591.5C 587.5,597.833 587.5,604.167 587.5,610.5C 581.036,610.435 574.37,610.602 567.5,611C 566.522,617.41 566.189,623.91 566.5,630.5C 547.5,630.5 528.5,630.5 509.5,630.5C 509.5,649.5 509.5,668.5 509.5,687.5C 508.502,662.005 508.169,636.339 508.5,610.5C 508.833,610.5 509.167,610.5 509.5,610.5C 528.5,610.5 547.5,610.5 566.5,610.5C 566.334,603.825 566.5,597.158 567,590.5C 573.41,591.478 579.91,591.811 586.5,591.5C 586.5,584.833 586.5,578.167 586.5,571.5C 592.833,571.5 599.167,571.5 605.5,571.5C 605.5,564.833 605.5,558.167 605.5,551.5C 638.5,551.5 671.5,551.5 704.5,551.5C 704.5,558.167 704.5,564.833 704.5,571.5 Z"/></g>
<g><path style="opacity:1" fill="#001224" d="M 508.5,610.5 C 508.169,636.339 508.502,662.005 509.5,687.5C 503.021,688.491 496.354,688.824 489.5,688.5C 489.167,688.5 488.833,688.5 488.5,688.5C 488.5,662.833 488.5,637.167 488.5,611.5C 495.078,610.54 501.745,610.207 508.5,610.5 Z"/></g>
<g><path style="opacity:1" fill="#1d110c" d="M 745.5,610.5 C 751.167,610.5 756.833,610.5 762.5,610.5C 762.5,629.833 762.5,649.167 762.5,668.5C 756.833,668.5 751.167,668.5 745.5,668.5C 745.5,649.167 745.5,629.833 745.5,610.5 Z"/></g>
<g><path style="opacity:1" fill="#111d34" d="M 371.5,610.5 C 404.167,610.5 436.833,610.5 469.5,610.5C 469.5,617.167 469.5,623.833 469.5,630.5C 462.833,630.5 456.167,630.5 449.5,630.5C 449.5,643.167 449.5,655.833 449.5,668.5C 436.5,668.5 423.5,668.5 410.5,668.5C 410.5,655.833 410.5,643.167 410.5,630.5C 404.167,630.5 397.833,630.5 391.5,630.5C 391.5,636.833 391.5,643.167 391.5,649.5C 390.833,649.5 390.167,649.5 389.5,649.5C 387.429,648.191 384.929,647.525 382,647.5C 372.294,647.238 362.46,647.571 352.5,648.5C 352.5,642.833 352.5,637.167 352.5,631.5C 359.022,631.823 365.355,631.49 371.5,630.5C 371.5,623.833 371.5,617.167 371.5,610.5 Z"/></g>
<g><path style="opacity:1" fill="#111d34" d="M 606.5,591.5 C 606.5,597.833 606.5,604.167 606.5,610.5C 639.167,610.5 671.833,610.5 704.5,610.5C 704.5,604.5 704.5,598.5 704.5,592.5C 711.167,592.5 717.833,592.5 724.5,592.5C 725.833,611.167 725.833,629.833 724.5,648.5C 711.656,648.171 698.989,648.505 686.5,649.5C 686.167,649.5 685.833,649.5 685.5,649.5C 685.5,643.167 685.5,636.833 685.5,630.5C 679.167,630.5 672.833,630.5 666.5,630.5C 666.5,643.167 666.5,655.833 666.5,668.5C 653.167,668.5 639.833,668.5 626.5,668.5C 626.5,655.833 626.5,643.167 626.5,630.5C 619.833,630.5 613.167,630.5 606.5,630.5C 605.509,624.021 605.176,617.354 605.5,610.5C 599.5,610.5 593.5,610.5 587.5,610.5C 587.5,604.167 587.5,597.833 587.5,591.5C 593.833,591.5 600.167,591.5 606.5,591.5 Z"/></g>
<g><path style="opacity:1" fill="#dc803e" d="M 704.5,610.5 C 710.833,610.5 717.167,610.5 723.5,610.5C 723.5,617.167 723.5,623.833 723.5,630.5C 717.167,630.5 710.833,630.5 704.5,630.5C 704.5,623.833 704.5,617.167 704.5,610.5 Z"/></g>
<g><path style="opacity:1" fill="#d46824" d="M 607.5,592.5 C 639.5,592.5 671.5,592.5 703.5,592.5C 703.5,598.167 703.5,603.833 703.5,609.5C 671.5,609.5 639.5,609.5 607.5,609.5C 607.5,603.833 607.5,598.167 607.5,592.5 Z"/></g>
<g><path style="opacity:1" fill="#d2511c" d="M 764.5,610.5 C 771.167,610.5 777.833,610.5 784.5,610.5C 784.5,629.833 784.5,649.167 784.5,668.5C 777.833,668.5 771.167,668.5 764.5,668.5C 764.5,649.167 764.5,629.833 764.5,610.5 Z"/></g>
<g><path style="opacity:1" fill="#cd4a1c" d="M 293.5,610.5 C 293.5,629.833 293.5,649.167 293.5,668.5C 286.833,668.5 280.167,668.5 273.5,668.5C 273.5,649.167 273.5,629.833 273.5,610.5C 280.167,610.5 286.833,610.5 293.5,610.5 Z"/></g>
<g><path style="opacity:1" fill="#d77d3f" d="M 253.5,591.5 C 266.833,591.5 280.167,591.5 293.5,591.5C 293.5,597.833 293.5,604.167 293.5,610.5C 286.833,610.5 280.167,610.5 273.5,610.5C 273.5,629.833 273.5,649.167 273.5,668.5C 280.167,668.5 286.833,668.5 293.5,668.5C 293.5,681.5 293.5,694.5 293.5,707.5C 286.833,707.5 280.167,707.5 273.5,707.5C 273.5,701.167 273.5,694.833 273.5,688.5C 266.833,688.5 260.167,688.5 253.5,688.5C 253.5,656.167 253.5,623.833 253.5,591.5 Z"/></g>
<g><path style="opacity:1" fill="#d37a3e" d="M 371.5,610.5 C 371.5,617.167 371.5,623.833 371.5,630.5C 365.167,630.5 358.833,630.5 352.5,630.5C 352.5,623.833 352.5,617.167 352.5,610.5C 358.833,610.5 365.167,610.5 371.5,610.5 Z"/></g>
<g><path style="opacity:1" fill="#d76222" d="M 566.5,631.5 C 566.5,637.833 566.5,644.167 566.5,650.5C 547.833,650.5 529.167,650.5 510.5,650.5C 510.5,644.167 510.5,637.833 510.5,631.5C 529.167,631.5 547.833,631.5 566.5,631.5 Z"/></g>
<g><path style="opacity:1" fill="#dee6ee" d="M 685.5,649.5 C 685.5,655.833 685.5,662.167 685.5,668.5C 679.167,668.5 672.833,668.5 666.5,668.5C 666.5,655.833 666.5,643.167 666.5,630.5C 672.833,630.5 679.167,630.5 685.5,630.5C 685.5,636.833 685.5,643.167 685.5,649.5 Z"/></g>
<g><path style="opacity:1" fill="#dfe8f0" d="M 606.5,630.5 C 613.167,630.5 619.833,630.5 626.5,630.5C 626.5,643.167 626.5,655.833 626.5,668.5C 619.5,668.5 612.5,668.5 605.5,668.5C 606.398,655.859 606.732,643.192 606.5,630.5 Z"/></g>
<g><path style="opacity:1" fill="#d67c3e" d="M 764.5,668.5 C 771.167,668.5 777.833,668.5 784.5,668.5C 784.5,649.167 784.5,629.833 784.5,610.5C 777.833,610.5 771.167,610.5 764.5,610.5C 764.5,604.167 764.5,597.833 764.5,591.5C 777.167,591.5 789.833,591.5 802.5,591.5C 802.5,623.833 802.5,656.167 802.5,688.5C 796.167,688.5 789.833,688.5 783.5,688.5C 783.5,694.833 783.5,701.167 783.5,707.5C 777.167,707.5 770.833,707.5 764.5,707.5C 764.5,694.5 764.5,681.5 764.5,668.5 Z"/></g>
<g><path style="opacity:1" fill="#d87c3e" d="M 469.5,610.5 C 475.833,610.5 482.167,610.5 488.5,610.5C 488.5,610.833 488.5,611.167 488.5,611.5C 488.5,637.167 488.5,662.833 488.5,688.5C 488.167,688.5 487.833,688.5 487.5,688.5C 481.5,688.5 475.5,688.5 469.5,688.5C 469.823,695.022 469.49,701.355 468.5,707.5C 436.5,707.5 404.5,707.5 372.5,707.5C 372.5,701.167 372.5,694.833 372.5,688.5C 365.833,688.5 359.167,688.5 352.5,688.5C 352.5,675.5 352.5,662.5 352.5,649.5C 364.833,649.5 377.167,649.5 389.5,649.5C 390.167,649.5 390.833,649.5 391.5,649.5C 391.5,655.833 391.5,662.167 391.5,668.5C 397.833,668.5 404.167,668.5 410.5,668.5C 423.5,668.5 436.5,668.5 449.5,668.5C 456.5,668.5 463.5,668.5 470.5,668.5C 470.829,655.656 470.495,642.989 469.5,630.5C 469.5,623.833 469.5,617.167 469.5,610.5 Z"/></g>
<g><path style="opacity:1" fill="#d87d3e" d="M 587.5,610.5 C 593.5,610.5 599.5,610.5 605.5,610.5C 605.176,617.354 605.509,624.021 606.5,630.5C 606.732,643.192 606.398,655.859 605.5,668.5C 612.5,668.5 619.5,668.5 626.5,668.5C 639.833,668.5 653.167,668.5 666.5,668.5C 672.833,668.5 679.167,668.5 685.5,668.5C 685.5,662.167 685.5,655.833 685.5,649.5C 685.833,649.5 686.167,649.5 686.5,649.5C 698.833,649.5 711.167,649.5 723.5,649.5C 723.5,662.5 723.5,675.5 723.5,688.5C 717.167,688.5 710.833,688.5 704.5,688.5C 704.5,694.833 704.5,701.167 704.5,707.5C 671.833,707.5 639.167,707.5 606.5,707.5C 606.666,700.825 606.5,694.158 606,687.5C 599.924,688.476 593.758,688.81 587.5,688.5C 587.5,662.5 587.5,636.5 587.5,610.5 Z"/></g>
<g><path style="opacity:1" fill="#d77d3f" d="M 332.5,610.5 C 332.828,636.408 332.495,662.241 331.5,688C 338.492,688.5 345.492,688.666 352.5,688.5C 352.5,695.167 352.5,701.833 352.5,708.5C 358.833,708.5 365.167,708.5 371.5,708.5C 371.5,714.833 371.5,721.167 371.5,727.5C 404.167,727.5 436.833,727.5 469.5,727.5C 470.49,721.355 470.823,715.022 470.5,708.5C 476.833,708.5 483.167,708.5 489.5,708.5C 489.5,701.833 489.5,695.167 489.5,688.5C 496.354,688.824 503.021,688.491 509.5,687.5C 509.5,668.5 509.5,649.5 509.5,630.5C 528.5,630.5 547.5,630.5 566.5,630.5C 566.5,630.833 566.5,631.167 566.5,631.5C 547.833,631.5 529.167,631.5 510.5,631.5C 510.5,637.833 510.5,644.167 510.5,650.5C 529.167,650.5 547.833,650.5 566.5,650.5C 566.5,663.167 566.5,675.833 566.5,688.5C 573.167,688.5 579.833,688.5 586.5,688.5C 586.5,695.167 586.5,701.833 586.5,708.5C 592.833,708.5 599.167,708.5 605.5,708.5C 605.5,714.833 605.5,721.167 605.5,727.5C 638.5,727.5 671.5,727.5 704.5,727.5C 704.5,721.167 704.5,714.833 704.5,708.5C 711.167,708.5 717.833,708.5 724.5,708.5C 724.5,701.833 724.5,695.167 724.5,688.5C 730.833,688.5 737.167,688.5 743.5,688.5C 744.497,707.659 744.83,726.993 744.5,746.5C 737.5,746.5 730.5,746.5 723.5,746.5C 723.171,759.677 723.505,772.677 724.5,785.5C 718.021,786.491 711.354,786.824 704.5,786.5C 704.389,799.848 704.723,813.181 705.5,826.5C 698.833,826.5 692.167,826.5 685.5,826.5C 685.5,832.5 685.5,838.5 685.5,844.5C 679.167,844.5 672.833,844.5 666.5,844.5C 666.5,831.833 666.5,819.167 666.5,806.5C 659.833,806.5 653.167,806.5 646.5,806.5C 646.824,799.646 646.491,792.979 645.5,786.5C 639.167,786.5 632.833,786.5 626.5,786.5C 626.19,780.242 626.524,774.076 627.5,768C 620.174,767.5 612.841,767.334 605.5,767.5C 605.5,760.5 605.5,753.5 605.5,746.5C 599.5,746.5 593.5,746.5 587.5,746.5C 587.5,739.5 587.5,732.5 587.5,725.5C 580.5,725.5 573.5,725.5 566.5,725.5C 566.5,732.5 566.5,739.5 566.5,746.5C 547.5,746.5 528.5,746.5 509.5,746.5C 509.5,739.5 509.5,732.5 509.5,725.5C 502.5,725.5 495.5,725.5 488.5,725.5C 488.5,732.5 488.5,739.5 488.5,746.5C 488.167,746.5 487.833,746.5 487.5,746.5C 481.833,746.5 476.167,746.5 470.5,746.5C 470.5,753.5 470.5,760.5 470.5,767.5C 463.833,767.5 457.167,767.5 450.5,767.5C 450.5,773.833 450.5,780.167 450.5,786.5C 443.833,786.5 437.167,786.5 430.5,786.5C 430.5,793.167 430.5,799.833 430.5,806.5C 424.5,806.5 418.5,806.5 412.5,806.5C 410.513,825.137 409.846,844.137 410.5,863.5C 404.167,863.5 397.833,863.5 391.5,863.5C 391.667,850.829 391.5,838.162 391,825.5C 384.924,826.476 378.758,826.81 372.5,826.5C 372.5,820.167 372.5,813.833 372.5,807.5C 366.021,806.509 359.354,806.176 352.5,806.5C 352.5,799.833 352.5,793.167 352.5,786.5C 345.833,786.5 339.167,786.5 332.5,786.5C 332.5,773.167 332.5,759.833 332.5,746.5C 325.833,746.5 319.167,746.5 312.5,746.5C 312.5,701.167 312.5,655.833 312.5,610.5C 319.167,610.5 325.833,610.5 332.5,610.5 Z"/></g>
<g><path style="opacity:1" fill="#d2541b" d="M 605.5,767.5 C 599.167,767.5 592.833,767.5 586.5,767.5C 586.067,760.648 586.067,753.648 586.5,746.5C 579.833,746.5 573.167,746.5 566.5,746.5C 566.5,739.5 566.5,732.5 566.5,725.5C 573.5,725.5 580.5,725.5 587.5,725.5C 587.5,732.5 587.5,739.5 587.5,746.5C 593.5,746.5 599.5,746.5 605.5,746.5C 605.5,753.5 605.5,760.5 605.5,767.5 Z"/></g>
<g><path style="opacity:1" fill="#d3561b" d="M 509.5,746.5 C 502.5,746.5 495.5,746.5 488.5,746.5C 488.5,739.5 488.5,732.5 488.5,725.5C 495.5,725.5 502.5,725.5 509.5,725.5C 509.5,732.5 509.5,739.5 509.5,746.5 Z"/></g>
<g><path style="opacity:1" fill="#011223" d="M 352.5,688.5 C 359.167,688.5 365.833,688.5 372.5,688.5C 372.5,694.833 372.5,701.167 372.5,707.5C 404.5,707.5 436.5,707.5 468.5,707.5C 469.38,714.123 469.713,720.789 469.5,727.5C 436.833,727.5 404.167,727.5 371.5,727.5C 371.5,721.167 371.5,714.833 371.5,708.5C 365.167,708.5 358.833,708.5 352.5,708.5C 352.5,701.833 352.5,695.167 352.5,688.5 Z"/></g>
<g><path style="opacity:1" fill="#2f1f25" d="M 487.5,688.5 C 482.36,689.488 477.026,689.821 471.5,689.5C 471.5,695.5 471.5,701.5 471.5,707.5C 477.167,707.5 482.833,707.5 488.5,707.5C 488.5,701.167 488.5,694.833 488.5,688.5C 488.833,688.5 489.167,688.5 489.5,688.5C 489.5,695.167 489.5,701.833 489.5,708.5C 483.167,708.5 476.833,708.5 470.5,708.5C 470.823,715.022 470.49,721.355 469.5,727.5C 469.713,720.789 469.38,714.123 468.5,707.5C 469.49,701.355 469.823,695.022 469.5,688.5C 475.5,688.5 481.5,688.5 487.5,688.5 Z"/></g>
<g><path style="opacity:1" fill="#001224" d="M 487.5,688.5 C 487.833,688.5 488.167,688.5 488.5,688.5C 488.5,694.833 488.5,701.167 488.5,707.5C 482.833,707.5 477.167,707.5 471.5,707.5C 471.5,701.5 471.5,695.5 471.5,689.5C 477.026,689.821 482.36,689.488 487.5,688.5 Z"/></g>
<g><path style="opacity:1" fill="#e0e8f0" d="M 410.5,668.5 C 404.167,668.5 397.833,668.5 391.5,668.5C 391.5,662.167 391.5,655.833 391.5,649.5C 391.5,643.167 391.5,636.833 391.5,630.5C 397.833,630.5 404.167,630.5 410.5,630.5C 410.5,643.167 410.5,655.833 410.5,668.5 Z"/></g>
<g><path style="opacity:1" fill="#dde5ed" d="M 469.5,630.5 C 470.495,642.989 470.829,655.656 470.5,668.5C 463.5,668.5 456.5,668.5 449.5,668.5C 449.5,655.833 449.5,643.167 449.5,630.5C 456.167,630.5 462.833,630.5 469.5,630.5 Z"/></g>
<g><path style="opacity:1" fill="#d65a1c" d="M 487.5,746.5 C 487.5,753.5 487.5,760.5 487.5,767.5C 481.833,767.5 476.167,767.5 470.5,767.5C 470.5,760.5 470.5,753.5 470.5,746.5C 476.167,746.5 481.833,746.5 487.5,746.5 Z"/></g>
<g><path style="opacity:1" fill="#c73618" d="M 487.5,746.5 C 487.833,746.5 488.167,746.5 488.5,746.5C 495.5,746.5 502.5,746.5 509.5,746.5C 528.5,746.5 547.5,746.5 566.5,746.5C 573.167,746.5 579.833,746.5 586.5,746.5C 586.067,753.648 586.067,760.648 586.5,767.5C 553.5,767.5 520.5,767.5 487.5,767.5C 487.5,760.5 487.5,753.5 487.5,746.5 Z"/></g>
<g><path style="opacity:1" fill="#150c09" d="M 372.5,807.5 C 372.5,813.833 372.5,820.167 372.5,826.5C 378.758,826.81 384.924,826.476 391,825.5C 391.5,838.162 391.667,850.829 391.5,863.5C 397.833,863.5 404.167,863.5 410.5,863.5C 409.846,844.137 410.513,825.137 412.5,806.5C 418.678,807.817 425.012,807.817 431.5,806.5C 432.457,800.561 432.79,794.561 432.5,788.5C 438.758,788.81 444.924,788.476 451,787.5C 451.5,781.175 451.666,774.842 451.5,768.5C 463.833,768.5 476.167,768.5 488.5,768.5C 488.822,780.747 488.488,792.914 487.5,805C 474.865,806.155 462.199,806.821 449.5,807C 450.755,812.812 450.588,818.645 449,824.5C 448.5,837.162 448.333,849.829 448.5,862.5C 442.31,862.177 436.31,862.51 430.5,863.5C 430.5,876.5 430.5,889.5 430.5,902.5C 437.175,902.334 443.842,902.5 450.5,903C 449.522,909.41 449.189,915.91 449.5,922.5C 469.503,922.667 489.503,922.5 509.5,922C 508.522,915.59 508.189,909.09 508.5,902.5C 527.833,902.5 547.167,902.5 566.5,902.5C 566.5,909.167 566.5,915.833 566.5,922.5C 586.5,922.5 606.5,922.5 626.5,922.5C 626.5,915.833 626.5,909.167 626.5,902.5C 633.167,902.5 639.833,902.5 646.5,902.5C 646.5,900.833 646.5,899.167 646.5,897.5C 647.302,898.952 647.802,900.618 648,902.5C 648.667,889.5 648.667,876.5 648,863.5C 641.59,862.522 635.09,862.189 628.5,862.5C 628.473,843.493 628.139,824.493 627.5,805.5C 614.167,805.5 600.833,805.5 587.5,805.5C 587.5,793.167 587.5,780.833 587.5,768.5C 600.167,768.5 612.833,768.5 625.5,768.5C 625.167,775.262 625.5,781.262 626.5,786.5C 632.833,786.5 639.167,786.5 645.5,786.5C 645.5,793.5 645.5,800.5 645.5,807.5C 652.167,807.5 658.833,807.5 665.5,807.5C 664.626,820.144 664.292,832.811 664.5,845.5C 672.167,845.5 679.833,845.5 687.5,845.5C 687.5,839.5 687.5,833.5 687.5,827.5C 693.833,827.5 700.167,827.5 706.5,827.5C 706.2,814.499 705.867,801.499 705.5,788.5C 712.09,788.811 718.59,788.478 725,787.5C 725.5,774.504 725.667,761.504 725.5,748.5C 731.833,748.5 738.167,748.5 744.5,748.5C 744.5,774.167 744.5,799.833 744.5,825.5C 737.5,825.5 730.5,825.5 723.5,825.5C 723.5,838.167 723.5,850.833 723.5,863.5C 717.167,863.5 710.833,863.5 704.5,863.5C 704.667,876.171 704.5,888.838 704,901.5C 697.924,902.476 691.758,902.81 685.5,902.5C 685.5,909.167 685.5,915.833 685.5,922.5C 678.833,922.5 672.167,922.5 665.5,922.5C 665.5,928.833 665.5,935.167 665.5,941.5C 658.833,941.5 652.167,941.5 645.5,941.5C 645.5,947.5 645.5,953.5 645.5,959.5C 625.833,959.5 606.167,959.5 586.5,959.5C 586.5,966.5 586.5,973.5 586.5,980.5C 547.5,980.5 508.5,980.5 469.5,980.5C 469.5,973.5 469.5,966.5 469.5,959.5C 456.5,959.5 443.5,959.5 430.5,959.5C 430.212,953.771 430.546,948.104 431.5,942.5C 418.517,941.501 405.517,941.168 392.5,941.5C 392.5,935.167 392.5,928.833 392.5,922.5C 385.833,922.5 379.167,922.5 372.5,922.5C 372.5,915.833 372.5,909.167 372.5,902.5C 365.833,902.5 359.167,902.5 352.5,902.5C 352.5,889.5 352.5,876.5 352.5,863.5C 345.833,863.5 339.167,863.5 332.5,863.5C 332.5,850.833 332.5,838.167 332.5,825.5C 326.167,825.5 319.833,825.5 313.5,825.5C 313.806,799.801 313.473,774.134 312.5,748.5C 318.5,748.5 324.5,748.5 330.5,748.5C 330.333,761.504 330.5,774.504 331,787.5C 337.41,788.478 343.91,788.811 350.5,788.5C 350.23,795.39 351.063,802.057 353,808.5C 358.741,807.525 364.575,807.192 370.5,807.5C 370.334,813.842 370.5,820.175 371,826.5C 371.172,819.987 371.672,813.653 372.5,807.5 Z"/></g>
<g><path style="opacity:1" fill="#734325" d="M 744.5,746.5 C 738.021,747.491 731.354,747.824 724.5,747.5C 724.5,760.167 724.5,772.833 724.5,785.5C 723.505,772.677 723.171,759.677 723.5,746.5C 730.5,746.5 737.5,746.5 744.5,746.5 Z"/></g>
<g><path style="opacity:1" fill="#4e2d1b" d="M 312.5,746.5 C 319.167,746.5 325.833,746.5 332.5,746.5C 332.5,759.833 332.5,773.167 332.5,786.5C 331.505,773.677 331.171,760.677 331.5,747.5C 324.978,747.823 318.645,747.49 312.5,746.5 Z"/></g>
<g><path style="opacity:1" fill="#000000" d="M 470.5,767.5 C 476.167,767.5 481.833,767.5 487.5,767.5C 520.5,767.5 553.5,767.5 586.5,767.5C 592.833,767.5 599.167,767.5 605.5,767.5C 612.841,767.334 620.174,767.5 627.5,768C 626.524,774.076 626.19,780.242 626.5,786.5C 625.5,781.262 625.167,775.262 625.5,768.5C 612.833,768.5 600.167,768.5 587.5,768.5C 587.5,780.833 587.5,793.167 587.5,805.5C 600.833,805.5 614.167,805.5 627.5,805.5C 628.139,824.493 628.473,843.493 628.5,862.5C 635.09,862.189 641.59,862.522 648,863.5C 648.667,876.5 648.667,889.5 648,902.5C 647.802,900.618 647.302,898.952 646.5,897.5C 646.5,886.167 646.5,874.833 646.5,863.5C 639.91,863.189 633.41,863.522 627,864.5C 626.5,851.504 626.333,838.504 626.5,825.5C 613.167,825.5 599.833,825.5 586.5,825.5C 586.5,818.833 586.5,812.167 586.5,805.5C 553.996,805.168 521.662,805.502 489.5,806.5C 488.51,812.645 488.177,818.978 488.5,825.5C 475.5,825.5 462.5,825.5 449.5,825.5C 449.178,838.08 449.511,850.58 450.5,863C 443.842,863.5 437.175,863.666 430.5,863.5C 436.31,862.51 442.31,862.177 448.5,862.5C 448.333,849.829 448.5,837.162 449,824.5C 450.588,818.645 450.755,812.812 449.5,807C 462.199,806.821 474.865,806.155 487.5,805C 488.488,792.914 488.822,780.747 488.5,768.5C 476.167,768.5 463.833,768.5 451.5,768.5C 451.666,774.842 451.5,781.175 451,787.5C 444.924,788.476 438.758,788.81 432.5,788.5C 432.79,794.561 432.457,800.561 431.5,806.5C 425.012,807.817 418.678,807.817 412.5,806.5C 418.5,806.5 424.5,806.5 430.5,806.5C 430.5,799.833 430.5,793.167 430.5,786.5C 437.167,786.5 443.833,786.5 450.5,786.5C 450.5,780.167 450.5,773.833 450.5,767.5C 457.167,767.5 463.833,767.5 470.5,767.5 Z"/></g>
<g><path style="opacity:1" fill="#ce561d" d="M 586.5,825.5 C 554.167,825.5 521.833,825.5 489.5,825.5C 489.5,819.167 489.5,812.833 489.5,806.5C 521.662,805.502 553.996,805.168 586.5,805.5C 586.5,812.167 586.5,818.833 586.5,825.5 Z"/></g>
<g><path style="opacity:1" fill="#d87e3f" d="M 489.5,806.5 C 489.5,812.833 489.5,819.167 489.5,825.5C 521.833,825.5 554.167,825.5 586.5,825.5C 599.833,825.5 613.167,825.5 626.5,825.5C 626.333,838.504 626.5,851.504 627,864.5C 633.41,863.522 639.91,863.189 646.5,863.5C 646.5,874.833 646.5,886.167 646.5,897.5C 646.5,899.167 646.5,900.833 646.5,902.5C 639.833,902.5 633.167,902.5 626.5,902.5C 626.5,909.167 626.5,915.833 626.5,922.5C 606.5,922.5 586.5,922.5 566.5,922.5C 566.5,915.833 566.5,909.167 566.5,902.5C 547.167,902.5 527.833,902.5 508.5,902.5C 508.189,909.09 508.522,915.59 509.5,922C 489.503,922.5 469.503,922.667 449.5,922.5C 449.189,915.91 449.522,909.41 450.5,903C 443.842,902.5 437.175,902.334 430.5,902.5C 430.5,889.5 430.5,876.5 430.5,863.5C 437.175,863.666 443.842,863.5 450.5,863C 449.511,850.58 449.178,838.08 449.5,825.5C 462.5,825.5 475.5,825.5 488.5,825.5C 488.177,818.978 488.51,812.645 489.5,806.5 Z"/></g>
<g><path style="opacity:1" fill="#000000" d="M 488.5,844.5 C 521.5,844.5 554.5,844.5 587.5,844.5C 587.5,851.167 587.5,857.833 587.5,864.5C 580.5,864.5 573.5,864.5 566.5,864.5C 566.5,870.833 566.5,877.167 566.5,883.5C 547.5,883.5 528.5,883.5 509.5,883.5C 508.68,877.203 508.347,870.869 508.5,864.5C 501.833,864.5 495.167,864.5 488.5,864.5C 488.5,857.833 488.5,851.167 488.5,844.5 Z"/></g>
<g><path style="opacity:1" fill="#09d150" d="M 724.5,961.5 C 723.5,956.262 723.167,950.262 723.5,943.5C 717.5,943.5 711.5,943.5 705.5,943.5C 705.5,956.5 705.5,969.5 705.5,982.5C 699.491,982.334 693.491,982.501 687.5,983C 686.854,988.6 686.187,994.1 685.5,999.5C 685.5,993.5 685.5,987.5 685.5,981.5C 691.833,981.5 698.167,981.5 704.5,981.5C 704.5,968.5 704.5,955.5 704.5,942.5C 711.167,942.5 717.833,942.5 724.5,942.5C 724.5,948.833 724.5,955.167 724.5,961.5 Z"/></g>
<g><path style="opacity:1" fill="#000000" d="M 764.5,961.5 C 783.833,961.5 803.167,961.5 822.5,961.5C 822.5,967.833 822.5,974.167 822.5,980.5C 842.167,980.5 861.833,980.5 881.5,980.5C 881.5,986.833 881.5,993.167 881.5,999.5C 894.5,999.5 907.5,999.5 920.5,999.5C 920.5,1006.17 920.5,1012.83 920.5,1019.5C 907.167,1019.5 893.833,1019.5 880.5,1019.5C 880.5,1013.17 880.5,1006.83 880.5,1000.5C 861.167,1000.5 841.833,1000.5 822.5,1000.5C 822.5,994.167 822.5,987.833 822.5,981.5C 803.167,981.5 783.833,981.5 764.5,981.5C 764.5,974.833 764.5,968.167 764.5,961.5 Z"/></g>
<g><path style="opacity:1" fill="#fee40d" d="M 292.5,961.5 C 299.167,961.5 305.833,961.5 312.5,961.5C 312.5,974.5 312.5,987.5 312.5,1000.5C 319.5,1000.5 326.5,1000.5 333.5,1000.5C 333.5,1006.83 333.5,1013.17 333.5,1019.5C 340.167,1019.5 346.833,1019.5 353.5,1019.5C 353.233,1025.84 352.9,1032.17 352.5,1038.5C 359.167,1038.5 365.833,1038.5 372.5,1038.5C 372.5,1045.17 372.5,1051.83 372.5,1058.5C 379.167,1058.5 385.833,1058.5 392.5,1058.5C 392.5,1065.17 392.5,1071.83 392.5,1078.5C 405.167,1078.5 417.833,1078.5 430.5,1078.5C 430.5,1085.17 430.5,1091.83 430.5,1098.5C 456.5,1098.5 482.5,1098.5 508.5,1098.5C 508.5,1110.83 508.5,1123.17 508.5,1135.5C 521.5,1135.5 534.5,1135.5 547.5,1135.5C 547.5,1123.17 547.5,1110.83 547.5,1098.5C 573.833,1098.5 600.167,1098.5 626.5,1098.5C 626.5,1091.83 626.5,1085.17 626.5,1078.5C 639.833,1078.5 653.167,1078.5 666.5,1078.5C 666.5,1071.83 666.5,1065.17 666.5,1058.5C 672.833,1058.5 679.167,1058.5 685.5,1058.5C 685.5,1051.83 685.5,1045.17 685.5,1038.5C 691.833,1038.5 698.167,1038.5 704.5,1038.5C 704.5,1032.17 704.5,1025.83 704.5,1019.5C 711.175,1019.67 717.842,1019.5 724.5,1019C 723.524,1012.92 723.19,1006.76 723.5,1000.5C 730.5,1000.5 737.5,1000.5 744.5,1000.5C 744.5,987.5 744.5,974.5 744.5,961.5C 751.167,961.5 757.833,961.5 764.5,961.5C 764.5,968.167 764.5,974.833 764.5,981.5C 783.833,981.5 803.167,981.5 822.5,981.5C 822.5,987.833 822.5,994.167 822.5,1000.5C 841.833,1000.5 861.167,1000.5 880.5,1000.5C 880.5,1006.83 880.5,1013.17 880.5,1019.5C 893.833,1019.5 907.167,1019.5 920.5,1019.5C 920.5,1026.17 920.5,1032.83 920.5,1039.5C 932.833,1039.5 945.167,1039.5 957.5,1039.5C 957.5,1045.83 957.5,1052.17 957.5,1058.5C 964.167,1058.5 970.833,1058.5 977.5,1058.5C 977.176,1065.35 977.509,1072.02 978.5,1078.5C 980.571,1079.81 983.071,1080.48 986,1080.5C 989.48,1080.04 992.813,1080.04 996,1080.5C 996.775,1093.2 996.608,1105.87 995.5,1118.5C 1002.19,1118.53 1008.85,1118.86 1015.5,1119.5C 1015.33,1145.84 1015.5,1172.17 1016,1198.5C 1018.11,1200.29 1020.61,1200.96 1023.5,1200.5C 1023.5,1270.17 1023.5,1339.83 1023.5,1409.5C 1021.5,1409.5 1019.5,1409.5 1017.5,1409.5C 1017.5,1416.17 1017.5,1422.83 1017.5,1429.5C 972.5,1429.5 927.5,1429.5 882.5,1429.5C 888.979,1428.51 895.646,1428.18 902.5,1428.5C 902.5,1357.83 902.5,1287.17 902.5,1216.5C 895.5,1216.5 888.5,1216.5 881.5,1216.5C 881.5,1230.17 881.5,1243.83 881.5,1257.5C 875.167,1257.5 868.833,1257.5 862.5,1257.5C 862.5,1263.17 862.5,1268.83 862.5,1274.5C 868.69,1274.18 874.69,1274.51 880.5,1275.5C 874.158,1275.33 867.825,1275.5 861.5,1276C 862.044,1362.43 862.044,1448.93 861.5,1535.5C 861.167,1535.5 860.833,1535.5 860.5,1535.5C 860.5,1487.83 860.5,1440.17 860.5,1392.5C 854.167,1392.5 847.833,1392.5 841.5,1392.5C 841.5,1404.83 841.5,1417.17 841.5,1429.5C 835.167,1429.5 828.833,1429.5 822.5,1429.5C 822.5,1442.83 822.5,1456.17 822.5,1469.5C 815.833,1469.5 809.167,1469.5 802.5,1469.5C 802.5,1476.5 802.5,1483.5 802.5,1490.5C 796.167,1490.5 789.833,1490.5 783.5,1490.5C 783.5,1496.5 783.5,1502.5 783.5,1508.5C 770.833,1508.5 758.167,1508.5 745.5,1508.5C 745.5,1517.5 745.5,1526.5 745.5,1535.5C 587.833,1535.5 430.167,1535.5 272.5,1535.5C 272.5,1526.5 272.5,1517.5 272.5,1508.5C 259.833,1508.5 247.167,1508.5 234.5,1508.5C 234.5,1502.5 234.5,1496.5 234.5,1490.5C 227.833,1490.5 221.167,1490.5 214.5,1490.5C 214.5,1476.17 214.5,1461.83 214.5,1447.5C 207.833,1447.5 201.167,1447.5 194.5,1447.5C 194.5,1416.17 194.5,1384.83 194.5,1353.5C 188.5,1353.5 182.5,1353.5 176.5,1353.5C 176.5,1414.17 176.5,1474.83 176.5,1535.5C 176.167,1535.5 175.833,1535.5 175.5,1535.5C 175.5,1474.5 175.5,1413.5 175.5,1352.5C 175.5,1307.17 175.5,1261.83 175.5,1216.5C 168.833,1216.5 162.167,1216.5 155.5,1216.5C 155.5,1229.5 155.5,1242.5 155.5,1255.5C 162.022,1255.18 168.355,1255.51 174.5,1256.5C 168.167,1256.5 161.833,1256.5 155.5,1256.5C 155.5,1313.83 155.5,1371.17 155.5,1428.5C 155.167,1428.5 154.833,1428.5 154.5,1428.5C 154.5,1371.5 154.5,1314.5 154.5,1257.5C 148.5,1257.5 142.5,1257.5 136.5,1257.5C 136.5,1314.5 136.5,1371.5 136.5,1428.5C 104.907,1427.51 73.24,1427.17 41.5,1427.5C 41.5,1421.17 41.5,1414.83 41.5,1408.5C 35.1667,1408.5 28.8333,1408.5 22.5,1408.5C 22.5,1339.17 22.5,1269.83 22.5,1200.5C 28.9302,1200.83 34.5968,1200.5 39.5,1199.5C 39.5,1194.17 39.5,1188.83 39.5,1183.5C 41.1062,1162.02 41.7729,1140.35 41.5,1118.5C 48.1667,1118.5 54.8333,1118.5 61.5,1118.5C 60.6598,1106.08 60.3265,1093.41 60.5,1080.5C 66.8421,1080.67 73.1754,1080.5 79.5,1080C 80.4777,1073.59 80.811,1067.09 80.5,1060.5C 86.69,1060.82 92.69,1060.49 98.5,1059.5C 98.5,1059.17 98.5,1058.83 98.5,1058.5C 98.5,1052.17 98.5,1045.83 98.5,1039.5C 111.171,1039.67 123.838,1039.5 136.5,1039C 135.522,1032.59 135.189,1026.09 135.5,1019.5C 148.833,1019.5 162.167,1019.5 175.5,1019.5C 175.5,1013.17 175.5,1006.83 175.5,1000.5C 195.167,1000.5 214.833,1000.5 234.5,1000.5C 234.5,994.167 234.5,987.833 234.5,981.5C 253.833,981.5 273.167,981.5 292.5,981.5C 292.5,974.833 292.5,968.167 292.5,961.5 Z"/></g>
<g><path style="opacity:1" fill="#000001" d="M 292.5,961.5 C 292.5,968.167 292.5,974.833 292.5,981.5C 273.167,981.5 253.833,981.5 234.5,981.5C 234.5,987.833 234.5,994.167 234.5,1000.5C 214.833,1000.5 195.167,1000.5 175.5,1000.5C 175.5,1006.83 175.5,1013.17 175.5,1019.5C 162.167,1019.5 148.833,1019.5 135.5,1019.5C 135.5,1012.83 135.5,1006.17 135.5,999.5C 148.833,999.5 162.167,999.5 175.5,999.5C 175.5,993.167 175.5,986.833 175.5,980.5C 194.833,980.5 214.167,980.5 233.5,980.5C 233.5,974.167 233.5,967.833 233.5,961.5C 253.167,961.5 272.833,961.5 292.5,961.5 Z"/></g>
<g><path style="opacity:1" fill="#000000" d="M 135.5,1019.5 C 135.189,1026.09 135.522,1032.59 136.5,1039C 123.838,1039.5 111.171,1039.67 98.5,1039.5C 98.5,1032.83 98.5,1026.17 98.5,1019.5C 110.833,1019.5 123.167,1019.5 135.5,1019.5 Z"/></g>
<g><path style="opacity:1" fill="#000001" d="M 98.5,1039.5 C 98.5,1045.83 98.5,1052.17 98.5,1058.5C 91.8333,1058.5 85.1667,1058.5 78.5,1058.5C 78.5,1052.17 78.5,1045.83 78.5,1039.5C 85.1667,1039.5 91.8333,1039.5 98.5,1039.5 Z"/></g>
<g><path style="opacity:1" fill="#03a43e" d="M 410.5,1019.5 C 410.5,1026.17 410.5,1032.83 410.5,1039.5C 417.167,1039.5 423.833,1039.5 430.5,1039.5C 430.5,1046.17 430.5,1052.83 430.5,1059.5C 442.989,1060.5 455.656,1060.83 468.5,1060.5C 468.177,1066.69 468.51,1072.69 469.5,1078.5C 482.5,1078.5 495.5,1078.5 508.5,1078.5C 509.458,1084.74 509.791,1091.08 509.5,1097.5C 522.167,1097.5 534.833,1097.5 547.5,1097.5C 547.5,1091.17 547.5,1084.83 547.5,1078.5C 560.833,1078.5 574.167,1078.5 587.5,1078.5C 587.5,1071.83 587.5,1065.17 587.5,1058.5C 600.512,1058.46 613.512,1058.8 626.5,1059.5C 626.5,1052.83 626.5,1046.17 626.5,1039.5C 633.167,1039.5 639.833,1039.5 646.5,1039.5C 646.5,1032.83 646.5,1026.17 646.5,1019.5C 653.167,1019.5 659.833,1019.5 666.5,1019.5C 666.5,1013.17 666.5,1006.83 666.5,1000.5C 673.022,1000.82 679.355,1000.49 685.5,999.5C 686.187,994.1 686.854,988.6 687.5,983C 693.491,982.501 699.491,982.334 705.5,982.5C 705.5,969.5 705.5,956.5 705.5,943.5C 711.5,943.5 717.5,943.5 723.5,943.5C 723.167,950.262 723.5,956.262 724.5,961.5C 731.167,961.5 737.833,961.5 744.5,961.5C 744.5,974.5 744.5,987.5 744.5,1000.5C 737.5,1000.5 730.5,1000.5 723.5,1000.5C 723.19,1006.76 723.524,1012.92 724.5,1019C 717.842,1019.5 711.175,1019.67 704.5,1019.5C 704.5,1025.83 704.5,1032.17 704.5,1038.5C 698.167,1038.5 691.833,1038.5 685.5,1038.5C 685.5,1045.17 685.5,1051.83 685.5,1058.5C 679.167,1058.5 672.833,1058.5 666.5,1058.5C 666.5,1065.17 666.5,1071.83 666.5,1078.5C 653.167,1078.5 639.833,1078.5 626.5,1078.5C 626.5,1085.17 626.5,1091.83 626.5,1098.5C 600.167,1098.5 573.833,1098.5 547.5,1098.5C 547.5,1110.83 547.5,1123.17 547.5,1135.5C 534.5,1135.5 521.5,1135.5 508.5,1135.5C 508.5,1123.17 508.5,1110.83 508.5,1098.5C 482.5,1098.5 456.5,1098.5 430.5,1098.5C 430.5,1091.83 430.5,1085.17 430.5,1078.5C 417.833,1078.5 405.167,1078.5 392.5,1078.5C 392.5,1071.83 392.5,1065.17 392.5,1058.5C 385.833,1058.5 379.167,1058.5 372.5,1058.5C 372.5,1051.83 372.5,1045.17 372.5,1038.5C 365.833,1038.5 359.167,1038.5 352.5,1038.5C 352.9,1032.17 353.233,1025.84 353.5,1019.5C 346.833,1019.5 340.167,1019.5 333.5,1019.5C 333.5,1013.17 333.5,1006.83 333.5,1000.5C 326.5,1000.5 319.5,1000.5 312.5,1000.5C 312.5,987.5 312.5,974.5 312.5,961.5C 319.167,961.5 325.833,961.5 332.5,961.5C 332.5,955.167 332.5,948.833 332.5,942.5C 339.5,942.5 346.5,942.5 353.5,942.5C 353.5,955.5 353.5,968.5 353.5,981.5C 359.833,981.5 366.167,981.5 372.5,981.5C 372.5,988.167 372.5,994.833 372.5,1001.5C 378.833,1001.5 385.167,1001.5 391.5,1001.5C 391.5,1007.5 391.5,1013.5 391.5,1019.5C 397.833,1019.5 404.167,1019.5 410.5,1019.5 Z"/></g>
<g><path style="opacity:1" fill="#a85135" d="M 470.5,1058.5 C 469.51,1052.36 469.177,1046.02 469.5,1039.5C 456.833,1039.5 444.167,1039.5 431.5,1039.5C 444.235,1038.82 457.069,1038.16 470,1037.5C 470.5,1044.49 470.666,1051.49 470.5,1058.5 Z"/></g>
<g><path style="opacity:1" fill="#020202" d="M 410.5,1019.5 C 417.167,1019.5 423.833,1019.5 430.5,1019.5C 430.5,1026.17 430.5,1032.83 430.5,1039.5C 430.5,1032.83 430.5,1026.17 430.5,1019.5C 423.833,1019.5 417.167,1019.5 410.5,1019.5 Z"/></g>
<g><path style="opacity:1" fill="#030403" d="M 646.5,1019.5 C 646.5,1026.17 646.5,1032.83 646.5,1039.5C 639.833,1039.5 633.167,1039.5 626.5,1039.5C 626.5,1032.83 626.5,1026.17 626.5,1019.5C 633.167,1019.5 639.833,1019.5 646.5,1019.5 Z"/></g>
<g><path style="opacity:1" fill="#c73618" d="M 665.5,980.5 C 665.5,987.167 665.5,993.833 665.5,1000.5C 659.167,1000.5 652.833,1000.5 646.5,1000.5C 646.5,1006.83 646.5,1013.17 646.5,1019.5C 639.833,1019.5 633.167,1019.5 626.5,1019.5C 626.5,1026.17 626.5,1032.83 626.5,1039.5C 613.13,1039.78 599.797,1039.44 586.5,1038.5C 586.5,1045.17 586.5,1051.83 586.5,1058.5C 547.833,1058.5 509.167,1058.5 470.5,1058.5C 470.666,1051.49 470.5,1044.49 470,1037.5C 457.069,1038.16 444.235,1038.82 431.5,1039.5C 431.167,1039.5 430.833,1039.5 430.5,1039.5C 430.5,1032.83 430.5,1026.17 430.5,1019.5C 423.833,1019.5 417.167,1019.5 410.5,1019.5C 410.5,1013.17 410.5,1006.83 410.5,1000.5C 404.5,1000.5 398.5,1000.5 392.5,1000.5C 392.5,993.833 392.5,987.167 392.5,980.5C 404.838,980.333 417.171,980.5 429.5,981C 430.478,987.41 430.811,993.91 430.5,1000.5C 495.833,1000.5 561.167,1000.5 626.5,1000.5C 626.5,993.833 626.5,987.167 626.5,980.5C 639.5,980.5 652.5,980.5 665.5,980.5 Z"/></g>
<g><path style="opacity:1" fill="#c5381a" d="M 665.5,980.5 C 665.5,974.167 665.5,967.833 665.5,961.5C 671.842,961.334 678.175,961.5 684.5,962C 685.476,968.076 685.81,974.242 685.5,980.5C 678.833,980.5 672.167,980.5 665.5,980.5 Z"/></g>
<g><path style="opacity:1" fill="#532d1c" d="M 391.5,962.5 C 385.167,962.5 378.833,962.5 372.5,962.5C 372.5,968.5 372.5,974.5 372.5,980.5C 371.51,974.355 371.177,968.022 371.5,961.5C 378.354,961.176 385.021,961.509 391.5,962.5 Z"/></g>
<g><path style="opacity:1" fill="#cb3719" d="M 391.5,962.5 C 391.5,968.5 391.5,974.5 391.5,980.5C 385.167,980.5 378.833,980.5 372.5,980.5C 372.5,974.5 372.5,968.5 372.5,962.5C 378.833,962.5 385.167,962.5 391.5,962.5 Z"/></g>
<g><path style="opacity:1" fill="#060403" d="M 626.5,1039.5 C 626.5,1046.17 626.5,1052.83 626.5,1059.5C 613.512,1058.8 600.512,1058.46 587.5,1058.5C 587.167,1058.5 586.833,1058.5 586.5,1058.5C 586.5,1051.83 586.5,1045.17 586.5,1038.5C 599.797,1039.44 613.13,1039.78 626.5,1039.5 Z"/></g>
<g><path style="opacity:1" fill="#05d953" d="M 430.5,1059.5 C 443.5,1059.5 456.5,1059.5 469.5,1059.5C 469.5,1065.83 469.5,1072.17 469.5,1078.5C 468.51,1072.69 468.177,1066.69 468.5,1060.5C 455.656,1060.83 442.989,1060.5 430.5,1059.5 Z"/></g>
<g><path style="opacity:1" fill="#010101" d="M 430.5,1039.5 C 430.833,1039.5 431.167,1039.5 431.5,1039.5C 444.167,1039.5 456.833,1039.5 469.5,1039.5C 469.177,1046.02 469.51,1052.36 470.5,1058.5C 509.167,1058.5 547.833,1058.5 586.5,1058.5C 586.833,1058.5 587.167,1058.5 587.5,1058.5C 587.5,1065.17 587.5,1071.83 587.5,1078.5C 574.167,1078.5 560.833,1078.5 547.5,1078.5C 534.5,1078.5 521.5,1078.5 508.5,1078.5C 495.5,1078.5 482.5,1078.5 469.5,1078.5C 469.5,1072.17 469.5,1065.83 469.5,1059.5C 456.5,1059.5 443.5,1059.5 430.5,1059.5C 430.5,1052.83 430.5,1046.17 430.5,1039.5 Z"/></g>
<g><path style="opacity:1" fill="#020201" d="M 920.5,1019.5 C 933.167,1019.5 945.833,1019.5 958.5,1019.5C 958.334,1025.84 958.5,1032.18 959,1038.5C 965.076,1039.48 971.242,1039.81 977.5,1039.5C 977.334,1045.18 977.501,1050.84 978,1056.5C 978.374,1057.42 978.874,1058.25 979.5,1059C 985.491,1059.5 991.491,1059.67 997.5,1059.5C 997.5,1065.5 997.5,1071.5 997.5,1077.5C 1004.17,1077.5 1010.83,1077.5 1017.5,1077.5C 1017.5,1090.5 1017.5,1103.5 1017.5,1116.5C 1019.5,1116.5 1021.5,1116.5 1023.5,1116.5C 1023.5,1144.17 1023.5,1171.83 1023.5,1199.5C 1021.5,1199.5 1019.5,1199.5 1017.5,1199.5C 1017.5,1172.17 1017.5,1144.83 1017.5,1117.5C 1010.49,1117.67 1003.49,1117.5 996.5,1117C 997.489,1104.25 997.822,1091.41 997.5,1078.5C 991.167,1078.5 984.833,1078.5 978.5,1078.5C 977.509,1072.02 977.176,1065.35 977.5,1058.5C 970.833,1058.5 964.167,1058.5 957.5,1058.5C 957.5,1052.17 957.5,1045.83 957.5,1039.5C 945.167,1039.5 932.833,1039.5 920.5,1039.5C 920.5,1032.83 920.5,1026.17 920.5,1019.5 Z"/></g>
<g><path style="opacity:1" fill="#ac8c17" d="M 78.5,1058.5 C 85.1667,1058.5 91.8333,1058.5 98.5,1058.5C 98.5,1058.83 98.5,1059.17 98.5,1059.5C 92.1667,1059.5 85.8333,1059.5 79.5,1059.5C 79.8235,1066.02 79.4902,1072.36 78.5,1078.5C 78.5,1071.83 78.5,1065.17 78.5,1058.5 Z"/></g>
<g><path style="opacity:1" fill="#fdf918" d="M 98.5,1059.5 C 92.69,1060.49 86.69,1060.82 80.5,1060.5C 80.811,1067.09 80.4777,1073.59 79.5,1080C 73.1754,1080.5 66.8421,1080.67 60.5,1080.5C 60.3265,1093.41 60.6598,1106.08 61.5,1118.5C 54.8333,1118.5 48.1667,1118.5 41.5,1118.5C 41.7729,1140.35 41.1062,1162.02 39.5,1183.5C 39.5,1161.5 39.5,1139.5 39.5,1117.5C 46.5316,1117.83 53.5316,1117.5 60.5,1116.5C 59.5194,1103.88 59.1861,1091.22 59.5,1078.5C 65.8333,1078.5 72.1667,1078.5 78.5,1078.5C 79.4902,1072.36 79.8235,1066.02 79.5,1059.5C 85.8333,1059.5 92.1667,1059.5 98.5,1059.5 Z"/></g>
<g><path style="opacity:1" fill="#fce310" d="M 508.5,1078.5 C 521.5,1078.5 534.5,1078.5 547.5,1078.5C 547.5,1084.83 547.5,1091.17 547.5,1097.5C 534.833,1097.5 522.167,1097.5 509.5,1097.5C 509.791,1091.08 509.458,1084.74 508.5,1078.5 Z"/></g>
<g><path style="opacity:1" fill="#fdf913" d="M 978.5,1078.5 C 984.833,1078.5 991.167,1078.5 997.5,1078.5C 997.822,1091.41 997.489,1104.25 996.5,1117C 1003.49,1117.5 1010.49,1117.67 1017.5,1117.5C 1017.5,1144.83 1017.5,1172.17 1017.5,1199.5C 1019.5,1199.5 1021.5,1199.5 1023.5,1199.5C 1023.5,1199.83 1023.5,1200.17 1023.5,1200.5C 1020.61,1200.96 1018.11,1200.29 1016,1198.5C 1015.5,1172.17 1015.33,1145.84 1015.5,1119.5C 1008.85,1118.86 1002.19,1118.53 995.5,1118.5C 996.608,1105.87 996.775,1093.2 996,1080.5C 992.813,1080.04 989.48,1080.04 986,1080.5C 983.071,1080.48 980.571,1079.81 978.5,1078.5 Z"/></g>
<g><path style="opacity:1" fill="#02a13f" d="M 333.5,1141.5 C 339.833,1141.5 346.167,1141.5 352.5,1141.5C 352.5,1147.83 352.5,1154.17 352.5,1160.5C 346.167,1160.5 339.833,1160.5 333.5,1160.5C 333.5,1154.17 333.5,1147.83 333.5,1141.5 Z"/></g>
<g><path style="opacity:1" fill="#0da13e" d="M 292.5,1141.5 C 299.167,1141.5 305.833,1141.5 312.5,1141.5C 312.5,1147.83 312.5,1154.17 312.5,1160.5C 305.833,1160.5 299.167,1160.5 292.5,1160.5C 292.5,1154.17 292.5,1147.83 292.5,1141.5 Z"/></g>
<g><path style="opacity:1" fill="#02a03f" d="M 272.5,1140.5 C 273.491,1146.98 273.824,1153.65 273.5,1160.5C 266.833,1160.5 260.167,1160.5 253.5,1160.5C 253.5,1154.17 253.5,1147.83 253.5,1141.5C 260.022,1141.82 266.355,1141.49 272.5,1140.5 Z"/></g>
<g><path style="opacity:1" fill="#0aa13f" d="M 214.5,1160.5 C 220.833,1160.5 227.167,1160.5 233.5,1160.5C 233.5,1166.83 233.5,1173.17 233.5,1179.5C 227.167,1179.5 220.833,1179.5 214.5,1179.5C 214.5,1173.17 214.5,1166.83 214.5,1160.5 Z"/></g>
<g><path style="opacity:1" fill="#02a040" d="M 373.5,1160.5 C 379.833,1160.5 386.167,1160.5 392.5,1160.5C 392.5,1166.83 392.5,1173.17 392.5,1179.5C 386.167,1179.5 379.833,1179.5 373.5,1179.5C 373.5,1173.17 373.5,1166.83 373.5,1160.5 Z"/></g>
<g><path style="opacity:1" fill="#18376d" d="M 352.5,1199.5 C 346.158,1199.33 339.825,1199.5 333.5,1200C 339.491,1200.5 345.491,1200.67 351.5,1200.5C 350.903,1206.96 351.57,1213.13 353.5,1219C 366.162,1219.5 378.829,1219.67 391.5,1219.5C 391.5,1224.83 391.5,1230.17 391.5,1235.5C 384.833,1235.5 378.167,1235.5 371.5,1235.5C 371.5,1241.83 371.5,1248.17 371.5,1254.5C 365.824,1254.33 360.157,1254.5 354.5,1255C 360.348,1255.17 366.015,1255.67 371.5,1256.5C 365.5,1256.5 359.5,1256.5 353.5,1256.5C 353.5,1249.83 353.5,1243.17 353.5,1236.5C 346.833,1236.5 340.167,1236.5 333.5,1236.5C 333.5,1230.17 333.5,1223.83 333.5,1217.5C 326.5,1217.5 319.5,1217.5 312.5,1217.5C 312.5,1217.17 312.5,1216.83 312.5,1216.5C 313.495,1204.68 313.828,1192.68 313.5,1180.5C 319.358,1180.82 325.025,1180.49 330.5,1179.5C 330.56,1178.96 330.893,1178.62 331.5,1178.5C 332.497,1185.13 332.83,1191.8 332.5,1198.5C 339.354,1198.18 346.021,1198.51 352.5,1199.5 Z"/></g>
<g><path style="opacity:1" fill="#021182" d="M 330.5,1179.5 C 325.025,1180.49 319.358,1180.82 313.5,1180.5C 313.828,1192.68 313.495,1204.68 312.5,1216.5C 312.5,1204.17 312.5,1191.83 312.5,1179.5C 318.5,1179.5 324.5,1179.5 330.5,1179.5 Z"/></g>
<g><path style="opacity:1" fill="#19386b" d="M 292.5,1216.5 C 292.5,1216.83 292.5,1217.17 292.5,1217.5C 286.167,1217.5 279.833,1217.5 273.5,1217.5C 267.5,1217.5 261.5,1217.5 255.5,1217.5C 255.5,1211.83 255.5,1206.17 255.5,1200.5C 261.509,1200.67 267.509,1200.5 273.5,1200C 267.319,1199.83 261.319,1199.33 255.5,1198.5C 261.833,1198.5 268.167,1198.5 274.5,1198.5C 275.5,1193.26 275.833,1187.26 275.5,1180.5C 280.833,1180.5 286.167,1180.5 291.5,1180.5C 291.172,1192.68 291.505,1204.68 292.5,1216.5 Z"/></g>
<g><path style="opacity:1" fill="#010000" d="M 78.5,1058.5 C 78.5,1065.17 78.5,1071.83 78.5,1078.5C 72.1667,1078.5 65.8333,1078.5 59.5,1078.5C 59.1861,1091.22 59.5194,1103.88 60.5,1116.5C 53.5316,1117.5 46.5316,1117.83 39.5,1117.5C 39.5,1139.5 39.5,1161.5 39.5,1183.5C 39.5,1188.83 39.5,1194.17 39.5,1199.5C 33.1667,1199.5 26.8333,1199.5 20.5,1199.5C 20.5,1269.5 20.5,1339.5 20.5,1409.5C 20.5,1422.17 20.5,1434.83 20.5,1447.5C 27.1667,1447.5 33.8333,1447.5 40.5,1447.5C 40.5,1454.83 40.5,1462.17 40.5,1469.5C 33.7332,1470.13 27.0665,1470.8 20.5,1471.5C 20.5,1492.83 20.5,1514.17 20.5,1535.5C 13.5,1535.5 6.5,1535.5 -0.5,1535.5C -0.5,1423.17 -0.5,1310.83 -0.5,1198.5C 6.16667,1198.5 12.8333,1198.5 19.5,1198.5C 19.5,1171.17 19.5,1143.83 19.5,1116.5C 26.1667,1116.5 32.8333,1116.5 39.5,1116.5C 39.5,1103.5 39.5,1090.5 39.5,1077.5C 45.8333,1077.5 52.1667,1077.5 58.5,1077.5C 58.5,1071.17 58.5,1064.83 58.5,1058.5C 65.1667,1058.5 71.8333,1058.5 78.5,1058.5 Z"/></g>
<g><path style="opacity:1" fill="#001289" d="M 254.5,1198.5 C 254.833,1198.5 255.167,1198.5 255.5,1198.5C 261.319,1199.33 267.319,1199.83 273.5,1200C 267.509,1200.5 261.509,1200.67 255.5,1200.5C 255.5,1206.17 255.5,1211.83 255.5,1217.5C 255.167,1217.5 254.833,1217.5 254.5,1217.5C 254.5,1211.17 254.5,1204.83 254.5,1198.5 Z"/></g>
<g><path style="opacity:1" fill="#1e1984" d="M 292.5,1216.5 C 291.505,1204.68 291.172,1192.68 291.5,1180.5C 286.167,1180.5 280.833,1180.5 275.5,1180.5C 275.833,1187.26 275.5,1193.26 274.5,1198.5C 274.5,1191.83 274.5,1185.17 274.5,1178.5C 280.5,1178.5 286.5,1178.5 292.5,1178.5C 292.5,1191.17 292.5,1203.83 292.5,1216.5 Z"/></g>
<g><path style="opacity:1" fill="#797b42" d="M 254.5,1198.5 C 254.5,1204.83 254.5,1211.17 254.5,1217.5C 250.833,1217.5 247.167,1217.5 243.5,1217.5C 246.625,1216.52 249.958,1216.19 253.5,1216.5C 253.177,1210.31 253.51,1204.31 254.5,1198.5 Z"/></g>
<g><path style="opacity:1" fill="#eda215" d="M 175.5,1352.5 C 174.502,1320.67 174.168,1288.67 174.5,1256.5C 168.355,1255.51 162.022,1255.18 155.5,1255.5C 155.5,1242.5 155.5,1229.5 155.5,1216.5C 162.167,1216.5 168.833,1216.5 175.5,1216.5C 175.5,1261.83 175.5,1307.17 175.5,1352.5 Z"/></g>
<g><path style="opacity:1" fill="#27207c" d="M 352.5,1199.5 C 352.5,1205.5 352.5,1211.5 352.5,1217.5C 365.833,1217.5 379.167,1217.5 392.5,1217.5C 392.5,1223.83 392.5,1230.17 392.5,1236.5C 385.833,1236.5 379.167,1236.5 372.5,1236.5C 372.824,1243.35 372.491,1250.02 371.5,1256.5C 366.015,1255.67 360.348,1255.17 354.5,1255C 360.157,1254.5 365.824,1254.33 371.5,1254.5C 371.5,1248.17 371.5,1241.83 371.5,1235.5C 378.167,1235.5 384.833,1235.5 391.5,1235.5C 391.5,1230.17 391.5,1224.83 391.5,1219.5C 378.829,1219.67 366.162,1219.5 353.5,1219C 351.57,1213.13 350.903,1206.96 351.5,1200.5C 345.491,1200.67 339.491,1200.5 333.5,1200C 339.825,1199.5 346.158,1199.33 352.5,1199.5 Z"/></g>
<g><path style="opacity:1" fill="#e0eaf2" d="M 273.5,1217.5 C 279.833,1217.5 286.167,1217.5 292.5,1217.5C 299.068,1218.81 305.734,1218.81 312.5,1217.5C 319.5,1217.5 326.5,1217.5 333.5,1217.5C 333.5,1223.83 333.5,1230.17 333.5,1236.5C 326.687,1237.49 319.687,1237.82 312.5,1237.5C 312.5,1243.83 312.5,1250.17 312.5,1256.5C 305.833,1256.5 299.167,1256.5 292.5,1256.5C 292.5,1250.17 292.5,1243.83 292.5,1237.5C 286.167,1237.5 279.833,1237.5 273.5,1237.5C 273.5,1230.83 273.5,1224.17 273.5,1217.5 Z"/></g>
<g><path style="opacity:1" fill="#163484" d="M 216.5,1217.5 C 225.5,1217.5 234.5,1217.5 243.5,1217.5C 247.167,1217.5 250.833,1217.5 254.5,1217.5C 254.5,1230.17 254.5,1242.83 254.5,1255.5C 248.824,1255.67 243.157,1255.5 237.5,1255C 242.823,1254.5 248.156,1254.33 253.5,1254.5C 253.5,1242.5 253.5,1230.5 253.5,1218.5C 245.14,1218.17 236.807,1218.5 228.5,1219.5C 228.709,1220.09 229.043,1220.59 229.5,1221C 227.598,1221.2 226.098,1222.03 225,1223.5C 224.08,1223.07 223.247,1222.74 222.5,1222.5C 223.912,1221.19 225.579,1220.36 227.5,1220C 223.848,1219.5 220.182,1219.33 216.5,1219.5C 216.5,1218.83 216.5,1218.17 216.5,1217.5 Z"/></g>
<g><path style="opacity:1" fill="#02a13e" d="M 647.5,1216.5 C 653.31,1217.49 659.31,1217.82 665.5,1217.5C 665.5,1223.83 665.5,1230.17 665.5,1236.5C 659.167,1236.5 652.833,1236.5 646.5,1236.5C 646.176,1229.65 646.509,1222.98 647.5,1216.5 Z"/></g>
<g><path style="opacity:1" fill="#18386d" d="M 254.5,1255.5 C 254.5,1255.83 254.5,1256.17 254.5,1256.5C 248.5,1256.5 242.5,1256.5 236.5,1256.5C 236.5,1249.5 236.5,1242.5 236.5,1235.5C 229.833,1235.5 223.167,1235.5 216.5,1235.5C 216.5,1230.17 216.5,1224.83 216.5,1219.5C 220.182,1219.33 223.848,1219.5 227.5,1220C 225.579,1220.36 223.912,1221.19 222.5,1222.5C 223.247,1222.74 224.08,1223.07 225,1223.5C 226.098,1222.03 227.598,1221.2 229.5,1221C 229.043,1220.59 228.709,1220.09 228.5,1219.5C 236.807,1218.5 245.14,1218.17 253.5,1218.5C 253.5,1230.5 253.5,1242.5 253.5,1254.5C 248.156,1254.33 242.823,1254.5 237.5,1255C 243.157,1255.5 248.824,1255.67 254.5,1255.5 Z"/></g>
<g><path style="opacity:1" fill="#0aa03f" d="M 783.5,1236.5 C 783.5,1229.83 783.5,1223.17 783.5,1216.5C 790.167,1216.5 796.833,1216.5 803.5,1216.5C 803.5,1223.17 803.5,1229.83 803.5,1236.5C 796.833,1236.5 790.167,1236.5 783.5,1236.5 Z"/></g>
<g><path style="opacity:1" fill="#79c124" d="M 647.5,1216.5 C 653.833,1216.5 660.167,1216.5 666.5,1216.5C 666.5,1223.17 666.5,1229.83 666.5,1236.5C 666.167,1236.5 665.833,1236.5 665.5,1236.5C 665.5,1230.17 665.5,1223.83 665.5,1217.5C 659.31,1217.82 653.31,1217.49 647.5,1216.5 Z"/></g>
<g><path style="opacity:1" fill="#21207f" d="M 216.5,1217.5 C 216.5,1218.17 216.5,1218.83 216.5,1219.5C 216.5,1224.83 216.5,1230.17 216.5,1235.5C 223.167,1235.5 229.833,1235.5 236.5,1235.5C 236.5,1242.5 236.5,1249.5 236.5,1256.5C 235.509,1250.02 235.176,1243.35 235.5,1236.5C 228.5,1236.5 221.5,1236.5 214.5,1236.5C 213.877,1229.75 214.544,1223.41 216.5,1217.5 Z"/></g>
<g><path style="opacity:1" fill="#90c820" d="M 783.5,1236.5 C 783.5,1236.83 783.5,1237.17 783.5,1237.5C 770.833,1237.5 758.167,1237.5 745.5,1237.5C 745.823,1244.02 745.49,1250.36 744.5,1256.5C 744.5,1249.83 744.5,1243.17 744.5,1236.5C 757.5,1236.5 770.5,1236.5 783.5,1236.5 Z"/></g>
<g><path style="opacity:1" fill="#1775da" d="M 254.5,1217.5 C 254.833,1217.5 255.167,1217.5 255.5,1217.5C 261.5,1217.5 267.5,1217.5 273.5,1217.5C 273.5,1224.17 273.5,1230.83 273.5,1237.5C 279.833,1237.5 286.167,1237.5 292.5,1237.5C 292.5,1243.83 292.5,1250.17 292.5,1256.5C 299.167,1256.5 305.833,1256.5 312.5,1256.5C 312.5,1250.17 312.5,1243.83 312.5,1237.5C 319.687,1237.82 326.687,1237.49 333.5,1236.5C 340.167,1236.5 346.833,1236.5 353.5,1236.5C 353.5,1243.17 353.5,1249.83 353.5,1256.5C 346.5,1256.5 339.5,1256.5 332.5,1256.5C 332.5,1262.83 332.5,1269.17 332.5,1275.5C 339.5,1275.5 346.5,1275.5 353.5,1275.5C 353.5,1287.5 353.5,1299.5 353.5,1311.5C 353.5,1312.17 353.5,1312.83 353.5,1313.5C 353.167,1313.5 352.833,1313.5 352.5,1313.5C 352.167,1313.5 351.833,1313.5 351.5,1313.5C 345.5,1313.5 339.5,1313.5 333.5,1313.5C 333.5,1307.17 333.5,1300.83 333.5,1294.5C 326.5,1294.5 319.5,1294.5 312.5,1294.5C 312.5,1288.17 312.5,1281.83 312.5,1275.5C 305.5,1275.5 298.5,1275.5 291.5,1275.5C 291.5,1281.83 291.5,1288.17 291.5,1294.5C 285.5,1294.5 279.5,1294.5 273.5,1294.5C 273.5,1300.83 273.5,1307.17 273.5,1313.5C 266.745,1313.21 260.078,1313.54 253.5,1314.5C 253.5,1314.17 253.5,1313.83 253.5,1313.5C 253.5,1312.83 253.5,1312.17 253.5,1311.5C 253.5,1299.5 253.5,1287.5 253.5,1275.5C 253.833,1275.5 254.167,1275.5 254.5,1275.5C 260.833,1275.5 267.167,1275.5 273.5,1275.5C 273.5,1269.17 273.5,1262.83 273.5,1256.5C 267.167,1256.5 260.833,1256.5 254.5,1256.5C 254.5,1256.17 254.5,1255.83 254.5,1255.5C 254.5,1242.83 254.5,1230.17 254.5,1217.5 Z"/></g>
<g><path style="opacity:1" fill="#17a33e" d="M 666.5,1236.5 C 679.167,1236.5 691.833,1236.5 704.5,1236.5C 704.5,1243.17 704.5,1249.83 704.5,1256.5C 691.833,1256.5 679.167,1256.5 666.5,1256.5C 666.5,1249.83 666.5,1243.17 666.5,1236.5 Z"/></g>
<g><path style="opacity:1" fill="#030101" d="M 174.5,1256.5 C 174.168,1288.67 174.502,1320.67 175.5,1352.5C 175.5,1413.5 175.5,1474.5 175.5,1535.5C 168.833,1535.5 162.167,1535.5 155.5,1535.5C 155.5,1520.17 155.5,1504.83 155.5,1489.5C 117.167,1489.5 78.8333,1489.5 40.5,1489.5C 40.5,1482.83 40.5,1476.17 40.5,1469.5C 72.5,1469.5 104.5,1469.5 136.5,1469.5C 142.833,1469.5 149.167,1469.5 155.5,1469.5C 155.5,1456.17 155.5,1442.83 155.5,1429.5C 155.5,1429.17 155.5,1428.83 155.5,1428.5C 155.5,1371.17 155.5,1313.83 155.5,1256.5C 161.833,1256.5 168.167,1256.5 174.5,1256.5 Z"/></g>
<g><path style="opacity:1" fill="#e2ecf3" d="M 254.5,1256.5 C 260.833,1256.5 267.167,1256.5 273.5,1256.5C 273.5,1262.83 273.5,1269.17 273.5,1275.5C 267.167,1275.5 260.833,1275.5 254.5,1275.5C 254.5,1269.17 254.5,1262.83 254.5,1256.5 Z"/></g>
<g><path style="opacity:1" fill="#e1ebf3" d="M 353.5,1256.5 C 353.5,1262.83 353.5,1269.17 353.5,1275.5C 346.5,1275.5 339.5,1275.5 332.5,1275.5C 332.5,1269.17 332.5,1262.83 332.5,1256.5C 339.5,1256.5 346.5,1256.5 353.5,1256.5 Z"/></g>
<g><path style="opacity:1" fill="#02a43e" d="M 783.5,1238.5 C 783.5,1250.5 783.5,1262.5 783.5,1274.5C 782.669,1263.01 782.169,1251.34 782,1239.5C 781.5,1251.16 781.333,1262.83 781.5,1274.5C 756.167,1274.5 730.833,1274.5 705.5,1274.5C 705.5,1268.83 705.5,1263.17 705.5,1257.5C 716.499,1257.95 727.499,1258.45 738.5,1259C 738.93,1259.92 739.264,1260.75 739.5,1261.5C 740.251,1260.62 740.751,1259.62 741,1258.5C 742,1259.83 743,1259.83 744,1258.5C 744.333,1259.17 744.667,1259.83 745,1260.5C 746.391,1253.25 746.891,1245.92 746.5,1238.5C 758.833,1238.5 771.167,1238.5 783.5,1238.5 Z"/></g>
<g><path style="opacity:1" fill="#019345" d="M 783.5,1237.5 C 783.5,1237.83 783.5,1238.17 783.5,1238.5C 771.167,1238.5 758.833,1238.5 746.5,1238.5C 746.891,1245.92 746.391,1253.25 745,1260.5C 744.667,1259.83 744.333,1259.17 744,1258.5C 743,1259.83 742,1259.83 741,1258.5C 740.751,1259.62 740.251,1260.62 739.5,1261.5C 739.264,1260.75 738.93,1259.92 738.5,1259C 727.499,1258.45 716.499,1257.95 705.5,1257.5C 705.5,1263.17 705.5,1268.83 705.5,1274.5C 730.833,1274.5 756.167,1274.5 781.5,1274.5C 781.333,1262.83 781.5,1251.16 782,1239.5C 782.169,1251.34 782.669,1263.01 783.5,1274.5C 757.431,1275.17 731.264,1275.84 705,1276.5C 704.5,1269.84 704.334,1263.17 704.5,1256.5C 717.833,1256.5 731.167,1256.5 744.5,1256.5C 745.49,1250.36 745.823,1244.02 745.5,1237.5C 758.167,1237.5 770.833,1237.5 783.5,1237.5 Z"/></g>
<g><path style="opacity:1" fill="#060302" d="M 880.5,1275.5 C 881.499,1326.66 881.832,1378 881.5,1429.5C 881.5,1442.83 881.5,1456.17 881.5,1469.5C 888.167,1469.5 894.833,1469.5 901.5,1469.5C 940.004,1469.17 978.337,1469.5 1016.5,1470.5C 1016.5,1476.83 1016.5,1483.17 1016.5,1489.5C 971.508,1488.58 926.508,1488.25 881.5,1488.5C 881.5,1504.17 881.5,1519.83 881.5,1535.5C 874.833,1535.5 868.167,1535.5 861.5,1535.5C 862.044,1448.93 862.044,1362.43 861.5,1276C 867.825,1275.5 874.158,1275.33 880.5,1275.5 Z"/></g>
<g><path style="opacity:1" fill="#e1eaf3" d="M 333.5,1313.5 C 326.5,1313.5 319.5,1313.5 312.5,1313.5C 305.833,1313.5 299.167,1313.5 292.5,1313.5C 286.167,1313.5 279.833,1313.5 273.5,1313.5C 273.5,1307.17 273.5,1300.83 273.5,1294.5C 279.5,1294.5 285.5,1294.5 291.5,1294.5C 291.5,1288.17 291.5,1281.83 291.5,1275.5C 298.5,1275.5 305.5,1275.5 312.5,1275.5C 312.5,1281.83 312.5,1288.17 312.5,1294.5C 319.5,1294.5 326.5,1294.5 333.5,1294.5C 333.5,1300.83 333.5,1307.17 333.5,1313.5 Z"/></g>
<g><path style="opacity:1" fill="#17376d" d="M 353.5,1275.5 C 353.833,1275.5 354.167,1275.5 354.5,1275.5C 354.369,1276.24 354.536,1276.91 355,1277.5C 360.407,1276.53 365.907,1276.19 371.5,1276.5C 371.5,1288.17 371.5,1299.83 371.5,1311.5C 365.5,1311.5 359.5,1311.5 353.5,1311.5C 353.5,1299.5 353.5,1287.5 353.5,1275.5 Z"/></g>
<g><path style="opacity:1" fill="#17376c" d="M 252.5,1275.5 C 252.833,1275.5 253.167,1275.5 253.5,1275.5C 253.5,1287.5 253.5,1299.5 253.5,1311.5C 247.833,1311.5 242.167,1311.5 236.5,1311.5C 236.5,1299.83 236.5,1288.17 236.5,1276.5C 242.026,1276.82 247.36,1276.49 252.5,1275.5 Z"/></g>
<g><path style="opacity:1" fill="#0f2277" d="M 252.5,1275.5 C 247.36,1276.49 242.026,1276.82 236.5,1276.5C 236.5,1288.17 236.5,1299.83 236.5,1311.5C 242.167,1311.5 247.833,1311.5 253.5,1311.5C 253.5,1312.17 253.5,1312.83 253.5,1313.5C 247.5,1313.5 241.5,1313.5 235.5,1313.5C 235.5,1300.83 235.5,1288.17 235.5,1275.5C 241.167,1275.5 246.833,1275.5 252.5,1275.5 Z"/></g>
<g><path style="opacity:1" fill="#0c217a" d="M 354.5,1275.5 C 360.5,1275.5 366.5,1275.5 372.5,1275.5C 372.5,1288.17 372.5,1300.83 372.5,1313.5C 366.167,1313.5 359.833,1313.5 353.5,1313.5C 353.5,1312.83 353.5,1312.17 353.5,1311.5C 359.5,1311.5 365.5,1311.5 371.5,1311.5C 371.5,1299.83 371.5,1288.17 371.5,1276.5C 365.907,1276.19 360.407,1276.53 355,1277.5C 354.536,1276.91 354.369,1276.24 354.5,1275.5 Z"/></g>
<g><path style="opacity:1" fill="#17376e" d="M 273.5,1313.5 C 279.833,1313.5 286.167,1313.5 292.5,1313.5C 292.5,1313.83 292.5,1314.17 292.5,1314.5C 291.505,1326.66 291.171,1338.99 291.5,1351.5C 285.833,1351.5 280.167,1351.5 274.5,1351.5C 274.5,1345.17 274.5,1338.83 274.5,1332.5C 267.443,1332.76 260.443,1332.43 253.5,1331.5C 253.5,1325.83 253.5,1320.17 253.5,1314.5C 260.078,1313.54 266.745,1313.21 273.5,1313.5 Z"/></g>
<g><path style="opacity:1" fill="#17376e" d="M 312.5,1314.5 C 312.5,1314.17 312.5,1313.83 312.5,1313.5C 319.5,1313.5 326.5,1313.5 333.5,1313.5C 339.5,1313.5 345.5,1313.5 351.5,1313.5C 351.5,1319.83 351.5,1326.17 351.5,1332.5C 345.974,1332.18 340.64,1332.51 335.5,1333.5C 334.5,1333.5 333.5,1333.5 332.5,1333.5C 331.51,1339.31 331.177,1345.31 331.5,1351.5C 325.833,1351.5 320.167,1351.5 314.5,1351.5C 315.146,1338.79 314.48,1326.45 312.5,1314.5 Z"/></g>
<g><path style="opacity:1" fill="#ed9f08" d="M 154.5,1428.5 C 148.5,1428.5 142.5,1428.5 136.5,1428.5C 136.5,1371.5 136.5,1314.5 136.5,1257.5C 142.5,1257.5 148.5,1257.5 154.5,1257.5C 154.5,1314.5 154.5,1371.5 154.5,1428.5 Z"/></g>
<g><path style="opacity:1" fill="#071e7b" d="M 312.5,1314.5 C 314.48,1326.45 315.146,1338.79 314.5,1351.5C 320.167,1351.5 325.833,1351.5 331.5,1351.5C 331.177,1345.31 331.51,1339.31 332.5,1333.5C 332.5,1339.83 332.5,1346.17 332.5,1352.5C 325.833,1352.5 319.167,1352.5 312.5,1352.5C 312.5,1339.83 312.5,1327.17 312.5,1314.5 Z"/></g>
<g><path style="opacity:1" fill="#031287" d="M 351.5,1313.5 C 351.833,1313.5 352.167,1313.5 352.5,1313.5C 352.5,1320.17 352.5,1326.83 352.5,1333.5C 346.833,1333.5 341.167,1333.5 335.5,1333.5C 340.64,1332.51 345.974,1332.18 351.5,1332.5C 351.5,1326.17 351.5,1319.83 351.5,1313.5 Z"/></g>
<g><path style="opacity:1" fill="#eda208" d="M 882.5,1429.5 C 882.167,1429.5 881.833,1429.5 881.5,1429.5C 881.832,1378 881.499,1326.66 880.5,1275.5C 874.69,1274.51 868.69,1274.18 862.5,1274.5C 862.5,1268.83 862.5,1263.17 862.5,1257.5C 868.833,1257.5 875.167,1257.5 881.5,1257.5C 881.5,1243.83 881.5,1230.17 881.5,1216.5C 888.5,1216.5 895.5,1216.5 902.5,1216.5C 902.5,1287.17 902.5,1357.83 902.5,1428.5C 895.646,1428.18 888.979,1428.51 882.5,1429.5 Z"/></g>
<g><path style="opacity:1" fill="#010d87" d="M 292.5,1314.5 C 292.5,1327.17 292.5,1339.83 292.5,1352.5C 286.167,1352.5 279.833,1352.5 273.5,1352.5C 273.5,1346.17 273.5,1339.83 273.5,1333.5C 266.416,1334.13 259.75,1333.46 253.5,1331.5C 260.443,1332.43 267.443,1332.76 274.5,1332.5C 274.5,1338.83 274.5,1345.17 274.5,1351.5C 280.167,1351.5 285.833,1351.5 291.5,1351.5C 291.171,1338.99 291.505,1326.66 292.5,1314.5 Z"/></g>
<g><path style="opacity:1" fill="#0b9f40" d="M 292.5,1371.5 C 299.833,1371.5 307.167,1371.5 314.5,1371.5C 314.5,1384.5 314.5,1397.5 314.5,1410.5C 311.833,1410.5 309.167,1410.5 306.5,1410.5C 306.5,1405.17 306.5,1399.83 306.5,1394.5C 304.5,1394.5 302.5,1394.5 300.5,1394.5C 300.5,1399.5 300.5,1404.5 300.5,1409.5C 297.833,1409.5 295.167,1409.5 292.5,1409.5C 292.5,1396.83 292.5,1384.17 292.5,1371.5 Z"/></g>
<g><path style="opacity:1" fill="#0f9f40" d="M 324.5,1371.5 C 330.833,1371.5 337.167,1371.5 343.5,1371.5C 343.5,1374.5 343.5,1377.5 343.5,1380.5C 339.833,1380.5 336.167,1380.5 332.5,1380.5C 332.5,1382.5 332.5,1384.5 332.5,1386.5C 336.167,1386.5 339.833,1386.5 343.5,1386.5C 343.5,1394.17 343.5,1401.83 343.5,1409.5C 337.167,1409.5 330.833,1409.5 324.5,1409.5C 324.5,1406.83 324.5,1404.17 324.5,1401.5C 327.833,1401.5 331.167,1401.5 334.5,1401.5C 334.5,1399.17 334.5,1396.83 334.5,1394.5C 331.167,1394.5 327.833,1394.5 324.5,1394.5C 324.5,1386.83 324.5,1379.17 324.5,1371.5 Z"/></g>
<g><path style="opacity:1" fill="#fbec05" d="M 300.5,1380.5 C 302.5,1380.5 304.5,1380.5 306.5,1380.5C 306.5,1382.5 306.5,1384.5 306.5,1386.5C 304.5,1386.5 302.5,1386.5 300.5,1386.5C 300.5,1384.5 300.5,1382.5 300.5,1380.5 Z"/></g>
<g><path style="opacity:1" fill="#099f3f" d="M 258.5,1379.5 C 258.5,1387.17 258.5,1394.83 258.5,1402.5C 256.585,1402.22 254.919,1402.55 253.5,1403.5C 253.5,1405.83 253.5,1408.17 253.5,1410.5C 247.5,1410.5 241.5,1410.5 235.5,1410.5C 235.5,1397.5 235.5,1384.5 235.5,1371.5C 241.5,1371.5 247.5,1371.5 253.5,1371.5C 253.337,1373.86 253.503,1376.19 254,1378.5C 255.356,1379.38 256.856,1379.71 258.5,1379.5 Z"/></g>
<g><path style="opacity:1" fill="#fcee07" d="M 243.5,1380.5 C 246.833,1380.5 250.167,1380.5 253.5,1380.5C 253.5,1382.5 253.5,1384.5 253.5,1386.5C 250.167,1386.5 246.833,1386.5 243.5,1386.5C 243.5,1384.5 243.5,1382.5 243.5,1380.5 Z"/></g>
<g><path style="opacity:1" fill="#18a03f" d="M 265.5,1371.5 C 272.167,1371.5 278.833,1371.5 285.5,1371.5C 285.5,1374.5 285.5,1377.5 285.5,1380.5C 281.5,1380.5 277.5,1380.5 273.5,1380.5C 273.5,1382.5 273.5,1384.5 273.5,1386.5C 277.833,1386.5 282.167,1386.5 286.5,1386.5C 286.5,1394.5 286.5,1402.5 286.5,1410.5C 284.5,1410.5 282.5,1410.5 280.5,1410.5C 280.5,1405.17 280.5,1399.83 280.5,1394.5C 278.167,1394.5 275.833,1394.5 273.5,1394.5C 273.5,1399.83 273.5,1405.17 273.5,1410.5C 270.833,1410.5 268.167,1410.5 265.5,1410.5C 265.5,1397.5 265.5,1384.5 265.5,1371.5 Z"/></g>
<g><path style="opacity:1" fill="#1fa33e" d="M 353.5,1371.5 C 355.833,1371.5 358.167,1371.5 360.5,1371.5C 360.5,1384.17 360.5,1396.83 360.5,1409.5C 358.167,1409.5 355.833,1409.5 353.5,1409.5C 353.5,1396.83 353.5,1384.17 353.5,1371.5 Z"/></g>
<g><path style="opacity:1" fill="#7bc225" d="M 258.5,1379.5 C 259.492,1387.32 259.826,1395.32 259.5,1403.5C 257.5,1403.5 255.5,1403.5 253.5,1403.5C 254.919,1402.55 256.585,1402.22 258.5,1402.5C 258.5,1394.83 258.5,1387.17 258.5,1379.5 Z"/></g>
<g><path style="opacity:1" fill="#fae90a" d="M 243.5,1394.5 C 246.833,1394.5 250.167,1394.5 253.5,1394.5C 253.5,1396.83 253.5,1399.17 253.5,1401.5C 250.167,1401.5 246.833,1401.5 243.5,1401.5C 243.5,1399.17 243.5,1396.83 243.5,1394.5 Z"/></g>
<g><path style="opacity:1" fill="#03a040" d="M 366.5,1371.5 C 369.167,1371.5 371.833,1371.5 374.5,1371.5C 374.5,1381.5 374.5,1391.5 374.5,1401.5C 378.167,1401.5 381.833,1401.5 385.5,1401.5C 385.5,1404.17 385.5,1406.83 385.5,1409.5C 379.167,1409.5 372.833,1409.5 366.5,1409.5C 366.5,1396.83 366.5,1384.17 366.5,1371.5 Z"/></g>
<g><path style="opacity:1" fill="#eeed12" d="M 39.5,1199.5 C 34.5968,1200.5 28.9302,1200.83 22.5,1200.5C 22.5,1269.83 22.5,1339.17 22.5,1408.5C 28.8333,1408.5 35.1667,1408.5 41.5,1408.5C 41.5,1414.83 41.5,1421.17 41.5,1427.5C 73.24,1427.17 104.907,1427.51 136.5,1428.5C 142.5,1428.5 148.5,1428.5 154.5,1428.5C 154.833,1428.5 155.167,1428.5 155.5,1428.5C 155.5,1428.83 155.5,1429.17 155.5,1429.5C 155.167,1429.5 154.833,1429.5 154.5,1429.5C 116.167,1429.5 77.8333,1429.5 39.5,1429.5C 39.5,1422.83 39.5,1416.17 39.5,1409.5C 33.1667,1409.5 26.8333,1409.5 20.5,1409.5C 20.5,1339.5 20.5,1269.5 20.5,1199.5C 26.8333,1199.5 33.1667,1199.5 39.5,1199.5 Z"/></g>
<g><path style="opacity:1" fill="#02a33d" d="M 20.5,1409.5 C 26.8333,1409.5 33.1667,1409.5 39.5,1409.5C 39.5,1416.17 39.5,1422.83 39.5,1429.5C 71.9957,1430.5 104.662,1430.83 137.5,1430.5C 137.333,1443.17 137.5,1455.84 138,1468.5C 138.17,1466.29 138.837,1464.29 140,1462.5C 140.333,1463.17 140.667,1463.83 141,1464.5C 141.893,1463.29 142.726,1463.29 143.5,1464.5C 144.103,1465.63 144.436,1466.63 144.5,1467.5C 147.383,1467.13 150.383,1467.13 153.5,1467.5C 153.187,1454.75 153.52,1442.09 154.5,1429.5C 154.833,1429.5 155.167,1429.5 155.5,1429.5C 155.5,1442.83 155.5,1456.17 155.5,1469.5C 149.167,1469.5 142.833,1469.5 136.5,1469.5C 105.004,1468.5 73.3377,1468.17 41.5,1468.5C 41.8245,1461.31 41.4912,1454.31 40.5,1447.5C 33.8333,1447.5 27.1667,1447.5 20.5,1447.5C 20.5,1434.83 20.5,1422.17 20.5,1409.5 Z"/></g>
<g><path style="opacity:1" fill="#ed9f08" d="M 860.5,1535.5 C 822.167,1535.5 783.833,1535.5 745.5,1535.5C 745.5,1526.5 745.5,1517.5 745.5,1508.5C 758.167,1508.5 770.833,1508.5 783.5,1508.5C 783.5,1502.5 783.5,1496.5 783.5,1490.5C 789.833,1490.5 796.167,1490.5 802.5,1490.5C 802.5,1483.5 802.5,1476.5 802.5,1469.5C 809.167,1469.5 815.833,1469.5 822.5,1469.5C 822.5,1456.17 822.5,1442.83 822.5,1429.5C 828.833,1429.5 835.167,1429.5 841.5,1429.5C 841.5,1417.17 841.5,1404.83 841.5,1392.5C 847.833,1392.5 854.167,1392.5 860.5,1392.5C 860.5,1440.17 860.5,1487.83 860.5,1535.5 Z"/></g>
<g><path style="opacity:1" fill="#03a53e" d="M 1023.5,1409.5 C 1023.5,1422.5 1023.5,1435.5 1023.5,1448.5C 1021.5,1448.5 1019.5,1448.5 1017.5,1448.5C 1017.5,1455.83 1017.5,1463.17 1017.5,1470.5C 1017.17,1470.5 1016.83,1470.5 1016.5,1470.5C 978.337,1469.5 940.004,1469.17 901.5,1469.5C 901.5,1456.5 901.5,1443.5 901.5,1430.5C 940.337,1430.83 979.004,1430.5 1017.5,1429.5C 1017.5,1422.83 1017.5,1416.17 1017.5,1409.5C 1019.5,1409.5 1021.5,1409.5 1023.5,1409.5 Z"/></g>
<g><path style="opacity:1" fill="#07893b" d="M 39.5,1429.5 C 77.8333,1429.5 116.167,1429.5 154.5,1429.5C 153.52,1442.09 153.187,1454.75 153.5,1467.5C 150.383,1467.13 147.383,1467.13 144.5,1467.5C 144.436,1466.63 144.103,1465.63 143.5,1464.5C 142.726,1463.29 141.893,1463.29 141,1464.5C 140.667,1463.83 140.333,1463.17 140,1462.5C 138.837,1464.29 138.17,1466.29 138,1468.5C 137.5,1455.84 137.333,1443.17 137.5,1430.5C 104.662,1430.83 71.9957,1430.5 39.5,1429.5 Z"/></g>
<g><path style="opacity:1" fill="#088a39" d="M 881.5,1429.5 C 881.833,1429.5 882.167,1429.5 882.5,1429.5C 927.5,1429.5 972.5,1429.5 1017.5,1429.5C 979.004,1430.5 940.337,1430.83 901.5,1430.5C 901.5,1443.5 901.5,1456.5 901.5,1469.5C 894.833,1469.5 888.167,1469.5 881.5,1469.5C 881.5,1456.17 881.5,1442.83 881.5,1429.5 Z"/></g>
<g><path style="opacity:1" fill="#010101" d="M 1023.5,1448.5 C 1023.5,1455.83 1023.5,1463.17 1023.5,1470.5C 1021.5,1470.5 1019.5,1470.5 1017.5,1470.5C 1017.5,1463.17 1017.5,1455.83 1017.5,1448.5C 1019.5,1448.5 1021.5,1448.5 1023.5,1448.5 Z"/></g>
<g><path style="opacity:1" fill="#0bd451" d="M 40.5,1447.5 C 41.4912,1454.31 41.8245,1461.31 41.5,1468.5C 73.3377,1468.17 105.004,1468.5 136.5,1469.5C 104.5,1469.5 72.5,1469.5 40.5,1469.5C 40.5,1462.17 40.5,1454.83 40.5,1447.5 Z"/></g>
<g><path style="opacity:1" fill="#d2501d" d="M 40.5,1469.5 C 40.5,1476.17 40.5,1482.83 40.5,1489.5C 78.8333,1489.5 117.167,1489.5 155.5,1489.5C 155.5,1504.83 155.5,1520.17 155.5,1535.5C 149.167,1535.5 142.833,1535.5 136.5,1535.5C 136.5,1526.5 136.5,1517.5 136.5,1508.5C 104.167,1508.5 71.8333,1508.5 39.5,1508.5C 39.5,1502.17 39.5,1495.83 39.5,1489.5C 33.5,1489.5 27.5,1489.5 21.5,1489.5C 21.8229,1483.31 21.4896,1477.31 20.5,1471.5C 27.0665,1470.8 33.7332,1470.13 40.5,1469.5 Z"/></g>
<g><path style="opacity:1" fill="#ce4e1d" d="M 1016.5,1489.5 C 1016.5,1495.83 1016.5,1502.17 1016.5,1508.5C 978.167,1508.5 939.833,1508.5 901.5,1508.5C 901.5,1517.5 901.5,1526.5 901.5,1535.5C 894.833,1535.5 888.167,1535.5 881.5,1535.5C 881.5,1519.83 881.5,1504.17 881.5,1488.5C 926.508,1488.25 971.508,1488.58 1016.5,1489.5 Z"/></g>
<g><path style="opacity:1" fill="#ed9f08" d="M 272.5,1535.5 C 240.5,1535.5 208.5,1535.5 176.5,1535.5C 176.5,1474.83 176.5,1414.17 176.5,1353.5C 182.5,1353.5 188.5,1353.5 194.5,1353.5C 194.5,1384.83 194.5,1416.17 194.5,1447.5C 201.167,1447.5 207.833,1447.5 214.5,1447.5C 214.5,1461.83 214.5,1476.17 214.5,1490.5C 221.167,1490.5 227.833,1490.5 234.5,1490.5C 234.5,1496.5 234.5,1502.5 234.5,1508.5C 247.167,1508.5 259.833,1508.5 272.5,1508.5C 272.5,1517.5 272.5,1526.5 272.5,1535.5 Z"/></g>
<g><path style="opacity:1" fill="#d77d3e" d="M 20.5,1471.5 C 21.4896,1477.31 21.8229,1483.31 21.5,1489.5C 27.5,1489.5 33.5,1489.5 39.5,1489.5C 39.5,1495.83 39.5,1502.17 39.5,1508.5C 71.8333,1508.5 104.167,1508.5 136.5,1508.5C 136.5,1517.5 136.5,1526.5 136.5,1535.5C 97.8333,1535.5 59.1667,1535.5 20.5,1535.5C 20.5,1514.17 20.5,1492.83 20.5,1471.5 Z"/></g>
<g><path style="opacity:1" fill="#d77d3e" d="M 1016.5,1470.5 C 1016.83,1470.5 1017.17,1470.5 1017.5,1470.5C 1019.5,1470.5 1021.5,1470.5 1023.5,1470.5C 1023.5,1492.17 1023.5,1513.83 1023.5,1535.5C 982.833,1535.5 942.167,1535.5 901.5,1535.5C 901.5,1526.5 901.5,1517.5 901.5,1508.5C 939.833,1508.5 978.167,1508.5 1016.5,1508.5C 1016.5,1502.17 1016.5,1495.83 1016.5,1489.5C 1016.5,1483.17 1016.5,1476.83 1016.5,1470.5 Z"/></g>
</svg>
